%TF.GenerationSoftware,KiCad,Pcbnew,(5.1.6)-1*%
%TF.CreationDate,2020-09-19T18:08:18+02:00*%
%TF.ProjectId,watch,77617463-682e-46b6-9963-61645f706362,rev?*%
%TF.SameCoordinates,Original*%
%TF.FileFunction,Soldermask,Bot*%
%TF.FilePolarity,Negative*%
%FSLAX46Y46*%
G04 Gerber Fmt 4.6, Leading zero omitted, Abs format (unit mm)*
G04 Created by KiCad (PCBNEW (5.1.6)-1) date 2020-09-19 18:08:18*
%MOMM*%
%LPD*%
G01*
G04 APERTURE LIST*
%ADD10R,1.624000X0.862000*%
%ADD11R,1.160000X0.750000*%
%ADD12R,1.801800X0.455600*%
%ADD13R,1.900000X1.100000*%
G04 APERTURE END LIST*
%TO.C,R7*%
G36*
G01*
X159206312Y-56315111D02*
X159206312Y-55790111D01*
G75*
G02*
X159468812Y-55527611I262500J0D01*
G01*
X160093812Y-55527611D01*
G75*
G02*
X160356312Y-55790111I0J-262500D01*
G01*
X160356312Y-56315111D01*
G75*
G02*
X160093812Y-56577611I-262500J0D01*
G01*
X159468812Y-56577611D01*
G75*
G02*
X159206312Y-56315111I0J262500D01*
G01*
G37*
G36*
G01*
X157456312Y-56315111D02*
X157456312Y-55790111D01*
G75*
G02*
X157718812Y-55527611I262500J0D01*
G01*
X158343812Y-55527611D01*
G75*
G02*
X158606312Y-55790111I0J-262500D01*
G01*
X158606312Y-56315111D01*
G75*
G02*
X158343812Y-56577611I-262500J0D01*
G01*
X157718812Y-56577611D01*
G75*
G02*
X157456312Y-56315111I0J262500D01*
G01*
G37*
%TD*%
%TO.C,R6*%
G36*
G01*
X158606312Y-57290111D02*
X158606312Y-57815111D01*
G75*
G02*
X158343812Y-58077611I-262500J0D01*
G01*
X157718812Y-58077611D01*
G75*
G02*
X157456312Y-57815111I0J262500D01*
G01*
X157456312Y-57290111D01*
G75*
G02*
X157718812Y-57027611I262500J0D01*
G01*
X158343812Y-57027611D01*
G75*
G02*
X158606312Y-57290111I0J-262500D01*
G01*
G37*
G36*
G01*
X160356312Y-57290111D02*
X160356312Y-57815111D01*
G75*
G02*
X160093812Y-58077611I-262500J0D01*
G01*
X159468812Y-58077611D01*
G75*
G02*
X159206312Y-57815111I0J262500D01*
G01*
X159206312Y-57290111D01*
G75*
G02*
X159468812Y-57027611I262500J0D01*
G01*
X160093812Y-57027611D01*
G75*
G02*
X160356312Y-57290111I0J-262500D01*
G01*
G37*
%TD*%
D10*
%TO.C,J2*%
X157781312Y-69602611D03*
X157781312Y-70602611D03*
X157781312Y-71602611D03*
X157781312Y-72602611D03*
%TD*%
%TO.C,BT1*%
X161781312Y-66852611D03*
X161781312Y-67852611D03*
%TD*%
%TO.C,J1*%
X135531312Y-72102611D03*
X135531312Y-73102611D03*
X135531312Y-74102611D03*
X135531312Y-75102611D03*
%TD*%
D11*
%TO.C,U6*%
X147181312Y-61902611D03*
X147181312Y-63802611D03*
X149381312Y-63802611D03*
X149381312Y-62852611D03*
X149381312Y-61902611D03*
%TD*%
D12*
%TO.C,U9*%
X155417962Y-66002610D03*
X155417962Y-65352611D03*
X155417962Y-64702612D03*
X153144662Y-64702612D03*
X153144662Y-65352611D03*
X153144662Y-66002610D03*
%TD*%
%TO.C,U8*%
X155417962Y-61252610D03*
X155417962Y-60602611D03*
X155417962Y-59952612D03*
X153144662Y-59952612D03*
X153144662Y-60602611D03*
X153144662Y-61252610D03*
%TD*%
D13*
%TO.C,Y1*%
X134531312Y-64352611D03*
X134531312Y-66852611D03*
%TD*%
D11*
%TO.C,U7*%
X157681312Y-61902611D03*
X157681312Y-63802611D03*
X159881312Y-63802611D03*
X159881312Y-62852611D03*
X159881312Y-61902611D03*
%TD*%
%TO.C,U5*%
G36*
G01*
X141856312Y-65902611D02*
X141856312Y-65652611D01*
G75*
G02*
X141981312Y-65527611I125000J0D01*
G01*
X143306312Y-65527611D01*
G75*
G02*
X143431312Y-65652611I0J-125000D01*
G01*
X143431312Y-65902611D01*
G75*
G02*
X143306312Y-66027611I-125000J0D01*
G01*
X141981312Y-66027611D01*
G75*
G02*
X141856312Y-65902611I0J125000D01*
G01*
G37*
G36*
G01*
X141856312Y-65252611D02*
X141856312Y-65002611D01*
G75*
G02*
X141981312Y-64877611I125000J0D01*
G01*
X143306312Y-64877611D01*
G75*
G02*
X143431312Y-65002611I0J-125000D01*
G01*
X143431312Y-65252611D01*
G75*
G02*
X143306312Y-65377611I-125000J0D01*
G01*
X141981312Y-65377611D01*
G75*
G02*
X141856312Y-65252611I0J125000D01*
G01*
G37*
G36*
G01*
X141856312Y-64602611D02*
X141856312Y-64352611D01*
G75*
G02*
X141981312Y-64227611I125000J0D01*
G01*
X143306312Y-64227611D01*
G75*
G02*
X143431312Y-64352611I0J-125000D01*
G01*
X143431312Y-64602611D01*
G75*
G02*
X143306312Y-64727611I-125000J0D01*
G01*
X141981312Y-64727611D01*
G75*
G02*
X141856312Y-64602611I0J125000D01*
G01*
G37*
G36*
G01*
X141856312Y-63952611D02*
X141856312Y-63702611D01*
G75*
G02*
X141981312Y-63577611I125000J0D01*
G01*
X143306312Y-63577611D01*
G75*
G02*
X143431312Y-63702611I0J-125000D01*
G01*
X143431312Y-63952611D01*
G75*
G02*
X143306312Y-64077611I-125000J0D01*
G01*
X141981312Y-64077611D01*
G75*
G02*
X141856312Y-63952611I0J125000D01*
G01*
G37*
G36*
G01*
X141856312Y-63302611D02*
X141856312Y-63052611D01*
G75*
G02*
X141981312Y-62927611I125000J0D01*
G01*
X143306312Y-62927611D01*
G75*
G02*
X143431312Y-63052611I0J-125000D01*
G01*
X143431312Y-63302611D01*
G75*
G02*
X143306312Y-63427611I-125000J0D01*
G01*
X141981312Y-63427611D01*
G75*
G02*
X141856312Y-63302611I0J125000D01*
G01*
G37*
G36*
G01*
X141856312Y-62652611D02*
X141856312Y-62402611D01*
G75*
G02*
X141981312Y-62277611I125000J0D01*
G01*
X143306312Y-62277611D01*
G75*
G02*
X143431312Y-62402611I0J-125000D01*
G01*
X143431312Y-62652611D01*
G75*
G02*
X143306312Y-62777611I-125000J0D01*
G01*
X141981312Y-62777611D01*
G75*
G02*
X141856312Y-62652611I0J125000D01*
G01*
G37*
G36*
G01*
X141856312Y-62002611D02*
X141856312Y-61752611D01*
G75*
G02*
X141981312Y-61627611I125000J0D01*
G01*
X143306312Y-61627611D01*
G75*
G02*
X143431312Y-61752611I0J-125000D01*
G01*
X143431312Y-62002611D01*
G75*
G02*
X143306312Y-62127611I-125000J0D01*
G01*
X141981312Y-62127611D01*
G75*
G02*
X141856312Y-62002611I0J125000D01*
G01*
G37*
G36*
G01*
X141856312Y-61352611D02*
X141856312Y-61102611D01*
G75*
G02*
X141981312Y-60977611I125000J0D01*
G01*
X143306312Y-60977611D01*
G75*
G02*
X143431312Y-61102611I0J-125000D01*
G01*
X143431312Y-61352611D01*
G75*
G02*
X143306312Y-61477611I-125000J0D01*
G01*
X141981312Y-61477611D01*
G75*
G02*
X141856312Y-61352611I0J125000D01*
G01*
G37*
G36*
G01*
X141856312Y-60702611D02*
X141856312Y-60452611D01*
G75*
G02*
X141981312Y-60327611I125000J0D01*
G01*
X143306312Y-60327611D01*
G75*
G02*
X143431312Y-60452611I0J-125000D01*
G01*
X143431312Y-60702611D01*
G75*
G02*
X143306312Y-60827611I-125000J0D01*
G01*
X141981312Y-60827611D01*
G75*
G02*
X141856312Y-60702611I0J125000D01*
G01*
G37*
G36*
G01*
X141856312Y-60052611D02*
X141856312Y-59802611D01*
G75*
G02*
X141981312Y-59677611I125000J0D01*
G01*
X143306312Y-59677611D01*
G75*
G02*
X143431312Y-59802611I0J-125000D01*
G01*
X143431312Y-60052611D01*
G75*
G02*
X143306312Y-60177611I-125000J0D01*
G01*
X141981312Y-60177611D01*
G75*
G02*
X141856312Y-60052611I0J125000D01*
G01*
G37*
G36*
G01*
X136131312Y-60052611D02*
X136131312Y-59802611D01*
G75*
G02*
X136256312Y-59677611I125000J0D01*
G01*
X137581312Y-59677611D01*
G75*
G02*
X137706312Y-59802611I0J-125000D01*
G01*
X137706312Y-60052611D01*
G75*
G02*
X137581312Y-60177611I-125000J0D01*
G01*
X136256312Y-60177611D01*
G75*
G02*
X136131312Y-60052611I0J125000D01*
G01*
G37*
G36*
G01*
X136131312Y-60702611D02*
X136131312Y-60452611D01*
G75*
G02*
X136256312Y-60327611I125000J0D01*
G01*
X137581312Y-60327611D01*
G75*
G02*
X137706312Y-60452611I0J-125000D01*
G01*
X137706312Y-60702611D01*
G75*
G02*
X137581312Y-60827611I-125000J0D01*
G01*
X136256312Y-60827611D01*
G75*
G02*
X136131312Y-60702611I0J125000D01*
G01*
G37*
G36*
G01*
X136131312Y-61352611D02*
X136131312Y-61102611D01*
G75*
G02*
X136256312Y-60977611I125000J0D01*
G01*
X137581312Y-60977611D01*
G75*
G02*
X137706312Y-61102611I0J-125000D01*
G01*
X137706312Y-61352611D01*
G75*
G02*
X137581312Y-61477611I-125000J0D01*
G01*
X136256312Y-61477611D01*
G75*
G02*
X136131312Y-61352611I0J125000D01*
G01*
G37*
G36*
G01*
X136131312Y-62002611D02*
X136131312Y-61752611D01*
G75*
G02*
X136256312Y-61627611I125000J0D01*
G01*
X137581312Y-61627611D01*
G75*
G02*
X137706312Y-61752611I0J-125000D01*
G01*
X137706312Y-62002611D01*
G75*
G02*
X137581312Y-62127611I-125000J0D01*
G01*
X136256312Y-62127611D01*
G75*
G02*
X136131312Y-62002611I0J125000D01*
G01*
G37*
G36*
G01*
X136131312Y-62652611D02*
X136131312Y-62402611D01*
G75*
G02*
X136256312Y-62277611I125000J0D01*
G01*
X137581312Y-62277611D01*
G75*
G02*
X137706312Y-62402611I0J-125000D01*
G01*
X137706312Y-62652611D01*
G75*
G02*
X137581312Y-62777611I-125000J0D01*
G01*
X136256312Y-62777611D01*
G75*
G02*
X136131312Y-62652611I0J125000D01*
G01*
G37*
G36*
G01*
X136131312Y-63302611D02*
X136131312Y-63052611D01*
G75*
G02*
X136256312Y-62927611I125000J0D01*
G01*
X137581312Y-62927611D01*
G75*
G02*
X137706312Y-63052611I0J-125000D01*
G01*
X137706312Y-63302611D01*
G75*
G02*
X137581312Y-63427611I-125000J0D01*
G01*
X136256312Y-63427611D01*
G75*
G02*
X136131312Y-63302611I0J125000D01*
G01*
G37*
G36*
G01*
X136131312Y-63952611D02*
X136131312Y-63702611D01*
G75*
G02*
X136256312Y-63577611I125000J0D01*
G01*
X137581312Y-63577611D01*
G75*
G02*
X137706312Y-63702611I0J-125000D01*
G01*
X137706312Y-63952611D01*
G75*
G02*
X137581312Y-64077611I-125000J0D01*
G01*
X136256312Y-64077611D01*
G75*
G02*
X136131312Y-63952611I0J125000D01*
G01*
G37*
G36*
G01*
X136131312Y-64602611D02*
X136131312Y-64352611D01*
G75*
G02*
X136256312Y-64227611I125000J0D01*
G01*
X137581312Y-64227611D01*
G75*
G02*
X137706312Y-64352611I0J-125000D01*
G01*
X137706312Y-64602611D01*
G75*
G02*
X137581312Y-64727611I-125000J0D01*
G01*
X136256312Y-64727611D01*
G75*
G02*
X136131312Y-64602611I0J125000D01*
G01*
G37*
G36*
G01*
X136131312Y-65252611D02*
X136131312Y-65002611D01*
G75*
G02*
X136256312Y-64877611I125000J0D01*
G01*
X137581312Y-64877611D01*
G75*
G02*
X137706312Y-65002611I0J-125000D01*
G01*
X137706312Y-65252611D01*
G75*
G02*
X137581312Y-65377611I-125000J0D01*
G01*
X136256312Y-65377611D01*
G75*
G02*
X136131312Y-65252611I0J125000D01*
G01*
G37*
G36*
G01*
X136131312Y-65902611D02*
X136131312Y-65652611D01*
G75*
G02*
X136256312Y-65527611I125000J0D01*
G01*
X137581312Y-65527611D01*
G75*
G02*
X137706312Y-65652611I0J-125000D01*
G01*
X137706312Y-65902611D01*
G75*
G02*
X137581312Y-66027611I-125000J0D01*
G01*
X136256312Y-66027611D01*
G75*
G02*
X136131312Y-65902611I0J125000D01*
G01*
G37*
%TD*%
%TO.C,R3*%
G36*
G01*
X159206312Y-60365111D02*
X159206312Y-59840111D01*
G75*
G02*
X159468812Y-59577611I262500J0D01*
G01*
X160093812Y-59577611D01*
G75*
G02*
X160356312Y-59840111I0J-262500D01*
G01*
X160356312Y-60365111D01*
G75*
G02*
X160093812Y-60627611I-262500J0D01*
G01*
X159468812Y-60627611D01*
G75*
G02*
X159206312Y-60365111I0J262500D01*
G01*
G37*
G36*
G01*
X157456312Y-60365111D02*
X157456312Y-59840111D01*
G75*
G02*
X157718812Y-59577611I262500J0D01*
G01*
X158343812Y-59577611D01*
G75*
G02*
X158606312Y-59840111I0J-262500D01*
G01*
X158606312Y-60365111D01*
G75*
G02*
X158343812Y-60627611I-262500J0D01*
G01*
X157718812Y-60627611D01*
G75*
G02*
X157456312Y-60365111I0J262500D01*
G01*
G37*
%TD*%
%TO.C,C15*%
G36*
G01*
X147981312Y-59840111D02*
X147981312Y-60365111D01*
G75*
G02*
X147718812Y-60627611I-262500J0D01*
G01*
X147093812Y-60627611D01*
G75*
G02*
X146831312Y-60365111I0J262500D01*
G01*
X146831312Y-59840111D01*
G75*
G02*
X147093812Y-59577611I262500J0D01*
G01*
X147718812Y-59577611D01*
G75*
G02*
X147981312Y-59840111I0J-262500D01*
G01*
G37*
G36*
G01*
X149731312Y-59840111D02*
X149731312Y-60365111D01*
G75*
G02*
X149468812Y-60627611I-262500J0D01*
G01*
X148843812Y-60627611D01*
G75*
G02*
X148581312Y-60365111I0J262500D01*
G01*
X148581312Y-59840111D01*
G75*
G02*
X148843812Y-59577611I262500J0D01*
G01*
X149468812Y-59577611D01*
G75*
G02*
X149731312Y-59840111I0J-262500D01*
G01*
G37*
%TD*%
%TO.C,C14*%
G36*
G01*
X159081312Y-65865111D02*
X159081312Y-65340111D01*
G75*
G02*
X159343812Y-65077611I262500J0D01*
G01*
X159968812Y-65077611D01*
G75*
G02*
X160231312Y-65340111I0J-262500D01*
G01*
X160231312Y-65865111D01*
G75*
G02*
X159968812Y-66127611I-262500J0D01*
G01*
X159343812Y-66127611D01*
G75*
G02*
X159081312Y-65865111I0J262500D01*
G01*
G37*
G36*
G01*
X157331312Y-65865111D02*
X157331312Y-65340111D01*
G75*
G02*
X157593812Y-65077611I262500J0D01*
G01*
X158218812Y-65077611D01*
G75*
G02*
X158481312Y-65340111I0J-262500D01*
G01*
X158481312Y-65865111D01*
G75*
G02*
X158218812Y-66127611I-262500J0D01*
G01*
X157593812Y-66127611D01*
G75*
G02*
X157331312Y-65865111I0J262500D01*
G01*
G37*
%TD*%
%TO.C,C10*%
G36*
G01*
X133293812Y-59552611D02*
X132768812Y-59552611D01*
G75*
G02*
X132506312Y-59290111I0J262500D01*
G01*
X132506312Y-58665111D01*
G75*
G02*
X132768812Y-58402611I262500J0D01*
G01*
X133293812Y-58402611D01*
G75*
G02*
X133556312Y-58665111I0J-262500D01*
G01*
X133556312Y-59290111D01*
G75*
G02*
X133293812Y-59552611I-262500J0D01*
G01*
G37*
G36*
G01*
X133293812Y-61302611D02*
X132768812Y-61302611D01*
G75*
G02*
X132506312Y-61040111I0J262500D01*
G01*
X132506312Y-60415111D01*
G75*
G02*
X132768812Y-60152611I262500J0D01*
G01*
X133293812Y-60152611D01*
G75*
G02*
X133556312Y-60415111I0J-262500D01*
G01*
X133556312Y-61040111D01*
G75*
G02*
X133293812Y-61302611I-262500J0D01*
G01*
G37*
%TD*%
%TO.C,C9*%
G36*
G01*
X144793812Y-62552611D02*
X144268812Y-62552611D01*
G75*
G02*
X144006312Y-62290111I0J262500D01*
G01*
X144006312Y-61665111D01*
G75*
G02*
X144268812Y-61402611I262500J0D01*
G01*
X144793812Y-61402611D01*
G75*
G02*
X145056312Y-61665111I0J-262500D01*
G01*
X145056312Y-62290111D01*
G75*
G02*
X144793812Y-62552611I-262500J0D01*
G01*
G37*
G36*
G01*
X144793812Y-64302611D02*
X144268812Y-64302611D01*
G75*
G02*
X144006312Y-64040111I0J262500D01*
G01*
X144006312Y-63415111D01*
G75*
G02*
X144268812Y-63152611I262500J0D01*
G01*
X144793812Y-63152611D01*
G75*
G02*
X145056312Y-63415111I0J-262500D01*
G01*
X145056312Y-64040111D01*
G75*
G02*
X144793812Y-64302611I-262500J0D01*
G01*
G37*
%TD*%
%TO.C,C8*%
G36*
G01*
X140081312Y-58865111D02*
X140081312Y-58340111D01*
G75*
G02*
X140343812Y-58077611I262500J0D01*
G01*
X140968812Y-58077611D01*
G75*
G02*
X141231312Y-58340111I0J-262500D01*
G01*
X141231312Y-58865111D01*
G75*
G02*
X140968812Y-59127611I-262500J0D01*
G01*
X140343812Y-59127611D01*
G75*
G02*
X140081312Y-58865111I0J262500D01*
G01*
G37*
G36*
G01*
X138331312Y-58865111D02*
X138331312Y-58340111D01*
G75*
G02*
X138593812Y-58077611I262500J0D01*
G01*
X139218812Y-58077611D01*
G75*
G02*
X139481312Y-58340111I0J-262500D01*
G01*
X139481312Y-58865111D01*
G75*
G02*
X139218812Y-59127611I-262500J0D01*
G01*
X138593812Y-59127611D01*
G75*
G02*
X138331312Y-58865111I0J262500D01*
G01*
G37*
%TD*%
%TO.C,C7*%
G36*
G01*
X132793812Y-63302611D02*
X132268812Y-63302611D01*
G75*
G02*
X132006312Y-63040111I0J262500D01*
G01*
X132006312Y-62415111D01*
G75*
G02*
X132268812Y-62152611I262500J0D01*
G01*
X132793812Y-62152611D01*
G75*
G02*
X133056312Y-62415111I0J-262500D01*
G01*
X133056312Y-63040111D01*
G75*
G02*
X132793812Y-63302611I-262500J0D01*
G01*
G37*
G36*
G01*
X132793812Y-65052611D02*
X132268812Y-65052611D01*
G75*
G02*
X132006312Y-64790111I0J262500D01*
G01*
X132006312Y-64165111D01*
G75*
G02*
X132268812Y-63902611I262500J0D01*
G01*
X132793812Y-63902611D01*
G75*
G02*
X133056312Y-64165111I0J-262500D01*
G01*
X133056312Y-64790111D01*
G75*
G02*
X132793812Y-65052611I-262500J0D01*
G01*
G37*
%TD*%
%TO.C,C6*%
G36*
G01*
X132268812Y-68152611D02*
X132793812Y-68152611D01*
G75*
G02*
X133056312Y-68415111I0J-262500D01*
G01*
X133056312Y-69040111D01*
G75*
G02*
X132793812Y-69302611I-262500J0D01*
G01*
X132268812Y-69302611D01*
G75*
G02*
X132006312Y-69040111I0J262500D01*
G01*
X132006312Y-68415111D01*
G75*
G02*
X132268812Y-68152611I262500J0D01*
G01*
G37*
G36*
G01*
X132268812Y-66402611D02*
X132793812Y-66402611D01*
G75*
G02*
X133056312Y-66665111I0J-262500D01*
G01*
X133056312Y-67290111D01*
G75*
G02*
X132793812Y-67552611I-262500J0D01*
G01*
X132268812Y-67552611D01*
G75*
G02*
X132006312Y-67290111I0J262500D01*
G01*
X132006312Y-66665111D01*
G75*
G02*
X132268812Y-66402611I262500J0D01*
G01*
G37*
%TD*%
%TO.C,C4*%
G36*
G01*
X148581312Y-65865111D02*
X148581312Y-65340111D01*
G75*
G02*
X148843812Y-65077611I262500J0D01*
G01*
X149468812Y-65077611D01*
G75*
G02*
X149731312Y-65340111I0J-262500D01*
G01*
X149731312Y-65865111D01*
G75*
G02*
X149468812Y-66127611I-262500J0D01*
G01*
X148843812Y-66127611D01*
G75*
G02*
X148581312Y-65865111I0J262500D01*
G01*
G37*
G36*
G01*
X146831312Y-65865111D02*
X146831312Y-65340111D01*
G75*
G02*
X147093812Y-65077611I262500J0D01*
G01*
X147718812Y-65077611D01*
G75*
G02*
X147981312Y-65340111I0J-262500D01*
G01*
X147981312Y-65865111D01*
G75*
G02*
X147718812Y-66127611I-262500J0D01*
G01*
X147093812Y-66127611D01*
G75*
G02*
X146831312Y-65865111I0J262500D01*
G01*
G37*
%TD*%
%TO.C,C3*%
G36*
G01*
X161793812Y-62552611D02*
X161268812Y-62552611D01*
G75*
G02*
X161006312Y-62290111I0J262500D01*
G01*
X161006312Y-61665111D01*
G75*
G02*
X161268812Y-61402611I262500J0D01*
G01*
X161793812Y-61402611D01*
G75*
G02*
X162056312Y-61665111I0J-262500D01*
G01*
X162056312Y-62290111D01*
G75*
G02*
X161793812Y-62552611I-262500J0D01*
G01*
G37*
G36*
G01*
X161793812Y-64302611D02*
X161268812Y-64302611D01*
G75*
G02*
X161006312Y-64040111I0J262500D01*
G01*
X161006312Y-63415111D01*
G75*
G02*
X161268812Y-63152611I262500J0D01*
G01*
X161793812Y-63152611D01*
G75*
G02*
X162056312Y-63415111I0J-262500D01*
G01*
X162056312Y-64040111D01*
G75*
G02*
X161793812Y-64302611I-262500J0D01*
G01*
G37*
%TD*%
M02*
