%TF.GenerationSoftware,KiCad,Pcbnew,(5.1.6)-1*%
%TF.CreationDate,2020-09-19T18:08:18+02:00*%
%TF.ProjectId,watch,77617463-682e-46b6-9963-61645f706362,rev?*%
%TF.SameCoordinates,Original*%
%TF.FileFunction,Legend,Top*%
%TF.FilePolarity,Positive*%
%FSLAX46Y46*%
G04 Gerber Fmt 4.6, Leading zero omitted, Abs format (unit mm)*
G04 Created by KiCad (PCBNEW (5.1.6)-1) date 2020-09-19 18:08:18*
%MOMM*%
%LPD*%
G01*
G04 APERTURE LIST*
%ADD10C,0.120000*%
G04 APERTURE END LIST*
D10*
%TO.C,R4*%
X132771312Y-51431344D02*
X132771312Y-51773878D01*
X133791312Y-51431344D02*
X133791312Y-51773878D01*
%TO.C,C5*%
X134271312Y-51431344D02*
X134271312Y-51773878D01*
X135291312Y-51431344D02*
X135291312Y-51773878D01*
%TO.C,U13*%
X154711312Y-67912611D02*
X154711312Y-62852611D01*
X161851312Y-57792611D02*
X161851312Y-67912611D01*
%TO.C,U12*%
X154531312Y-50117611D02*
X150931312Y-50117611D01*
X154531312Y-50117611D02*
X156731312Y-50117611D01*
X154531312Y-55587611D02*
X152331312Y-55587611D01*
X154531312Y-55587611D02*
X156731312Y-55587611D01*
%TO.C,U11*%
X147211312Y-67912611D02*
X147211312Y-62852611D01*
X154351312Y-57792611D02*
X154351312Y-67912611D01*
%TO.C,U10*%
X139531312Y-50117611D02*
X135931312Y-50117611D01*
X139531312Y-50117611D02*
X141731312Y-50117611D01*
X139531312Y-55587611D02*
X137331312Y-55587611D01*
X139531312Y-55587611D02*
X141731312Y-55587611D01*
%TO.C,U4*%
X139531312Y-75587611D02*
X143131312Y-75587611D01*
X139531312Y-75587611D02*
X137331312Y-75587611D01*
X139531312Y-70117611D02*
X141731312Y-70117611D01*
X139531312Y-70117611D02*
X137331312Y-70117611D01*
%TO.C,U3*%
X154531312Y-75587611D02*
X158131312Y-75587611D01*
X154531312Y-75587611D02*
X152331312Y-75587611D01*
X154531312Y-70117611D02*
X156731312Y-70117611D01*
X154531312Y-70117611D02*
X152331312Y-70117611D01*
%TO.C,U2*%
X139711312Y-67912611D02*
X139711312Y-62852611D01*
X146851312Y-57792611D02*
X146851312Y-67912611D01*
%TO.C,U1*%
X132211312Y-67912611D02*
X132211312Y-62852611D01*
X139351312Y-57792611D02*
X139351312Y-67912611D01*
%TO.C,SW2*%
X149231312Y-74052611D02*
X149231312Y-74152611D01*
X144831312Y-75652611D02*
X149231312Y-75652611D01*
X149231312Y-72552611D02*
X144831312Y-72552611D01*
X144831312Y-74052611D02*
X144831312Y-74152611D01*
%TO.C,SW1*%
X149231312Y-51652611D02*
X149231312Y-51552611D01*
X144831312Y-53152611D02*
X149231312Y-53152611D01*
X149231312Y-50052611D02*
X144831312Y-50052611D01*
X144831312Y-51652611D02*
X144831312Y-51552611D01*
%TO.C,R5*%
X160271312Y-51431344D02*
X160271312Y-51773878D01*
X161291312Y-51431344D02*
X161291312Y-51773878D01*
%TO.C,R2*%
X161291312Y-74273878D02*
X161291312Y-73931344D01*
X160271312Y-74273878D02*
X160271312Y-73931344D01*
%TO.C,R1*%
X133791312Y-74273878D02*
X133791312Y-73931344D01*
X132771312Y-74273878D02*
X132771312Y-73931344D01*
%TO.C,C16*%
X158771312Y-51431344D02*
X158771312Y-51773878D01*
X159791312Y-51431344D02*
X159791312Y-51773878D01*
%TO.C,C12*%
X147202579Y-70842611D02*
X146860045Y-70842611D01*
X147202579Y-71862611D02*
X146860045Y-71862611D01*
%TO.C,C11*%
X147202579Y-54862611D02*
X146860045Y-54862611D01*
X147202579Y-53842611D02*
X146860045Y-53842611D01*
%TO.C,C2*%
X135291312Y-74273878D02*
X135291312Y-73931344D01*
X134271312Y-74273878D02*
X134271312Y-73931344D01*
%TO.C,C1*%
X159791312Y-74273878D02*
X159791312Y-73931344D01*
X158771312Y-74273878D02*
X158771312Y-73931344D01*
%TD*%
M02*
