%TF.GenerationSoftware,KiCad,Pcbnew,(5.1.6)-1*%
%TF.CreationDate,2020-09-19T18:08:18+02:00*%
%TF.ProjectId,watch,77617463-682e-46b6-9963-61645f706362,rev?*%
%TF.SameCoordinates,Original*%
%TF.FileFunction,Paste,Bot*%
%TF.FilePolarity,Positive*%
%FSLAX46Y46*%
G04 Gerber Fmt 4.6, Leading zero omitted, Abs format (unit mm)*
G04 Created by KiCad (PCBNEW (5.1.6)-1) date 2020-09-19 18:08:18*
%MOMM*%
%LPD*%
G01*
G04 APERTURE LIST*
%ADD10R,1.524000X0.762000*%
%ADD11R,1.060000X0.650000*%
%ADD12R,1.701800X0.355600*%
%ADD13R,1.800000X1.000000*%
G04 APERTURE END LIST*
%TO.C,R7*%
G36*
G01*
X159256312Y-56290111D02*
X159256312Y-55815111D01*
G75*
G02*
X159493812Y-55577611I237500J0D01*
G01*
X160068812Y-55577611D01*
G75*
G02*
X160306312Y-55815111I0J-237500D01*
G01*
X160306312Y-56290111D01*
G75*
G02*
X160068812Y-56527611I-237500J0D01*
G01*
X159493812Y-56527611D01*
G75*
G02*
X159256312Y-56290111I0J237500D01*
G01*
G37*
G36*
G01*
X157506312Y-56290111D02*
X157506312Y-55815111D01*
G75*
G02*
X157743812Y-55577611I237500J0D01*
G01*
X158318812Y-55577611D01*
G75*
G02*
X158556312Y-55815111I0J-237500D01*
G01*
X158556312Y-56290111D01*
G75*
G02*
X158318812Y-56527611I-237500J0D01*
G01*
X157743812Y-56527611D01*
G75*
G02*
X157506312Y-56290111I0J237500D01*
G01*
G37*
%TD*%
%TO.C,R6*%
G36*
G01*
X158556312Y-57315111D02*
X158556312Y-57790111D01*
G75*
G02*
X158318812Y-58027611I-237500J0D01*
G01*
X157743812Y-58027611D01*
G75*
G02*
X157506312Y-57790111I0J237500D01*
G01*
X157506312Y-57315111D01*
G75*
G02*
X157743812Y-57077611I237500J0D01*
G01*
X158318812Y-57077611D01*
G75*
G02*
X158556312Y-57315111I0J-237500D01*
G01*
G37*
G36*
G01*
X160306312Y-57315111D02*
X160306312Y-57790111D01*
G75*
G02*
X160068812Y-58027611I-237500J0D01*
G01*
X159493812Y-58027611D01*
G75*
G02*
X159256312Y-57790111I0J237500D01*
G01*
X159256312Y-57315111D01*
G75*
G02*
X159493812Y-57077611I237500J0D01*
G01*
X160068812Y-57077611D01*
G75*
G02*
X160306312Y-57315111I0J-237500D01*
G01*
G37*
%TD*%
D10*
%TO.C,J2*%
X157781312Y-69602611D03*
X157781312Y-70602611D03*
X157781312Y-71602611D03*
X157781312Y-72602611D03*
%TD*%
%TO.C,BT1*%
X161781312Y-66852611D03*
X161781312Y-67852611D03*
%TD*%
%TO.C,J1*%
X135531312Y-72102611D03*
X135531312Y-73102611D03*
X135531312Y-74102611D03*
X135531312Y-75102611D03*
%TD*%
D11*
%TO.C,U6*%
X147181312Y-61902611D03*
X147181312Y-63802611D03*
X149381312Y-63802611D03*
X149381312Y-62852611D03*
X149381312Y-61902611D03*
%TD*%
D12*
%TO.C,U9*%
X155417962Y-66002610D03*
X155417962Y-65352611D03*
X155417962Y-64702612D03*
X153144662Y-64702612D03*
X153144662Y-65352611D03*
X153144662Y-66002610D03*
%TD*%
%TO.C,U8*%
X155417962Y-61252610D03*
X155417962Y-60602611D03*
X155417962Y-59952612D03*
X153144662Y-59952612D03*
X153144662Y-60602611D03*
X153144662Y-61252610D03*
%TD*%
D13*
%TO.C,Y1*%
X134531312Y-64352611D03*
X134531312Y-66852611D03*
%TD*%
D11*
%TO.C,U7*%
X157681312Y-61902611D03*
X157681312Y-63802611D03*
X159881312Y-63802611D03*
X159881312Y-62852611D03*
X159881312Y-61902611D03*
%TD*%
%TO.C,U5*%
G36*
G01*
X141906312Y-65877611D02*
X141906312Y-65677611D01*
G75*
G02*
X142006312Y-65577611I100000J0D01*
G01*
X143281312Y-65577611D01*
G75*
G02*
X143381312Y-65677611I0J-100000D01*
G01*
X143381312Y-65877611D01*
G75*
G02*
X143281312Y-65977611I-100000J0D01*
G01*
X142006312Y-65977611D01*
G75*
G02*
X141906312Y-65877611I0J100000D01*
G01*
G37*
G36*
G01*
X141906312Y-65227611D02*
X141906312Y-65027611D01*
G75*
G02*
X142006312Y-64927611I100000J0D01*
G01*
X143281312Y-64927611D01*
G75*
G02*
X143381312Y-65027611I0J-100000D01*
G01*
X143381312Y-65227611D01*
G75*
G02*
X143281312Y-65327611I-100000J0D01*
G01*
X142006312Y-65327611D01*
G75*
G02*
X141906312Y-65227611I0J100000D01*
G01*
G37*
G36*
G01*
X141906312Y-64577611D02*
X141906312Y-64377611D01*
G75*
G02*
X142006312Y-64277611I100000J0D01*
G01*
X143281312Y-64277611D01*
G75*
G02*
X143381312Y-64377611I0J-100000D01*
G01*
X143381312Y-64577611D01*
G75*
G02*
X143281312Y-64677611I-100000J0D01*
G01*
X142006312Y-64677611D01*
G75*
G02*
X141906312Y-64577611I0J100000D01*
G01*
G37*
G36*
G01*
X141906312Y-63927611D02*
X141906312Y-63727611D01*
G75*
G02*
X142006312Y-63627611I100000J0D01*
G01*
X143281312Y-63627611D01*
G75*
G02*
X143381312Y-63727611I0J-100000D01*
G01*
X143381312Y-63927611D01*
G75*
G02*
X143281312Y-64027611I-100000J0D01*
G01*
X142006312Y-64027611D01*
G75*
G02*
X141906312Y-63927611I0J100000D01*
G01*
G37*
G36*
G01*
X141906312Y-63277611D02*
X141906312Y-63077611D01*
G75*
G02*
X142006312Y-62977611I100000J0D01*
G01*
X143281312Y-62977611D01*
G75*
G02*
X143381312Y-63077611I0J-100000D01*
G01*
X143381312Y-63277611D01*
G75*
G02*
X143281312Y-63377611I-100000J0D01*
G01*
X142006312Y-63377611D01*
G75*
G02*
X141906312Y-63277611I0J100000D01*
G01*
G37*
G36*
G01*
X141906312Y-62627611D02*
X141906312Y-62427611D01*
G75*
G02*
X142006312Y-62327611I100000J0D01*
G01*
X143281312Y-62327611D01*
G75*
G02*
X143381312Y-62427611I0J-100000D01*
G01*
X143381312Y-62627611D01*
G75*
G02*
X143281312Y-62727611I-100000J0D01*
G01*
X142006312Y-62727611D01*
G75*
G02*
X141906312Y-62627611I0J100000D01*
G01*
G37*
G36*
G01*
X141906312Y-61977611D02*
X141906312Y-61777611D01*
G75*
G02*
X142006312Y-61677611I100000J0D01*
G01*
X143281312Y-61677611D01*
G75*
G02*
X143381312Y-61777611I0J-100000D01*
G01*
X143381312Y-61977611D01*
G75*
G02*
X143281312Y-62077611I-100000J0D01*
G01*
X142006312Y-62077611D01*
G75*
G02*
X141906312Y-61977611I0J100000D01*
G01*
G37*
G36*
G01*
X141906312Y-61327611D02*
X141906312Y-61127611D01*
G75*
G02*
X142006312Y-61027611I100000J0D01*
G01*
X143281312Y-61027611D01*
G75*
G02*
X143381312Y-61127611I0J-100000D01*
G01*
X143381312Y-61327611D01*
G75*
G02*
X143281312Y-61427611I-100000J0D01*
G01*
X142006312Y-61427611D01*
G75*
G02*
X141906312Y-61327611I0J100000D01*
G01*
G37*
G36*
G01*
X141906312Y-60677611D02*
X141906312Y-60477611D01*
G75*
G02*
X142006312Y-60377611I100000J0D01*
G01*
X143281312Y-60377611D01*
G75*
G02*
X143381312Y-60477611I0J-100000D01*
G01*
X143381312Y-60677611D01*
G75*
G02*
X143281312Y-60777611I-100000J0D01*
G01*
X142006312Y-60777611D01*
G75*
G02*
X141906312Y-60677611I0J100000D01*
G01*
G37*
G36*
G01*
X141906312Y-60027611D02*
X141906312Y-59827611D01*
G75*
G02*
X142006312Y-59727611I100000J0D01*
G01*
X143281312Y-59727611D01*
G75*
G02*
X143381312Y-59827611I0J-100000D01*
G01*
X143381312Y-60027611D01*
G75*
G02*
X143281312Y-60127611I-100000J0D01*
G01*
X142006312Y-60127611D01*
G75*
G02*
X141906312Y-60027611I0J100000D01*
G01*
G37*
G36*
G01*
X136181312Y-60027611D02*
X136181312Y-59827611D01*
G75*
G02*
X136281312Y-59727611I100000J0D01*
G01*
X137556312Y-59727611D01*
G75*
G02*
X137656312Y-59827611I0J-100000D01*
G01*
X137656312Y-60027611D01*
G75*
G02*
X137556312Y-60127611I-100000J0D01*
G01*
X136281312Y-60127611D01*
G75*
G02*
X136181312Y-60027611I0J100000D01*
G01*
G37*
G36*
G01*
X136181312Y-60677611D02*
X136181312Y-60477611D01*
G75*
G02*
X136281312Y-60377611I100000J0D01*
G01*
X137556312Y-60377611D01*
G75*
G02*
X137656312Y-60477611I0J-100000D01*
G01*
X137656312Y-60677611D01*
G75*
G02*
X137556312Y-60777611I-100000J0D01*
G01*
X136281312Y-60777611D01*
G75*
G02*
X136181312Y-60677611I0J100000D01*
G01*
G37*
G36*
G01*
X136181312Y-61327611D02*
X136181312Y-61127611D01*
G75*
G02*
X136281312Y-61027611I100000J0D01*
G01*
X137556312Y-61027611D01*
G75*
G02*
X137656312Y-61127611I0J-100000D01*
G01*
X137656312Y-61327611D01*
G75*
G02*
X137556312Y-61427611I-100000J0D01*
G01*
X136281312Y-61427611D01*
G75*
G02*
X136181312Y-61327611I0J100000D01*
G01*
G37*
G36*
G01*
X136181312Y-61977611D02*
X136181312Y-61777611D01*
G75*
G02*
X136281312Y-61677611I100000J0D01*
G01*
X137556312Y-61677611D01*
G75*
G02*
X137656312Y-61777611I0J-100000D01*
G01*
X137656312Y-61977611D01*
G75*
G02*
X137556312Y-62077611I-100000J0D01*
G01*
X136281312Y-62077611D01*
G75*
G02*
X136181312Y-61977611I0J100000D01*
G01*
G37*
G36*
G01*
X136181312Y-62627611D02*
X136181312Y-62427611D01*
G75*
G02*
X136281312Y-62327611I100000J0D01*
G01*
X137556312Y-62327611D01*
G75*
G02*
X137656312Y-62427611I0J-100000D01*
G01*
X137656312Y-62627611D01*
G75*
G02*
X137556312Y-62727611I-100000J0D01*
G01*
X136281312Y-62727611D01*
G75*
G02*
X136181312Y-62627611I0J100000D01*
G01*
G37*
G36*
G01*
X136181312Y-63277611D02*
X136181312Y-63077611D01*
G75*
G02*
X136281312Y-62977611I100000J0D01*
G01*
X137556312Y-62977611D01*
G75*
G02*
X137656312Y-63077611I0J-100000D01*
G01*
X137656312Y-63277611D01*
G75*
G02*
X137556312Y-63377611I-100000J0D01*
G01*
X136281312Y-63377611D01*
G75*
G02*
X136181312Y-63277611I0J100000D01*
G01*
G37*
G36*
G01*
X136181312Y-63927611D02*
X136181312Y-63727611D01*
G75*
G02*
X136281312Y-63627611I100000J0D01*
G01*
X137556312Y-63627611D01*
G75*
G02*
X137656312Y-63727611I0J-100000D01*
G01*
X137656312Y-63927611D01*
G75*
G02*
X137556312Y-64027611I-100000J0D01*
G01*
X136281312Y-64027611D01*
G75*
G02*
X136181312Y-63927611I0J100000D01*
G01*
G37*
G36*
G01*
X136181312Y-64577611D02*
X136181312Y-64377611D01*
G75*
G02*
X136281312Y-64277611I100000J0D01*
G01*
X137556312Y-64277611D01*
G75*
G02*
X137656312Y-64377611I0J-100000D01*
G01*
X137656312Y-64577611D01*
G75*
G02*
X137556312Y-64677611I-100000J0D01*
G01*
X136281312Y-64677611D01*
G75*
G02*
X136181312Y-64577611I0J100000D01*
G01*
G37*
G36*
G01*
X136181312Y-65227611D02*
X136181312Y-65027611D01*
G75*
G02*
X136281312Y-64927611I100000J0D01*
G01*
X137556312Y-64927611D01*
G75*
G02*
X137656312Y-65027611I0J-100000D01*
G01*
X137656312Y-65227611D01*
G75*
G02*
X137556312Y-65327611I-100000J0D01*
G01*
X136281312Y-65327611D01*
G75*
G02*
X136181312Y-65227611I0J100000D01*
G01*
G37*
G36*
G01*
X136181312Y-65877611D02*
X136181312Y-65677611D01*
G75*
G02*
X136281312Y-65577611I100000J0D01*
G01*
X137556312Y-65577611D01*
G75*
G02*
X137656312Y-65677611I0J-100000D01*
G01*
X137656312Y-65877611D01*
G75*
G02*
X137556312Y-65977611I-100000J0D01*
G01*
X136281312Y-65977611D01*
G75*
G02*
X136181312Y-65877611I0J100000D01*
G01*
G37*
%TD*%
%TO.C,R3*%
G36*
G01*
X159256312Y-60340111D02*
X159256312Y-59865111D01*
G75*
G02*
X159493812Y-59627611I237500J0D01*
G01*
X160068812Y-59627611D01*
G75*
G02*
X160306312Y-59865111I0J-237500D01*
G01*
X160306312Y-60340111D01*
G75*
G02*
X160068812Y-60577611I-237500J0D01*
G01*
X159493812Y-60577611D01*
G75*
G02*
X159256312Y-60340111I0J237500D01*
G01*
G37*
G36*
G01*
X157506312Y-60340111D02*
X157506312Y-59865111D01*
G75*
G02*
X157743812Y-59627611I237500J0D01*
G01*
X158318812Y-59627611D01*
G75*
G02*
X158556312Y-59865111I0J-237500D01*
G01*
X158556312Y-60340111D01*
G75*
G02*
X158318812Y-60577611I-237500J0D01*
G01*
X157743812Y-60577611D01*
G75*
G02*
X157506312Y-60340111I0J237500D01*
G01*
G37*
%TD*%
%TO.C,C15*%
G36*
G01*
X147931312Y-59865111D02*
X147931312Y-60340111D01*
G75*
G02*
X147693812Y-60577611I-237500J0D01*
G01*
X147118812Y-60577611D01*
G75*
G02*
X146881312Y-60340111I0J237500D01*
G01*
X146881312Y-59865111D01*
G75*
G02*
X147118812Y-59627611I237500J0D01*
G01*
X147693812Y-59627611D01*
G75*
G02*
X147931312Y-59865111I0J-237500D01*
G01*
G37*
G36*
G01*
X149681312Y-59865111D02*
X149681312Y-60340111D01*
G75*
G02*
X149443812Y-60577611I-237500J0D01*
G01*
X148868812Y-60577611D01*
G75*
G02*
X148631312Y-60340111I0J237500D01*
G01*
X148631312Y-59865111D01*
G75*
G02*
X148868812Y-59627611I237500J0D01*
G01*
X149443812Y-59627611D01*
G75*
G02*
X149681312Y-59865111I0J-237500D01*
G01*
G37*
%TD*%
%TO.C,C14*%
G36*
G01*
X159131312Y-65840111D02*
X159131312Y-65365111D01*
G75*
G02*
X159368812Y-65127611I237500J0D01*
G01*
X159943812Y-65127611D01*
G75*
G02*
X160181312Y-65365111I0J-237500D01*
G01*
X160181312Y-65840111D01*
G75*
G02*
X159943812Y-66077611I-237500J0D01*
G01*
X159368812Y-66077611D01*
G75*
G02*
X159131312Y-65840111I0J237500D01*
G01*
G37*
G36*
G01*
X157381312Y-65840111D02*
X157381312Y-65365111D01*
G75*
G02*
X157618812Y-65127611I237500J0D01*
G01*
X158193812Y-65127611D01*
G75*
G02*
X158431312Y-65365111I0J-237500D01*
G01*
X158431312Y-65840111D01*
G75*
G02*
X158193812Y-66077611I-237500J0D01*
G01*
X157618812Y-66077611D01*
G75*
G02*
X157381312Y-65840111I0J237500D01*
G01*
G37*
%TD*%
%TO.C,C10*%
G36*
G01*
X133268812Y-59502611D02*
X132793812Y-59502611D01*
G75*
G02*
X132556312Y-59265111I0J237500D01*
G01*
X132556312Y-58690111D01*
G75*
G02*
X132793812Y-58452611I237500J0D01*
G01*
X133268812Y-58452611D01*
G75*
G02*
X133506312Y-58690111I0J-237500D01*
G01*
X133506312Y-59265111D01*
G75*
G02*
X133268812Y-59502611I-237500J0D01*
G01*
G37*
G36*
G01*
X133268812Y-61252611D02*
X132793812Y-61252611D01*
G75*
G02*
X132556312Y-61015111I0J237500D01*
G01*
X132556312Y-60440111D01*
G75*
G02*
X132793812Y-60202611I237500J0D01*
G01*
X133268812Y-60202611D01*
G75*
G02*
X133506312Y-60440111I0J-237500D01*
G01*
X133506312Y-61015111D01*
G75*
G02*
X133268812Y-61252611I-237500J0D01*
G01*
G37*
%TD*%
%TO.C,C9*%
G36*
G01*
X144768812Y-62502611D02*
X144293812Y-62502611D01*
G75*
G02*
X144056312Y-62265111I0J237500D01*
G01*
X144056312Y-61690111D01*
G75*
G02*
X144293812Y-61452611I237500J0D01*
G01*
X144768812Y-61452611D01*
G75*
G02*
X145006312Y-61690111I0J-237500D01*
G01*
X145006312Y-62265111D01*
G75*
G02*
X144768812Y-62502611I-237500J0D01*
G01*
G37*
G36*
G01*
X144768812Y-64252611D02*
X144293812Y-64252611D01*
G75*
G02*
X144056312Y-64015111I0J237500D01*
G01*
X144056312Y-63440111D01*
G75*
G02*
X144293812Y-63202611I237500J0D01*
G01*
X144768812Y-63202611D01*
G75*
G02*
X145006312Y-63440111I0J-237500D01*
G01*
X145006312Y-64015111D01*
G75*
G02*
X144768812Y-64252611I-237500J0D01*
G01*
G37*
%TD*%
%TO.C,C8*%
G36*
G01*
X140131312Y-58840111D02*
X140131312Y-58365111D01*
G75*
G02*
X140368812Y-58127611I237500J0D01*
G01*
X140943812Y-58127611D01*
G75*
G02*
X141181312Y-58365111I0J-237500D01*
G01*
X141181312Y-58840111D01*
G75*
G02*
X140943812Y-59077611I-237500J0D01*
G01*
X140368812Y-59077611D01*
G75*
G02*
X140131312Y-58840111I0J237500D01*
G01*
G37*
G36*
G01*
X138381312Y-58840111D02*
X138381312Y-58365111D01*
G75*
G02*
X138618812Y-58127611I237500J0D01*
G01*
X139193812Y-58127611D01*
G75*
G02*
X139431312Y-58365111I0J-237500D01*
G01*
X139431312Y-58840111D01*
G75*
G02*
X139193812Y-59077611I-237500J0D01*
G01*
X138618812Y-59077611D01*
G75*
G02*
X138381312Y-58840111I0J237500D01*
G01*
G37*
%TD*%
%TO.C,C7*%
G36*
G01*
X132768812Y-63252611D02*
X132293812Y-63252611D01*
G75*
G02*
X132056312Y-63015111I0J237500D01*
G01*
X132056312Y-62440111D01*
G75*
G02*
X132293812Y-62202611I237500J0D01*
G01*
X132768812Y-62202611D01*
G75*
G02*
X133006312Y-62440111I0J-237500D01*
G01*
X133006312Y-63015111D01*
G75*
G02*
X132768812Y-63252611I-237500J0D01*
G01*
G37*
G36*
G01*
X132768812Y-65002611D02*
X132293812Y-65002611D01*
G75*
G02*
X132056312Y-64765111I0J237500D01*
G01*
X132056312Y-64190111D01*
G75*
G02*
X132293812Y-63952611I237500J0D01*
G01*
X132768812Y-63952611D01*
G75*
G02*
X133006312Y-64190111I0J-237500D01*
G01*
X133006312Y-64765111D01*
G75*
G02*
X132768812Y-65002611I-237500J0D01*
G01*
G37*
%TD*%
%TO.C,C6*%
G36*
G01*
X132293812Y-68202611D02*
X132768812Y-68202611D01*
G75*
G02*
X133006312Y-68440111I0J-237500D01*
G01*
X133006312Y-69015111D01*
G75*
G02*
X132768812Y-69252611I-237500J0D01*
G01*
X132293812Y-69252611D01*
G75*
G02*
X132056312Y-69015111I0J237500D01*
G01*
X132056312Y-68440111D01*
G75*
G02*
X132293812Y-68202611I237500J0D01*
G01*
G37*
G36*
G01*
X132293812Y-66452611D02*
X132768812Y-66452611D01*
G75*
G02*
X133006312Y-66690111I0J-237500D01*
G01*
X133006312Y-67265111D01*
G75*
G02*
X132768812Y-67502611I-237500J0D01*
G01*
X132293812Y-67502611D01*
G75*
G02*
X132056312Y-67265111I0J237500D01*
G01*
X132056312Y-66690111D01*
G75*
G02*
X132293812Y-66452611I237500J0D01*
G01*
G37*
%TD*%
%TO.C,C4*%
G36*
G01*
X148631312Y-65840111D02*
X148631312Y-65365111D01*
G75*
G02*
X148868812Y-65127611I237500J0D01*
G01*
X149443812Y-65127611D01*
G75*
G02*
X149681312Y-65365111I0J-237500D01*
G01*
X149681312Y-65840111D01*
G75*
G02*
X149443812Y-66077611I-237500J0D01*
G01*
X148868812Y-66077611D01*
G75*
G02*
X148631312Y-65840111I0J237500D01*
G01*
G37*
G36*
G01*
X146881312Y-65840111D02*
X146881312Y-65365111D01*
G75*
G02*
X147118812Y-65127611I237500J0D01*
G01*
X147693812Y-65127611D01*
G75*
G02*
X147931312Y-65365111I0J-237500D01*
G01*
X147931312Y-65840111D01*
G75*
G02*
X147693812Y-66077611I-237500J0D01*
G01*
X147118812Y-66077611D01*
G75*
G02*
X146881312Y-65840111I0J237500D01*
G01*
G37*
%TD*%
%TO.C,C3*%
G36*
G01*
X161768812Y-62502611D02*
X161293812Y-62502611D01*
G75*
G02*
X161056312Y-62265111I0J237500D01*
G01*
X161056312Y-61690111D01*
G75*
G02*
X161293812Y-61452611I237500J0D01*
G01*
X161768812Y-61452611D01*
G75*
G02*
X162006312Y-61690111I0J-237500D01*
G01*
X162006312Y-62265111D01*
G75*
G02*
X161768812Y-62502611I-237500J0D01*
G01*
G37*
G36*
G01*
X161768812Y-64252611D02*
X161293812Y-64252611D01*
G75*
G02*
X161056312Y-64015111I0J237500D01*
G01*
X161056312Y-63440111D01*
G75*
G02*
X161293812Y-63202611I237500J0D01*
G01*
X161768812Y-63202611D01*
G75*
G02*
X162006312Y-63440111I0J-237500D01*
G01*
X162006312Y-64015111D01*
G75*
G02*
X161768812Y-64252611I-237500J0D01*
G01*
G37*
%TD*%
M02*
