%TF.GenerationSoftware,KiCad,Pcbnew,(5.1.6)-1*%
%TF.CreationDate,2020-09-19T18:08:18+02:00*%
%TF.ProjectId,watch,77617463-682e-46b6-9963-61645f706362,rev?*%
%TF.SameCoordinates,Original*%
%TF.FileFunction,Copper,L4,Bot*%
%TF.FilePolarity,Positive*%
%FSLAX46Y46*%
G04 Gerber Fmt 4.6, Leading zero omitted, Abs format (unit mm)*
G04 Created by KiCad (PCBNEW (5.1.6)-1) date 2020-09-19 18:08:18*
%MOMM*%
%LPD*%
G01*
G04 APERTURE LIST*
%TA.AperFunction,SMDPad,CuDef*%
%ADD10R,1.524000X0.762000*%
%TD*%
%TA.AperFunction,SMDPad,CuDef*%
%ADD11R,1.060000X0.650000*%
%TD*%
%TA.AperFunction,SMDPad,CuDef*%
%ADD12R,1.701800X0.355600*%
%TD*%
%TA.AperFunction,SMDPad,CuDef*%
%ADD13R,1.800000X1.000000*%
%TD*%
%TA.AperFunction,ViaPad*%
%ADD14C,0.800000*%
%TD*%
%TA.AperFunction,Conductor*%
%ADD15C,0.250000*%
%TD*%
%TA.AperFunction,Conductor*%
%ADD16C,0.500000*%
%TD*%
G04 APERTURE END LIST*
%TO.P,R7,2*%
%TO.N,GND*%
%TA.AperFunction,SMDPad,CuDef*%
G36*
G01*
X159256312Y-56290111D02*
X159256312Y-55815111D01*
G75*
G02*
X159493812Y-55577611I237500J0D01*
G01*
X160068812Y-55577611D01*
G75*
G02*
X160306312Y-55815111I0J-237500D01*
G01*
X160306312Y-56290111D01*
G75*
G02*
X160068812Y-56527611I-237500J0D01*
G01*
X159493812Y-56527611D01*
G75*
G02*
X159256312Y-56290111I0J237500D01*
G01*
G37*
%TD.AperFunction*%
%TO.P,R7,1*%
%TO.N,/ADC*%
%TA.AperFunction,SMDPad,CuDef*%
G36*
G01*
X157506312Y-56290111D02*
X157506312Y-55815111D01*
G75*
G02*
X157743812Y-55577611I237500J0D01*
G01*
X158318812Y-55577611D01*
G75*
G02*
X158556312Y-55815111I0J-237500D01*
G01*
X158556312Y-56290111D01*
G75*
G02*
X158318812Y-56527611I-237500J0D01*
G01*
X157743812Y-56527611D01*
G75*
G02*
X157506312Y-56290111I0J237500D01*
G01*
G37*
%TD.AperFunction*%
%TD*%
%TO.P,R6,2*%
%TO.N,/ADC*%
%TA.AperFunction,SMDPad,CuDef*%
G36*
G01*
X158556312Y-57315111D02*
X158556312Y-57790111D01*
G75*
G02*
X158318812Y-58027611I-237500J0D01*
G01*
X157743812Y-58027611D01*
G75*
G02*
X157506312Y-57790111I0J237500D01*
G01*
X157506312Y-57315111D01*
G75*
G02*
X157743812Y-57077611I237500J0D01*
G01*
X158318812Y-57077611D01*
G75*
G02*
X158556312Y-57315111I0J-237500D01*
G01*
G37*
%TD.AperFunction*%
%TO.P,R6,1*%
%TO.N,+BATT*%
%TA.AperFunction,SMDPad,CuDef*%
G36*
G01*
X160306312Y-57315111D02*
X160306312Y-57790111D01*
G75*
G02*
X160068812Y-58027611I-237500J0D01*
G01*
X159493812Y-58027611D01*
G75*
G02*
X159256312Y-57790111I0J237500D01*
G01*
X159256312Y-57315111D01*
G75*
G02*
X159493812Y-57077611I237500J0D01*
G01*
X160068812Y-57077611D01*
G75*
G02*
X160306312Y-57315111I0J-237500D01*
G01*
G37*
%TD.AperFunction*%
%TD*%
D10*
%TO.P,J2,4*%
%TO.N,GND*%
X157781312Y-69602611D03*
%TO.P,J2,3*%
%TO.N,/RX*%
X157781312Y-70602611D03*
%TO.P,J2,2*%
%TO.N,/TX*%
X157781312Y-71602611D03*
%TO.P,J2,1*%
%TO.N,+5V*%
X157781312Y-72602611D03*
%TD*%
%TO.P,BT1,1*%
%TO.N,+BATT*%
X161781312Y-66852611D03*
%TO.P,BT1,2*%
%TO.N,GND*%
X161781312Y-67852611D03*
%TD*%
%TO.P,J1,4*%
%TO.N,GND*%
X135531312Y-72102611D03*
%TO.P,J1,3*%
%TO.N,/NRST*%
X135531312Y-73102611D03*
%TO.P,J1,2*%
%TO.N,/SWDIO*%
X135531312Y-74102611D03*
%TO.P,J1,1*%
%TO.N,/SWCLK*%
X135531312Y-75102611D03*
%TD*%
D11*
%TO.P,U6,5*%
%TO.N,+3V3*%
X147181312Y-61902611D03*
%TO.P,U6,4*%
%TO.N,Net-(U6-Pad4)*%
X147181312Y-63802611D03*
%TO.P,U6,3*%
%TO.N,VCC*%
X149381312Y-63802611D03*
%TO.P,U6,2*%
%TO.N,GND*%
X149381312Y-62852611D03*
%TO.P,U6,1*%
%TO.N,VCC*%
X149381312Y-61902611D03*
%TD*%
D12*
%TO.P,U9,6*%
%TO.N,VCC*%
X155417962Y-66002610D03*
%TO.P,U9,5*%
%TO.N,GND*%
X155417962Y-65352611D03*
%TO.P,U9,4*%
%TO.N,N/C*%
X155417962Y-64702612D03*
%TO.P,U9,3*%
%TO.N,+BATT*%
X153144662Y-64702612D03*
%TO.P,U9,2*%
%TO.N,GND*%
X153144662Y-65352611D03*
%TO.P,U9,1*%
%TO.N,+5V*%
X153144662Y-66002610D03*
%TD*%
%TO.P,U8,6*%
%TO.N,VCC*%
X155417962Y-61252610D03*
%TO.P,U8,5*%
%TO.N,GND*%
X155417962Y-60602611D03*
%TO.P,U8,4*%
%TO.N,N/C*%
X155417962Y-59952612D03*
%TO.P,U8,3*%
%TO.N,+5V*%
X153144662Y-59952612D03*
%TO.P,U8,2*%
%TO.N,GND*%
X153144662Y-60602611D03*
%TO.P,U8,1*%
%TO.N,+BATT*%
X153144662Y-61252610D03*
%TD*%
D13*
%TO.P,Y1,2*%
%TO.N,/XTAL2*%
X134531312Y-64352611D03*
%TO.P,Y1,1*%
%TO.N,/XTAL1*%
X134531312Y-66852611D03*
%TD*%
D11*
%TO.P,U7,5*%
%TO.N,Net-(R3-Pad1)*%
X157681312Y-61902611D03*
%TO.P,U7,4*%
%TO.N,+5V*%
X157681312Y-63802611D03*
%TO.P,U7,3*%
%TO.N,+BATT*%
X159881312Y-63802611D03*
%TO.P,U7,2*%
%TO.N,GND*%
X159881312Y-62852611D03*
%TO.P,U7,1*%
%TO.N,Net-(U7-Pad1)*%
X159881312Y-61902611D03*
%TD*%
%TO.P,U5,20*%
%TO.N,/SWCLK*%
%TA.AperFunction,SMDPad,CuDef*%
G36*
G01*
X141906312Y-65877611D02*
X141906312Y-65677611D01*
G75*
G02*
X142006312Y-65577611I100000J0D01*
G01*
X143281312Y-65577611D01*
G75*
G02*
X143381312Y-65677611I0J-100000D01*
G01*
X143381312Y-65877611D01*
G75*
G02*
X143281312Y-65977611I-100000J0D01*
G01*
X142006312Y-65977611D01*
G75*
G02*
X141906312Y-65877611I0J100000D01*
G01*
G37*
%TD.AperFunction*%
%TO.P,U5,19*%
%TO.N,/SWDIO*%
%TA.AperFunction,SMDPad,CuDef*%
G36*
G01*
X141906312Y-65227611D02*
X141906312Y-65027611D01*
G75*
G02*
X142006312Y-64927611I100000J0D01*
G01*
X143281312Y-64927611D01*
G75*
G02*
X143381312Y-65027611I0J-100000D01*
G01*
X143381312Y-65227611D01*
G75*
G02*
X143281312Y-65327611I-100000J0D01*
G01*
X142006312Y-65327611D01*
G75*
G02*
X141906312Y-65227611I0J100000D01*
G01*
G37*
%TD.AperFunction*%
%TO.P,U5,18*%
%TO.N,/SW2*%
%TA.AperFunction,SMDPad,CuDef*%
G36*
G01*
X141906312Y-64577611D02*
X141906312Y-64377611D01*
G75*
G02*
X142006312Y-64277611I100000J0D01*
G01*
X143281312Y-64277611D01*
G75*
G02*
X143381312Y-64377611I0J-100000D01*
G01*
X143381312Y-64577611D01*
G75*
G02*
X143281312Y-64677611I-100000J0D01*
G01*
X142006312Y-64677611D01*
G75*
G02*
X141906312Y-64577611I0J100000D01*
G01*
G37*
%TD.AperFunction*%
%TO.P,U5,17*%
%TO.N,/OE*%
%TA.AperFunction,SMDPad,CuDef*%
G36*
G01*
X141906312Y-63927611D02*
X141906312Y-63727611D01*
G75*
G02*
X142006312Y-63627611I100000J0D01*
G01*
X143281312Y-63627611D01*
G75*
G02*
X143381312Y-63727611I0J-100000D01*
G01*
X143381312Y-63927611D01*
G75*
G02*
X143281312Y-64027611I-100000J0D01*
G01*
X142006312Y-64027611D01*
G75*
G02*
X141906312Y-63927611I0J100000D01*
G01*
G37*
%TD.AperFunction*%
%TO.P,U5,16*%
%TO.N,+3V3*%
%TA.AperFunction,SMDPad,CuDef*%
G36*
G01*
X141906312Y-63277611D02*
X141906312Y-63077611D01*
G75*
G02*
X142006312Y-62977611I100000J0D01*
G01*
X143281312Y-62977611D01*
G75*
G02*
X143381312Y-63077611I0J-100000D01*
G01*
X143381312Y-63277611D01*
G75*
G02*
X143281312Y-63377611I-100000J0D01*
G01*
X142006312Y-63377611D01*
G75*
G02*
X141906312Y-63277611I0J100000D01*
G01*
G37*
%TD.AperFunction*%
%TO.P,U5,15*%
%TO.N,GND*%
%TA.AperFunction,SMDPad,CuDef*%
G36*
G01*
X141906312Y-62627611D02*
X141906312Y-62427611D01*
G75*
G02*
X142006312Y-62327611I100000J0D01*
G01*
X143281312Y-62327611D01*
G75*
G02*
X143381312Y-62427611I0J-100000D01*
G01*
X143381312Y-62627611D01*
G75*
G02*
X143281312Y-62727611I-100000J0D01*
G01*
X142006312Y-62727611D01*
G75*
G02*
X141906312Y-62627611I0J100000D01*
G01*
G37*
%TD.AperFunction*%
%TO.P,U5,14*%
%TO.N,Net-(U5-Pad14)*%
%TA.AperFunction,SMDPad,CuDef*%
G36*
G01*
X141906312Y-61977611D02*
X141906312Y-61777611D01*
G75*
G02*
X142006312Y-61677611I100000J0D01*
G01*
X143281312Y-61677611D01*
G75*
G02*
X143381312Y-61777611I0J-100000D01*
G01*
X143381312Y-61977611D01*
G75*
G02*
X143281312Y-62077611I-100000J0D01*
G01*
X142006312Y-62077611D01*
G75*
G02*
X141906312Y-61977611I0J100000D01*
G01*
G37*
%TD.AperFunction*%
%TO.P,U5,13*%
%TO.N,/SDI*%
%TA.AperFunction,SMDPad,CuDef*%
G36*
G01*
X141906312Y-61327611D02*
X141906312Y-61127611D01*
G75*
G02*
X142006312Y-61027611I100000J0D01*
G01*
X143281312Y-61027611D01*
G75*
G02*
X143381312Y-61127611I0J-100000D01*
G01*
X143381312Y-61327611D01*
G75*
G02*
X143281312Y-61427611I-100000J0D01*
G01*
X142006312Y-61427611D01*
G75*
G02*
X141906312Y-61327611I0J100000D01*
G01*
G37*
%TD.AperFunction*%
%TO.P,U5,12*%
%TO.N,/MDI*%
%TA.AperFunction,SMDPad,CuDef*%
G36*
G01*
X141906312Y-60677611D02*
X141906312Y-60477611D01*
G75*
G02*
X142006312Y-60377611I100000J0D01*
G01*
X143281312Y-60377611D01*
G75*
G02*
X143381312Y-60477611I0J-100000D01*
G01*
X143381312Y-60677611D01*
G75*
G02*
X143281312Y-60777611I-100000J0D01*
G01*
X142006312Y-60777611D01*
G75*
G02*
X141906312Y-60677611I0J100000D01*
G01*
G37*
%TD.AperFunction*%
%TO.P,U5,11*%
%TO.N,/CLK*%
%TA.AperFunction,SMDPad,CuDef*%
G36*
G01*
X141906312Y-60027611D02*
X141906312Y-59827611D01*
G75*
G02*
X142006312Y-59727611I100000J0D01*
G01*
X143281312Y-59727611D01*
G75*
G02*
X143381312Y-59827611I0J-100000D01*
G01*
X143381312Y-60027611D01*
G75*
G02*
X143281312Y-60127611I-100000J0D01*
G01*
X142006312Y-60127611D01*
G75*
G02*
X141906312Y-60027611I0J100000D01*
G01*
G37*
%TD.AperFunction*%
%TO.P,U5,10*%
%TO.N,/LE*%
%TA.AperFunction,SMDPad,CuDef*%
G36*
G01*
X136181312Y-60027611D02*
X136181312Y-59827611D01*
G75*
G02*
X136281312Y-59727611I100000J0D01*
G01*
X137556312Y-59727611D01*
G75*
G02*
X137656312Y-59827611I0J-100000D01*
G01*
X137656312Y-60027611D01*
G75*
G02*
X137556312Y-60127611I-100000J0D01*
G01*
X136281312Y-60127611D01*
G75*
G02*
X136181312Y-60027611I0J100000D01*
G01*
G37*
%TD.AperFunction*%
%TO.P,U5,9*%
%TO.N,/RX*%
%TA.AperFunction,SMDPad,CuDef*%
G36*
G01*
X136181312Y-60677611D02*
X136181312Y-60477611D01*
G75*
G02*
X136281312Y-60377611I100000J0D01*
G01*
X137556312Y-60377611D01*
G75*
G02*
X137656312Y-60477611I0J-100000D01*
G01*
X137656312Y-60677611D01*
G75*
G02*
X137556312Y-60777611I-100000J0D01*
G01*
X136281312Y-60777611D01*
G75*
G02*
X136181312Y-60677611I0J100000D01*
G01*
G37*
%TD.AperFunction*%
%TO.P,U5,8*%
%TO.N,/TX*%
%TA.AperFunction,SMDPad,CuDef*%
G36*
G01*
X136181312Y-61327611D02*
X136181312Y-61127611D01*
G75*
G02*
X136281312Y-61027611I100000J0D01*
G01*
X137556312Y-61027611D01*
G75*
G02*
X137656312Y-61127611I0J-100000D01*
G01*
X137656312Y-61327611D01*
G75*
G02*
X137556312Y-61427611I-100000J0D01*
G01*
X136281312Y-61427611D01*
G75*
G02*
X136181312Y-61327611I0J100000D01*
G01*
G37*
%TD.AperFunction*%
%TO.P,U5,7*%
%TO.N,/ADC*%
%TA.AperFunction,SMDPad,CuDef*%
G36*
G01*
X136181312Y-61977611D02*
X136181312Y-61777611D01*
G75*
G02*
X136281312Y-61677611I100000J0D01*
G01*
X137556312Y-61677611D01*
G75*
G02*
X137656312Y-61777611I0J-100000D01*
G01*
X137656312Y-61977611D01*
G75*
G02*
X137556312Y-62077611I-100000J0D01*
G01*
X136281312Y-62077611D01*
G75*
G02*
X136181312Y-61977611I0J100000D01*
G01*
G37*
%TD.AperFunction*%
%TO.P,U5,6*%
%TO.N,/SW1*%
%TA.AperFunction,SMDPad,CuDef*%
G36*
G01*
X136181312Y-62627611D02*
X136181312Y-62427611D01*
G75*
G02*
X136281312Y-62327611I100000J0D01*
G01*
X137556312Y-62327611D01*
G75*
G02*
X137656312Y-62427611I0J-100000D01*
G01*
X137656312Y-62627611D01*
G75*
G02*
X137556312Y-62727611I-100000J0D01*
G01*
X136281312Y-62727611D01*
G75*
G02*
X136181312Y-62627611I0J100000D01*
G01*
G37*
%TD.AperFunction*%
%TO.P,U5,5*%
%TO.N,+3V3*%
%TA.AperFunction,SMDPad,CuDef*%
G36*
G01*
X136181312Y-63277611D02*
X136181312Y-63077611D01*
G75*
G02*
X136281312Y-62977611I100000J0D01*
G01*
X137556312Y-62977611D01*
G75*
G02*
X137656312Y-63077611I0J-100000D01*
G01*
X137656312Y-63277611D01*
G75*
G02*
X137556312Y-63377611I-100000J0D01*
G01*
X136281312Y-63377611D01*
G75*
G02*
X136181312Y-63277611I0J100000D01*
G01*
G37*
%TD.AperFunction*%
%TO.P,U5,4*%
%TO.N,/NRST*%
%TA.AperFunction,SMDPad,CuDef*%
G36*
G01*
X136181312Y-63927611D02*
X136181312Y-63727611D01*
G75*
G02*
X136281312Y-63627611I100000J0D01*
G01*
X137556312Y-63627611D01*
G75*
G02*
X137656312Y-63727611I0J-100000D01*
G01*
X137656312Y-63927611D01*
G75*
G02*
X137556312Y-64027611I-100000J0D01*
G01*
X136281312Y-64027611D01*
G75*
G02*
X136181312Y-63927611I0J100000D01*
G01*
G37*
%TD.AperFunction*%
%TO.P,U5,3*%
%TO.N,/XTAL2*%
%TA.AperFunction,SMDPad,CuDef*%
G36*
G01*
X136181312Y-64577611D02*
X136181312Y-64377611D01*
G75*
G02*
X136281312Y-64277611I100000J0D01*
G01*
X137556312Y-64277611D01*
G75*
G02*
X137656312Y-64377611I0J-100000D01*
G01*
X137656312Y-64577611D01*
G75*
G02*
X137556312Y-64677611I-100000J0D01*
G01*
X136281312Y-64677611D01*
G75*
G02*
X136181312Y-64577611I0J100000D01*
G01*
G37*
%TD.AperFunction*%
%TO.P,U5,2*%
%TO.N,/XTAL1*%
%TA.AperFunction,SMDPad,CuDef*%
G36*
G01*
X136181312Y-65227611D02*
X136181312Y-65027611D01*
G75*
G02*
X136281312Y-64927611I100000J0D01*
G01*
X137556312Y-64927611D01*
G75*
G02*
X137656312Y-65027611I0J-100000D01*
G01*
X137656312Y-65227611D01*
G75*
G02*
X137556312Y-65327611I-100000J0D01*
G01*
X136281312Y-65327611D01*
G75*
G02*
X136181312Y-65227611I0J100000D01*
G01*
G37*
%TD.AperFunction*%
%TO.P,U5,1*%
%TO.N,+3V3*%
%TA.AperFunction,SMDPad,CuDef*%
G36*
G01*
X136181312Y-65877611D02*
X136181312Y-65677611D01*
G75*
G02*
X136281312Y-65577611I100000J0D01*
G01*
X137556312Y-65577611D01*
G75*
G02*
X137656312Y-65677611I0J-100000D01*
G01*
X137656312Y-65877611D01*
G75*
G02*
X137556312Y-65977611I-100000J0D01*
G01*
X136281312Y-65977611D01*
G75*
G02*
X136181312Y-65877611I0J100000D01*
G01*
G37*
%TD.AperFunction*%
%TD*%
%TO.P,R3,2*%
%TO.N,GND*%
%TA.AperFunction,SMDPad,CuDef*%
G36*
G01*
X159256312Y-60340111D02*
X159256312Y-59865111D01*
G75*
G02*
X159493812Y-59627611I237500J0D01*
G01*
X160068812Y-59627611D01*
G75*
G02*
X160306312Y-59865111I0J-237500D01*
G01*
X160306312Y-60340111D01*
G75*
G02*
X160068812Y-60577611I-237500J0D01*
G01*
X159493812Y-60577611D01*
G75*
G02*
X159256312Y-60340111I0J237500D01*
G01*
G37*
%TD.AperFunction*%
%TO.P,R3,1*%
%TO.N,Net-(R3-Pad1)*%
%TA.AperFunction,SMDPad,CuDef*%
G36*
G01*
X157506312Y-60340111D02*
X157506312Y-59865111D01*
G75*
G02*
X157743812Y-59627611I237500J0D01*
G01*
X158318812Y-59627611D01*
G75*
G02*
X158556312Y-59865111I0J-237500D01*
G01*
X158556312Y-60340111D01*
G75*
G02*
X158318812Y-60577611I-237500J0D01*
G01*
X157743812Y-60577611D01*
G75*
G02*
X157506312Y-60340111I0J237500D01*
G01*
G37*
%TD.AperFunction*%
%TD*%
%TO.P,C15,2*%
%TO.N,GND*%
%TA.AperFunction,SMDPad,CuDef*%
G36*
G01*
X147931312Y-59865111D02*
X147931312Y-60340111D01*
G75*
G02*
X147693812Y-60577611I-237500J0D01*
G01*
X147118812Y-60577611D01*
G75*
G02*
X146881312Y-60340111I0J237500D01*
G01*
X146881312Y-59865111D01*
G75*
G02*
X147118812Y-59627611I237500J0D01*
G01*
X147693812Y-59627611D01*
G75*
G02*
X147931312Y-59865111I0J-237500D01*
G01*
G37*
%TD.AperFunction*%
%TO.P,C15,1*%
%TO.N,VCC*%
%TA.AperFunction,SMDPad,CuDef*%
G36*
G01*
X149681312Y-59865111D02*
X149681312Y-60340111D01*
G75*
G02*
X149443812Y-60577611I-237500J0D01*
G01*
X148868812Y-60577611D01*
G75*
G02*
X148631312Y-60340111I0J237500D01*
G01*
X148631312Y-59865111D01*
G75*
G02*
X148868812Y-59627611I237500J0D01*
G01*
X149443812Y-59627611D01*
G75*
G02*
X149681312Y-59865111I0J-237500D01*
G01*
G37*
%TD.AperFunction*%
%TD*%
%TO.P,C14,2*%
%TO.N,GND*%
%TA.AperFunction,SMDPad,CuDef*%
G36*
G01*
X159131312Y-65840111D02*
X159131312Y-65365111D01*
G75*
G02*
X159368812Y-65127611I237500J0D01*
G01*
X159943812Y-65127611D01*
G75*
G02*
X160181312Y-65365111I0J-237500D01*
G01*
X160181312Y-65840111D01*
G75*
G02*
X159943812Y-66077611I-237500J0D01*
G01*
X159368812Y-66077611D01*
G75*
G02*
X159131312Y-65840111I0J237500D01*
G01*
G37*
%TD.AperFunction*%
%TO.P,C14,1*%
%TO.N,+5V*%
%TA.AperFunction,SMDPad,CuDef*%
G36*
G01*
X157381312Y-65840111D02*
X157381312Y-65365111D01*
G75*
G02*
X157618812Y-65127611I237500J0D01*
G01*
X158193812Y-65127611D01*
G75*
G02*
X158431312Y-65365111I0J-237500D01*
G01*
X158431312Y-65840111D01*
G75*
G02*
X158193812Y-66077611I-237500J0D01*
G01*
X157618812Y-66077611D01*
G75*
G02*
X157381312Y-65840111I0J237500D01*
G01*
G37*
%TD.AperFunction*%
%TD*%
%TO.P,C10,2*%
%TO.N,GND*%
%TA.AperFunction,SMDPad,CuDef*%
G36*
G01*
X133268812Y-59502611D02*
X132793812Y-59502611D01*
G75*
G02*
X132556312Y-59265111I0J237500D01*
G01*
X132556312Y-58690111D01*
G75*
G02*
X132793812Y-58452611I237500J0D01*
G01*
X133268812Y-58452611D01*
G75*
G02*
X133506312Y-58690111I0J-237500D01*
G01*
X133506312Y-59265111D01*
G75*
G02*
X133268812Y-59502611I-237500J0D01*
G01*
G37*
%TD.AperFunction*%
%TO.P,C10,1*%
%TO.N,+3V3*%
%TA.AperFunction,SMDPad,CuDef*%
G36*
G01*
X133268812Y-61252611D02*
X132793812Y-61252611D01*
G75*
G02*
X132556312Y-61015111I0J237500D01*
G01*
X132556312Y-60440111D01*
G75*
G02*
X132793812Y-60202611I237500J0D01*
G01*
X133268812Y-60202611D01*
G75*
G02*
X133506312Y-60440111I0J-237500D01*
G01*
X133506312Y-61015111D01*
G75*
G02*
X133268812Y-61252611I-237500J0D01*
G01*
G37*
%TD.AperFunction*%
%TD*%
%TO.P,C9,2*%
%TO.N,GND*%
%TA.AperFunction,SMDPad,CuDef*%
G36*
G01*
X144768812Y-62502611D02*
X144293812Y-62502611D01*
G75*
G02*
X144056312Y-62265111I0J237500D01*
G01*
X144056312Y-61690111D01*
G75*
G02*
X144293812Y-61452611I237500J0D01*
G01*
X144768812Y-61452611D01*
G75*
G02*
X145006312Y-61690111I0J-237500D01*
G01*
X145006312Y-62265111D01*
G75*
G02*
X144768812Y-62502611I-237500J0D01*
G01*
G37*
%TD.AperFunction*%
%TO.P,C9,1*%
%TO.N,+3V3*%
%TA.AperFunction,SMDPad,CuDef*%
G36*
G01*
X144768812Y-64252611D02*
X144293812Y-64252611D01*
G75*
G02*
X144056312Y-64015111I0J237500D01*
G01*
X144056312Y-63440111D01*
G75*
G02*
X144293812Y-63202611I237500J0D01*
G01*
X144768812Y-63202611D01*
G75*
G02*
X145006312Y-63440111I0J-237500D01*
G01*
X145006312Y-64015111D01*
G75*
G02*
X144768812Y-64252611I-237500J0D01*
G01*
G37*
%TD.AperFunction*%
%TD*%
%TO.P,C8,2*%
%TO.N,GND*%
%TA.AperFunction,SMDPad,CuDef*%
G36*
G01*
X140131312Y-58840111D02*
X140131312Y-58365111D01*
G75*
G02*
X140368812Y-58127611I237500J0D01*
G01*
X140943812Y-58127611D01*
G75*
G02*
X141181312Y-58365111I0J-237500D01*
G01*
X141181312Y-58840111D01*
G75*
G02*
X140943812Y-59077611I-237500J0D01*
G01*
X140368812Y-59077611D01*
G75*
G02*
X140131312Y-58840111I0J237500D01*
G01*
G37*
%TD.AperFunction*%
%TO.P,C8,1*%
%TO.N,+3V3*%
%TA.AperFunction,SMDPad,CuDef*%
G36*
G01*
X138381312Y-58840111D02*
X138381312Y-58365111D01*
G75*
G02*
X138618812Y-58127611I237500J0D01*
G01*
X139193812Y-58127611D01*
G75*
G02*
X139431312Y-58365111I0J-237500D01*
G01*
X139431312Y-58840111D01*
G75*
G02*
X139193812Y-59077611I-237500J0D01*
G01*
X138618812Y-59077611D01*
G75*
G02*
X138381312Y-58840111I0J237500D01*
G01*
G37*
%TD.AperFunction*%
%TD*%
%TO.P,C7,2*%
%TO.N,GND*%
%TA.AperFunction,SMDPad,CuDef*%
G36*
G01*
X132768812Y-63252611D02*
X132293812Y-63252611D01*
G75*
G02*
X132056312Y-63015111I0J237500D01*
G01*
X132056312Y-62440111D01*
G75*
G02*
X132293812Y-62202611I237500J0D01*
G01*
X132768812Y-62202611D01*
G75*
G02*
X133006312Y-62440111I0J-237500D01*
G01*
X133006312Y-63015111D01*
G75*
G02*
X132768812Y-63252611I-237500J0D01*
G01*
G37*
%TD.AperFunction*%
%TO.P,C7,1*%
%TO.N,/XTAL2*%
%TA.AperFunction,SMDPad,CuDef*%
G36*
G01*
X132768812Y-65002611D02*
X132293812Y-65002611D01*
G75*
G02*
X132056312Y-64765111I0J237500D01*
G01*
X132056312Y-64190111D01*
G75*
G02*
X132293812Y-63952611I237500J0D01*
G01*
X132768812Y-63952611D01*
G75*
G02*
X133006312Y-64190111I0J-237500D01*
G01*
X133006312Y-64765111D01*
G75*
G02*
X132768812Y-65002611I-237500J0D01*
G01*
G37*
%TD.AperFunction*%
%TD*%
%TO.P,C6,2*%
%TO.N,GND*%
%TA.AperFunction,SMDPad,CuDef*%
G36*
G01*
X132293812Y-68202611D02*
X132768812Y-68202611D01*
G75*
G02*
X133006312Y-68440111I0J-237500D01*
G01*
X133006312Y-69015111D01*
G75*
G02*
X132768812Y-69252611I-237500J0D01*
G01*
X132293812Y-69252611D01*
G75*
G02*
X132056312Y-69015111I0J237500D01*
G01*
X132056312Y-68440111D01*
G75*
G02*
X132293812Y-68202611I237500J0D01*
G01*
G37*
%TD.AperFunction*%
%TO.P,C6,1*%
%TO.N,/XTAL1*%
%TA.AperFunction,SMDPad,CuDef*%
G36*
G01*
X132293812Y-66452611D02*
X132768812Y-66452611D01*
G75*
G02*
X133006312Y-66690111I0J-237500D01*
G01*
X133006312Y-67265111D01*
G75*
G02*
X132768812Y-67502611I-237500J0D01*
G01*
X132293812Y-67502611D01*
G75*
G02*
X132056312Y-67265111I0J237500D01*
G01*
X132056312Y-66690111D01*
G75*
G02*
X132293812Y-66452611I237500J0D01*
G01*
G37*
%TD.AperFunction*%
%TD*%
%TO.P,C4,2*%
%TO.N,GND*%
%TA.AperFunction,SMDPad,CuDef*%
G36*
G01*
X148631312Y-65840111D02*
X148631312Y-65365111D01*
G75*
G02*
X148868812Y-65127611I237500J0D01*
G01*
X149443812Y-65127611D01*
G75*
G02*
X149681312Y-65365111I0J-237500D01*
G01*
X149681312Y-65840111D01*
G75*
G02*
X149443812Y-66077611I-237500J0D01*
G01*
X148868812Y-66077611D01*
G75*
G02*
X148631312Y-65840111I0J237500D01*
G01*
G37*
%TD.AperFunction*%
%TO.P,C4,1*%
%TO.N,+3V3*%
%TA.AperFunction,SMDPad,CuDef*%
G36*
G01*
X146881312Y-65840111D02*
X146881312Y-65365111D01*
G75*
G02*
X147118812Y-65127611I237500J0D01*
G01*
X147693812Y-65127611D01*
G75*
G02*
X147931312Y-65365111I0J-237500D01*
G01*
X147931312Y-65840111D01*
G75*
G02*
X147693812Y-66077611I-237500J0D01*
G01*
X147118812Y-66077611D01*
G75*
G02*
X146881312Y-65840111I0J237500D01*
G01*
G37*
%TD.AperFunction*%
%TD*%
%TO.P,C3,2*%
%TO.N,GND*%
%TA.AperFunction,SMDPad,CuDef*%
G36*
G01*
X161768812Y-62502611D02*
X161293812Y-62502611D01*
G75*
G02*
X161056312Y-62265111I0J237500D01*
G01*
X161056312Y-61690111D01*
G75*
G02*
X161293812Y-61452611I237500J0D01*
G01*
X161768812Y-61452611D01*
G75*
G02*
X162006312Y-61690111I0J-237500D01*
G01*
X162006312Y-62265111D01*
G75*
G02*
X161768812Y-62502611I-237500J0D01*
G01*
G37*
%TD.AperFunction*%
%TO.P,C3,1*%
%TO.N,+BATT*%
%TA.AperFunction,SMDPad,CuDef*%
G36*
G01*
X161768812Y-64252611D02*
X161293812Y-64252611D01*
G75*
G02*
X161056312Y-64015111I0J237500D01*
G01*
X161056312Y-63440111D01*
G75*
G02*
X161293812Y-63202611I237500J0D01*
G01*
X161768812Y-63202611D01*
G75*
G02*
X162006312Y-63440111I0J-237500D01*
G01*
X162006312Y-64015111D01*
G75*
G02*
X161768812Y-64252611I-237500J0D01*
G01*
G37*
%TD.AperFunction*%
%TD*%
D14*
%TO.N,GND*%
X133781312Y-62852611D03*
X140260725Y-75127611D03*
X155281312Y-75127611D03*
X147031312Y-50802611D03*
X140781312Y-60852611D03*
X153781312Y-50577611D03*
X138781312Y-50577611D03*
X146981312Y-74902611D03*
X132431312Y-70852611D03*
X132431312Y-71852611D03*
%TO.N,VCC*%
X154556312Y-63703715D03*
X150556312Y-62852611D03*
%TO.N,+3V3*%
X138281312Y-75102611D03*
X140781312Y-50602611D03*
X155781312Y-50602611D03*
X141281312Y-63102611D03*
X138781312Y-62602611D03*
X145781312Y-60852611D03*
X153281312Y-75102611D03*
%TO.N,/MDI*%
X155781312Y-52102611D03*
%TO.N,/OE*%
X155281312Y-71102611D03*
X138781312Y-54602611D03*
X153781312Y-54602611D03*
X140281312Y-71102611D03*
%TO.N,/LE*%
X155281312Y-72102611D03*
X140281312Y-72102611D03*
X138781312Y-53602611D03*
X153781306Y-53602611D03*
%TO.N,/CLK*%
X155281312Y-73102611D03*
X140281312Y-73102611D03*
X138781312Y-52602611D03*
X153781312Y-52602611D03*
%TO.N,/SDI*%
X140281312Y-74102611D03*
%TO.N,/SW1*%
X147031312Y-52402611D03*
%TO.N,/SW2*%
X147031312Y-73302611D03*
%TO.N,+BATT*%
X154031312Y-62852611D03*
X158531312Y-62852611D03*
%TO.N,Net-(U10-Pad2)*%
X153281312Y-73827611D03*
X138781312Y-51602611D03*
%TO.N,Net-(U3-Pad2)*%
X155281312Y-74102611D03*
X138281312Y-73602611D03*
%TO.N,Net-(U10-Pad14)*%
X153781312Y-51602611D03*
X140781312Y-52102611D03*
%TO.N,/RX*%
X138781312Y-60102611D03*
X161531312Y-70852611D03*
%TO.N,/TX*%
X138781312Y-61352611D03*
X161531312Y-71852611D03*
%TD*%
D15*
%TO.N,GND*%
X152180959Y-60602611D02*
X153144662Y-60602611D01*
X151968761Y-60814809D02*
X152180959Y-60602611D01*
X152180959Y-65352611D02*
X151968761Y-65140413D01*
X151968761Y-64190060D02*
X151968761Y-63790060D01*
X151968761Y-65140413D02*
X151968761Y-63790060D01*
X153144662Y-65352611D02*
X152180959Y-65352611D01*
X151968761Y-63790060D02*
X151968761Y-60814809D01*
X160656312Y-62852611D02*
X161531312Y-61977611D01*
X159881312Y-62852611D02*
X160656312Y-62852611D01*
X143981312Y-62527611D02*
X144531312Y-61977611D01*
X142643812Y-62527611D02*
X143981312Y-62527611D01*
X153144662Y-60602611D02*
X155417962Y-60602611D01*
X153144662Y-65352611D02*
X155417962Y-65352611D01*
X156381665Y-60602611D02*
X156831312Y-60152964D01*
X155417962Y-60602611D02*
X156381665Y-60602611D01*
X156831312Y-60152964D02*
X156831312Y-59852611D01*
X147406312Y-60102611D02*
X147406312Y-60827611D01*
D16*
%TO.N,VCC*%
X149156312Y-61677611D02*
X149381312Y-61902611D01*
X149156312Y-60102611D02*
X149156312Y-61677611D01*
X150361313Y-63537612D02*
X150096314Y-63802611D01*
X150361313Y-62167610D02*
X150361313Y-63537612D01*
X150096314Y-63802611D02*
X149381312Y-63802611D01*
X150096314Y-61902611D02*
X150361313Y-62167610D01*
X149381312Y-61902611D02*
X150096314Y-61902611D01*
X149381312Y-61902611D02*
X150411312Y-61902611D01*
X150556312Y-62047611D02*
X150556312Y-62852611D01*
X150411312Y-61902611D02*
X150556312Y-62047611D01*
X150171997Y-63802611D02*
X149381312Y-63802611D01*
X150556312Y-63418296D02*
X150171997Y-63802611D01*
X150556312Y-62852611D02*
X150556312Y-63418296D01*
D15*
X154556312Y-63703715D02*
X156593863Y-63703715D01*
X156593863Y-63540060D02*
X156593863Y-63415162D01*
X156593863Y-63415162D02*
X155417962Y-62239261D01*
X156593863Y-63540060D02*
X156593863Y-65790412D01*
X156381665Y-66002610D02*
X155417962Y-66002610D01*
X156593863Y-65790412D02*
X156381665Y-66002610D01*
X155417962Y-61252610D02*
X155417962Y-62239261D01*
D16*
%TO.N,+3V3*%
X146356312Y-61902611D02*
X144531312Y-63727611D01*
X147181312Y-61902611D02*
X146356312Y-61902611D01*
X146406312Y-65602611D02*
X144531312Y-63727611D01*
X147406312Y-65602611D02*
X146406312Y-65602611D01*
D15*
X143981312Y-63177611D02*
X144531312Y-63727611D01*
X142643812Y-63177611D02*
X143981312Y-63177611D01*
X137656312Y-65777611D02*
X136918812Y-65777611D01*
X138281312Y-74900613D02*
X138281312Y-75102611D01*
X133531312Y-60727611D02*
X133031312Y-60727611D01*
X136918812Y-63177611D02*
X135981312Y-63177611D01*
X135981312Y-63177611D02*
X133531312Y-60727611D01*
X142643812Y-63177611D02*
X141356312Y-63177611D01*
X141356312Y-63177611D02*
X141281312Y-63102611D01*
D16*
X153281312Y-75085613D02*
X153281312Y-75102611D01*
D15*
X137531312Y-74352611D02*
X137531312Y-66390111D01*
X137531312Y-74352611D02*
X138281312Y-75102611D01*
D16*
X145781312Y-60852611D02*
X146131312Y-60852611D01*
X146356312Y-61527611D02*
X146581312Y-61302611D01*
X146356312Y-61902611D02*
X146356312Y-61527611D01*
X146581312Y-61302611D02*
X147181312Y-61902611D01*
D15*
X138781312Y-64652611D02*
X138681312Y-64752611D01*
X138781312Y-63102611D02*
X138781312Y-64652611D01*
X136918812Y-63177611D02*
X138781312Y-63177611D01*
D16*
X146356312Y-61077611D02*
X146331312Y-61052611D01*
X146356312Y-61527611D02*
X146356312Y-61077611D01*
X146131312Y-60852611D02*
X146331312Y-61052611D01*
X146331312Y-61052611D02*
X146581312Y-61302611D01*
D15*
X138906312Y-58602611D02*
X138906312Y-58977611D01*
X139781312Y-63652611D02*
X138681312Y-64752611D01*
X139781312Y-59852611D02*
X139781312Y-63652611D01*
X138781312Y-63177611D02*
X138781312Y-62602611D01*
X138906312Y-58602611D02*
X139731312Y-58602611D01*
X139731312Y-58602611D02*
X139731312Y-59852611D01*
X138906312Y-58602611D02*
X138906312Y-59352611D01*
X138906312Y-59352611D02*
X139531312Y-59352611D01*
%TO.N,/NRST*%
X134531312Y-73102611D02*
X135531312Y-73102611D01*
X134044892Y-61877601D02*
X132060812Y-61877601D01*
X135266314Y-63099023D02*
X134044892Y-61877601D01*
X134431312Y-73002611D02*
X134531312Y-73102611D01*
X132060812Y-61877601D02*
X131694311Y-62244102D01*
X135266314Y-63102611D02*
X135266314Y-63099023D01*
X134431312Y-70452611D02*
X134431312Y-73002611D01*
X135991314Y-63827611D02*
X135266314Y-63102611D01*
X131694311Y-69315610D02*
X132431312Y-70052611D01*
X131694311Y-62244102D02*
X131694311Y-69315610D01*
X132431312Y-70052611D02*
X134031312Y-70052611D01*
X136918812Y-63827611D02*
X135991314Y-63827611D01*
X134031312Y-70052611D02*
X134431312Y-70452611D01*
%TO.N,/SWCLK*%
X135531312Y-76352611D02*
X135781312Y-76602611D01*
X135531312Y-75102611D02*
X135531312Y-76352611D01*
X135781312Y-76602611D02*
X139858727Y-76602611D01*
X139858727Y-76602611D02*
X141456323Y-75005015D01*
X142643812Y-66090133D02*
X141456323Y-67277622D01*
X142643812Y-65777611D02*
X142643812Y-66090133D01*
X141456323Y-75005015D02*
X141456323Y-67277622D01*
%TO.N,/SWDIO*%
X143706322Y-66053659D02*
X141907370Y-67852611D01*
X143706322Y-65501563D02*
X143706322Y-66053659D01*
X142643812Y-65127611D02*
X143332370Y-65127611D01*
X143332370Y-65127611D02*
X143706322Y-65501563D01*
X134444311Y-75902020D02*
X134444311Y-74177612D01*
X134519312Y-74102611D02*
X135531312Y-74102611D01*
X134444311Y-74177612D02*
X134519312Y-74102611D01*
X135594911Y-77052620D02*
X134444311Y-75902020D01*
X140045127Y-77052621D02*
X135594911Y-77052620D01*
X141907370Y-75190378D02*
X140045127Y-77052621D01*
X141907370Y-67852611D02*
X141907370Y-75190378D01*
%TO.N,/MDI*%
X144431312Y-54152611D02*
X144431312Y-59478669D01*
X144931312Y-53652611D02*
X144431312Y-54152611D01*
X144431312Y-59478669D02*
X143332370Y-60577611D01*
X148867722Y-53652611D02*
X144931312Y-53652611D01*
X143332370Y-60577611D02*
X142643812Y-60577611D01*
X156506313Y-51377610D02*
X156506313Y-50254610D01*
X156506313Y-50254610D02*
X156004314Y-49752611D01*
X156004314Y-49752611D02*
X152767722Y-49752611D01*
X155781312Y-52102611D02*
X156506313Y-51377610D01*
X152767722Y-49752611D02*
X148867722Y-53652611D01*
%TO.N,/OE*%
X140981322Y-70402601D02*
X140281312Y-71102611D01*
X140981322Y-64801543D02*
X140981322Y-70402601D01*
X141955254Y-63827611D02*
X140981322Y-64801543D01*
X142643812Y-63827611D02*
X141955254Y-63827611D01*
%TO.N,/LE*%
X138215627Y-53602611D02*
X138781312Y-53602611D01*
X136918812Y-54899426D02*
X138215627Y-53602611D01*
X136918812Y-59927611D02*
X136918812Y-54899426D01*
%TO.N,/CLK*%
X139346997Y-52602611D02*
X138781312Y-52602611D01*
X142643812Y-55899426D02*
X139346997Y-52602611D01*
X142643812Y-59927611D02*
X142643812Y-55899426D01*
%TO.N,/SDI*%
X139715627Y-74102611D02*
X140281312Y-74102611D01*
X139556311Y-73943295D02*
X139715627Y-74102611D01*
X141955254Y-61227611D02*
X140531312Y-62651553D01*
X139556311Y-70754610D02*
X139556311Y-73943295D01*
X142643812Y-61227611D02*
X141955254Y-61227611D01*
X140531312Y-62651553D02*
X140531312Y-69779609D01*
X140531312Y-69779609D02*
X139556311Y-70754610D01*
%TO.N,/SW1*%
X136181312Y-62527611D02*
X136918812Y-62527611D01*
X135031312Y-61377611D02*
X136181312Y-62527611D01*
X144831312Y-52402611D02*
X141681312Y-49252611D01*
X141681312Y-49252611D02*
X137881312Y-49252611D01*
X147031312Y-52402611D02*
X144831312Y-52402611D01*
X137881312Y-49252611D02*
X135031312Y-52102611D01*
X135031312Y-52102611D02*
X135031312Y-61377611D01*
%TO.N,/SW2*%
X143332370Y-64477611D02*
X142643812Y-64477611D01*
X146631313Y-67776554D02*
X143332370Y-64477611D01*
X146631313Y-72902612D02*
X146631313Y-67776554D01*
X147031312Y-73302611D02*
X146631313Y-72902612D01*
%TO.N,/XTAL1*%
X134531312Y-66826553D02*
X134531312Y-66852611D01*
X136230254Y-65127611D02*
X134531312Y-66826553D01*
X136918812Y-65127611D02*
X136230254Y-65127611D01*
X132656312Y-66852611D02*
X132531312Y-66977611D01*
X134531312Y-66852611D02*
X132656312Y-66852611D01*
%TO.N,/XTAL2*%
X134656312Y-64477611D02*
X134531312Y-64352611D01*
X136918812Y-64477611D02*
X134656312Y-64477611D01*
X132656312Y-64352611D02*
X132531312Y-64477611D01*
X134531312Y-64352611D02*
X132656312Y-64352611D01*
%TO.N,Net-(R3-Pad1)*%
X157681312Y-60452611D02*
X158031312Y-60102611D01*
X157681312Y-61902611D02*
X157681312Y-60452611D01*
D16*
%TO.N,+BATT*%
X161456312Y-63802611D02*
X161531312Y-63727611D01*
X159881312Y-63802611D02*
X161456312Y-63802611D01*
D15*
X153144662Y-61252610D02*
X153144662Y-64702612D01*
X159481312Y-63802611D02*
X159881312Y-63802611D01*
X158531312Y-62852611D02*
X159481312Y-63802611D01*
X162331322Y-58277621D02*
X162031312Y-57977611D01*
X161531312Y-63727611D02*
X162331322Y-62927601D01*
X153144662Y-64702612D02*
X153144662Y-63739261D01*
X154031312Y-62852611D02*
X153144662Y-62852611D01*
D16*
X161781312Y-63977611D02*
X161531312Y-63727611D01*
X161781312Y-66852611D02*
X161781312Y-63977611D01*
D15*
X162331322Y-62927601D02*
X162331322Y-58277621D01*
X161606312Y-57552611D02*
X162331322Y-58277621D01*
X159781312Y-57552611D02*
X161606312Y-57552611D01*
D16*
%TO.N,+5V*%
X157681312Y-65377611D02*
X157906312Y-65602611D01*
X157681312Y-63802611D02*
X157681312Y-65377611D01*
D15*
X151281312Y-60852259D02*
X152180959Y-59952612D01*
X152180959Y-59952612D02*
X153144662Y-59952612D01*
X151281312Y-65102963D02*
X151281312Y-60852259D01*
X153144662Y-66002610D02*
X152180959Y-66002610D01*
X152180959Y-66002610D02*
X151281312Y-65102963D01*
D16*
X156569311Y-72343612D02*
X156569311Y-66939612D01*
X157781312Y-72602611D02*
X156828310Y-72602611D01*
D15*
X153994663Y-66852611D02*
X156656312Y-66852611D01*
D16*
X157906312Y-65602611D02*
X157906312Y-66577611D01*
D15*
X152961312Y-59382611D02*
X152281312Y-59382611D01*
X151831312Y-59832611D02*
X151831312Y-59852611D01*
X152281312Y-59382611D02*
X151831312Y-59832611D01*
X153144662Y-59952612D02*
X153144662Y-59565961D01*
X153144662Y-59565961D02*
X152961312Y-59382611D01*
%TO.N,/RX*%
X136918812Y-60577611D02*
X138306312Y-60577611D01*
X138306312Y-60577611D02*
X138781312Y-60102611D01*
X158031312Y-70852611D02*
X157781312Y-70602611D01*
X161531312Y-70852611D02*
X158031312Y-70852611D01*
%TO.N,/TX*%
X136918812Y-61227611D02*
X138656312Y-61227611D01*
X138656312Y-61227611D02*
X138781312Y-61352611D01*
X158031312Y-71852611D02*
X157781312Y-71602611D01*
X161531312Y-71852611D02*
X158031312Y-71852611D01*
%TO.N,/ADC*%
X158031312Y-57552611D02*
X158031312Y-56052611D01*
X156140724Y-49252611D02*
X158031312Y-51143199D01*
X152631312Y-49252611D02*
X156140724Y-49252611D01*
X148756311Y-53127612D02*
X152631312Y-49252611D01*
X144916313Y-53127612D02*
X148756311Y-53127612D01*
X136230254Y-61877611D02*
X135531312Y-61178669D01*
X138131312Y-49752611D02*
X141541312Y-49752611D01*
X158031312Y-51143199D02*
X158031312Y-56052611D01*
X141541312Y-49752611D02*
X144916313Y-53127612D01*
X136918812Y-61877611D02*
X136230254Y-61877611D01*
X135531312Y-61178669D02*
X135531312Y-52352611D01*
X135531312Y-52352611D02*
X138131312Y-49752611D01*
%TD*%
%TO.N,GND*%
G36*
X159123243Y-46327798D02*
G01*
X159939586Y-46546537D01*
X160705545Y-46903710D01*
X161397850Y-47388467D01*
X161995457Y-47986074D01*
X162480212Y-48678375D01*
X162837385Y-49444336D01*
X163056125Y-50260681D01*
X163131313Y-51120088D01*
X163131312Y-74585146D01*
X163056125Y-75444541D01*
X162837385Y-76260886D01*
X162480212Y-77026847D01*
X161995457Y-77719148D01*
X161397850Y-78316755D01*
X160705545Y-78801512D01*
X159939586Y-79158685D01*
X159123243Y-79377424D01*
X158263847Y-79452611D01*
X135798777Y-79452611D01*
X134939382Y-79377424D01*
X134123037Y-79158684D01*
X133357076Y-78801511D01*
X132664775Y-78316756D01*
X132067168Y-77719149D01*
X132000081Y-77623338D01*
X141832982Y-77623338D01*
X141833235Y-77659592D01*
X141832982Y-77695846D01*
X141833527Y-77701405D01*
X141853928Y-77895501D01*
X141861217Y-77931009D01*
X141868011Y-77966625D01*
X141869626Y-77971972D01*
X141927338Y-78158410D01*
X141941376Y-78191807D01*
X141954967Y-78225445D01*
X141957589Y-78230376D01*
X142050414Y-78402053D01*
X142070692Y-78432117D01*
X142090539Y-78462446D01*
X142094069Y-78466774D01*
X142218473Y-78617152D01*
X142244199Y-78642699D01*
X142269563Y-78668600D01*
X142273866Y-78672160D01*
X142425108Y-78795510D01*
X142455300Y-78815569D01*
X142485219Y-78836055D01*
X142490132Y-78838711D01*
X142662454Y-78930336D01*
X142695952Y-78944143D01*
X142729294Y-78958433D01*
X142734629Y-78960085D01*
X142921466Y-79016494D01*
X142957029Y-79023536D01*
X142992490Y-79031073D01*
X142998044Y-79031657D01*
X143192278Y-79050702D01*
X143192282Y-79050702D01*
X143211665Y-79052611D01*
X150850959Y-79052611D01*
X150871326Y-79050605D01*
X150884307Y-79050605D01*
X150889862Y-79050021D01*
X151083811Y-79028266D01*
X151119268Y-79020729D01*
X151154838Y-79013686D01*
X151160173Y-79012035D01*
X151346204Y-78953022D01*
X151379531Y-78938738D01*
X151413043Y-78924925D01*
X151417952Y-78922270D01*
X151417957Y-78922268D01*
X151417961Y-78922265D01*
X151588981Y-78828246D01*
X151618878Y-78807775D01*
X151649090Y-78787702D01*
X151653394Y-78784142D01*
X151802900Y-78658692D01*
X151828280Y-78632775D01*
X151853991Y-78607243D01*
X151857521Y-78602915D01*
X151979812Y-78450815D01*
X151999673Y-78420464D01*
X152019935Y-78390425D01*
X152022557Y-78385494D01*
X152112977Y-78212538D01*
X152126556Y-78178929D01*
X152140608Y-78145500D01*
X152142222Y-78140153D01*
X152197325Y-77952928D01*
X152204116Y-77917326D01*
X152211408Y-77881805D01*
X152211953Y-77876246D01*
X152229642Y-77681885D01*
X152229389Y-77645630D01*
X152229642Y-77609376D01*
X152229097Y-77603817D01*
X152208696Y-77409720D01*
X152201404Y-77374199D01*
X152194613Y-77338597D01*
X152192999Y-77333254D01*
X152192998Y-77333248D01*
X152192996Y-77333242D01*
X152135286Y-77146812D01*
X152121254Y-77113432D01*
X152107657Y-77079777D01*
X152105035Y-77074846D01*
X152012210Y-76903169D01*
X151991932Y-76873105D01*
X151972085Y-76842776D01*
X151968555Y-76838448D01*
X151844151Y-76688070D01*
X151818425Y-76662523D01*
X151793061Y-76636622D01*
X151788758Y-76633062D01*
X151637516Y-76509712D01*
X151607342Y-76489665D01*
X151577406Y-76469167D01*
X151572493Y-76466511D01*
X151400170Y-76374886D01*
X151366672Y-76361079D01*
X151333330Y-76346789D01*
X151327995Y-76345137D01*
X151141159Y-76288728D01*
X151105574Y-76281682D01*
X151070134Y-76274149D01*
X151064579Y-76273565D01*
X150870346Y-76254520D01*
X150870342Y-76254520D01*
X150850959Y-76252611D01*
X143211665Y-76252611D01*
X143191298Y-76254617D01*
X143178317Y-76254617D01*
X143172762Y-76255201D01*
X142978812Y-76276956D01*
X142943348Y-76284494D01*
X142907786Y-76291536D01*
X142902451Y-76293187D01*
X142716421Y-76352200D01*
X142683107Y-76366478D01*
X142649581Y-76380297D01*
X142644668Y-76382953D01*
X142473643Y-76476976D01*
X142443746Y-76497447D01*
X142413534Y-76517520D01*
X142409234Y-76521078D01*
X142409229Y-76521081D01*
X142409225Y-76521085D01*
X142259724Y-76646530D01*
X142234344Y-76672447D01*
X142208633Y-76697979D01*
X142205103Y-76702307D01*
X142082812Y-76854407D01*
X142062961Y-76884743D01*
X142042689Y-76914797D01*
X142040067Y-76919729D01*
X141949647Y-77092684D01*
X141936068Y-77126293D01*
X141922016Y-77159722D01*
X141920402Y-77165069D01*
X141865299Y-77352295D01*
X141858509Y-77387889D01*
X141851216Y-77423417D01*
X141850671Y-77428976D01*
X141832982Y-77623338D01*
X132000081Y-77623338D01*
X131582411Y-77026844D01*
X131225238Y-76260885D01*
X131006499Y-75444542D01*
X130931312Y-74585146D01*
X130931312Y-62244102D01*
X131191892Y-62244102D01*
X131194311Y-62268662D01*
X131194312Y-69291040D01*
X131191892Y-69315610D01*
X131201546Y-69413627D01*
X131216377Y-69462516D01*
X131230137Y-69507877D01*
X131276566Y-69594739D01*
X131339048Y-69670874D01*
X131358130Y-69686534D01*
X132060391Y-70388797D01*
X132076048Y-70407875D01*
X132152183Y-70470357D01*
X132239045Y-70516786D01*
X132333295Y-70545376D01*
X132431312Y-70555030D01*
X132455872Y-70552611D01*
X133824206Y-70552611D01*
X133931312Y-70659717D01*
X133931313Y-72978041D01*
X133928893Y-73002611D01*
X133938547Y-73100628D01*
X133950738Y-73140815D01*
X133967138Y-73194878D01*
X134013567Y-73281740D01*
X134076049Y-73357875D01*
X134095130Y-73373534D01*
X134160386Y-73438791D01*
X134176048Y-73457875D01*
X134252183Y-73520357D01*
X134339045Y-73566786D01*
X134409117Y-73588042D01*
X134413537Y-73602611D01*
X134410333Y-73613171D01*
X134327045Y-73638436D01*
X134240183Y-73684865D01*
X134164048Y-73747347D01*
X134148386Y-73766431D01*
X134108129Y-73806689D01*
X134089048Y-73822348D01*
X134026566Y-73898483D01*
X133989486Y-73967855D01*
X133980137Y-73985345D01*
X133951546Y-74079595D01*
X133941892Y-74177612D01*
X133944312Y-74202182D01*
X133944311Y-75877460D01*
X133941892Y-75902020D01*
X133944311Y-75926579D01*
X133951546Y-76000036D01*
X133980136Y-76094286D01*
X134026565Y-76181149D01*
X134089047Y-76257284D01*
X134108135Y-76272949D01*
X135223991Y-77388806D01*
X135239647Y-77407883D01*
X135258724Y-77423539D01*
X135315781Y-77470365D01*
X135402642Y-77516794D01*
X135496893Y-77545384D01*
X135594910Y-77555039D01*
X135619477Y-77552619D01*
X140020567Y-77552621D01*
X140045127Y-77555040D01*
X140143144Y-77545386D01*
X140184067Y-77532972D01*
X140237393Y-77516796D01*
X140324255Y-77470367D01*
X140400390Y-77407885D01*
X140416050Y-77388803D01*
X142243557Y-75561298D01*
X142262634Y-75545642D01*
X142325116Y-75469507D01*
X142371545Y-75382645D01*
X142400135Y-75288395D01*
X142407370Y-75214938D01*
X142407370Y-75214929D01*
X142409788Y-75190379D01*
X142407370Y-75165829D01*
X142407370Y-68059716D01*
X144042509Y-66424579D01*
X144061586Y-66408923D01*
X144124068Y-66332788D01*
X144165868Y-66254587D01*
X144170496Y-66245928D01*
X144170497Y-66245926D01*
X144199087Y-66151676D01*
X144206322Y-66078219D01*
X144206322Y-66078210D01*
X144208074Y-66060421D01*
X146131314Y-67983661D01*
X146131313Y-72878052D01*
X146128894Y-72902612D01*
X146138548Y-73000629D01*
X146139751Y-73004594D01*
X146167138Y-73094878D01*
X146213567Y-73181741D01*
X146256312Y-73233826D01*
X146256312Y-73378942D01*
X146286095Y-73528670D01*
X146344516Y-73669711D01*
X146429330Y-73796645D01*
X146537278Y-73904593D01*
X146664212Y-73989407D01*
X146805253Y-74047828D01*
X146954981Y-74077611D01*
X147107643Y-74077611D01*
X147257371Y-74047828D01*
X147398412Y-73989407D01*
X147525346Y-73904593D01*
X147633294Y-73796645D01*
X147663605Y-73751280D01*
X152506312Y-73751280D01*
X152506312Y-73903942D01*
X152536095Y-74053670D01*
X152594516Y-74194711D01*
X152679330Y-74321645D01*
X152787278Y-74429593D01*
X152840435Y-74465111D01*
X152787278Y-74500629D01*
X152679330Y-74608577D01*
X152594516Y-74735511D01*
X152536095Y-74876552D01*
X152506312Y-75026280D01*
X152506312Y-75178942D01*
X152536095Y-75328670D01*
X152594516Y-75469711D01*
X152679330Y-75596645D01*
X152787278Y-75704593D01*
X152914212Y-75789407D01*
X153055253Y-75847828D01*
X153204981Y-75877611D01*
X153357643Y-75877611D01*
X153507371Y-75847828D01*
X153648412Y-75789407D01*
X153775346Y-75704593D01*
X153883294Y-75596645D01*
X153968108Y-75469711D01*
X154026529Y-75328670D01*
X154056312Y-75178942D01*
X154056312Y-75026280D01*
X154026529Y-74876552D01*
X153968108Y-74735511D01*
X153883294Y-74608577D01*
X153775346Y-74500629D01*
X153722189Y-74465111D01*
X153775346Y-74429593D01*
X153883294Y-74321645D01*
X153968108Y-74194711D01*
X154026529Y-74053670D01*
X154056312Y-73903942D01*
X154056312Y-73751280D01*
X154026529Y-73601552D01*
X153968108Y-73460511D01*
X153883294Y-73333577D01*
X153775346Y-73225629D01*
X153648412Y-73140815D01*
X153507371Y-73082394D01*
X153357643Y-73052611D01*
X153204981Y-73052611D01*
X153055253Y-73082394D01*
X152914212Y-73140815D01*
X152787278Y-73225629D01*
X152679330Y-73333577D01*
X152594516Y-73460511D01*
X152536095Y-73601552D01*
X152506312Y-73751280D01*
X147663605Y-73751280D01*
X147718108Y-73669711D01*
X147776529Y-73528670D01*
X147806312Y-73378942D01*
X147806312Y-73226280D01*
X147776529Y-73076552D01*
X147718108Y-72935511D01*
X147633294Y-72808577D01*
X147525346Y-72700629D01*
X147398412Y-72615815D01*
X147257371Y-72557394D01*
X147131313Y-72532319D01*
X147131313Y-67801114D01*
X147133732Y-67776554D01*
X147124078Y-67678537D01*
X147120251Y-67665920D01*
X147095488Y-67584287D01*
X147049059Y-67497425D01*
X146986577Y-67421290D01*
X146967494Y-67405629D01*
X144180088Y-64618224D01*
X144293812Y-64629425D01*
X144549243Y-64629425D01*
X145942663Y-66022846D01*
X145962232Y-66046691D01*
X145986077Y-66066260D01*
X145986080Y-66066263D01*
X146057399Y-66124793D01*
X146163314Y-66181406D01*
X146165978Y-66182830D01*
X146283791Y-66218568D01*
X146375608Y-66227611D01*
X146375617Y-66227611D01*
X146406311Y-66230634D01*
X146437005Y-66227611D01*
X146645948Y-66227611D01*
X146684426Y-66274497D01*
X146777517Y-66350894D01*
X146883724Y-66407663D01*
X146998965Y-66442621D01*
X147118812Y-66454425D01*
X147693812Y-66454425D01*
X147813659Y-66442621D01*
X147928900Y-66407663D01*
X148035107Y-66350894D01*
X148128198Y-66274497D01*
X148204595Y-66181406D01*
X148254517Y-66088009D01*
X148260753Y-66151320D01*
X148282253Y-66222196D01*
X148317167Y-66287516D01*
X148364154Y-66344769D01*
X148421407Y-66391756D01*
X148486727Y-66426670D01*
X148557603Y-66448170D01*
X148631312Y-66455430D01*
X149061812Y-66453611D01*
X149155812Y-66359611D01*
X149155812Y-65603111D01*
X149156812Y-65603111D01*
X149156812Y-66359611D01*
X149250812Y-66453611D01*
X149681312Y-66455430D01*
X149755021Y-66448170D01*
X149825897Y-66426670D01*
X149891217Y-66391756D01*
X149948470Y-66344769D01*
X149995457Y-66287516D01*
X150030371Y-66222196D01*
X150051871Y-66151320D01*
X150059131Y-66077611D01*
X150057312Y-65697111D01*
X149963312Y-65603111D01*
X149156812Y-65603111D01*
X149155812Y-65603111D01*
X149135812Y-65603111D01*
X149135812Y-65602111D01*
X149155812Y-65602111D01*
X149155812Y-64845611D01*
X149156812Y-64845611D01*
X149156812Y-65602111D01*
X149963312Y-65602111D01*
X150057312Y-65508111D01*
X150059131Y-65127611D01*
X150051871Y-65053902D01*
X150030371Y-64983026D01*
X149995457Y-64917706D01*
X149948470Y-64860453D01*
X149891217Y-64813466D01*
X149825897Y-64778552D01*
X149755021Y-64757052D01*
X149681312Y-64749792D01*
X149250812Y-64751611D01*
X149156812Y-64845611D01*
X149155812Y-64845611D01*
X149061812Y-64751611D01*
X148631312Y-64749792D01*
X148557603Y-64757052D01*
X148486727Y-64778552D01*
X148421407Y-64813466D01*
X148364154Y-64860453D01*
X148317167Y-64917706D01*
X148282253Y-64983026D01*
X148260753Y-65053902D01*
X148254517Y-65117213D01*
X148204595Y-65023816D01*
X148128198Y-64930725D01*
X148035107Y-64854328D01*
X147928900Y-64797559D01*
X147813659Y-64762601D01*
X147693812Y-64750797D01*
X147118812Y-64750797D01*
X146998965Y-64762601D01*
X146883724Y-64797559D01*
X146777517Y-64854328D01*
X146684426Y-64930725D01*
X146654624Y-64967039D01*
X145415194Y-63727611D01*
X145715194Y-63427611D01*
X146279422Y-63427611D01*
X146274498Y-63477611D01*
X146274498Y-64127611D01*
X146281738Y-64201124D01*
X146303181Y-64271811D01*
X146338003Y-64336958D01*
X146384864Y-64394059D01*
X146441965Y-64440920D01*
X146507112Y-64475742D01*
X146577799Y-64497185D01*
X146651312Y-64504425D01*
X147711312Y-64504425D01*
X147784825Y-64497185D01*
X147855512Y-64475742D01*
X147920659Y-64440920D01*
X147977760Y-64394059D01*
X148024621Y-64336958D01*
X148059443Y-64271811D01*
X148080886Y-64201124D01*
X148088126Y-64127611D01*
X148088126Y-63477611D01*
X148080886Y-63404098D01*
X148059443Y-63333411D01*
X148024621Y-63268264D01*
X147977760Y-63211163D01*
X147920659Y-63164302D01*
X147855512Y-63129480D01*
X147800388Y-63112758D01*
X147806312Y-63052611D01*
X147806312Y-62590667D01*
X147855512Y-62575742D01*
X147920659Y-62540920D01*
X147977760Y-62494059D01*
X148024621Y-62436958D01*
X148059443Y-62371811D01*
X148080886Y-62301124D01*
X148088126Y-62227611D01*
X148088126Y-61577611D01*
X148080886Y-61504098D01*
X148059443Y-61433411D01*
X148024621Y-61368264D01*
X147977760Y-61311163D01*
X147920659Y-61264302D01*
X147855512Y-61229480D01*
X147784825Y-61208037D01*
X147711312Y-61200797D01*
X147707434Y-61200797D01*
X147696477Y-61187446D01*
X147406814Y-60897783D01*
X147406814Y-60859613D01*
X147500812Y-60953611D01*
X147931312Y-60955430D01*
X148005021Y-60948170D01*
X148075897Y-60926670D01*
X148141217Y-60891756D01*
X148198470Y-60844769D01*
X148245457Y-60787516D01*
X148280371Y-60722196D01*
X148301871Y-60651320D01*
X148308107Y-60588009D01*
X148358029Y-60681406D01*
X148434426Y-60774497D01*
X148527517Y-60850894D01*
X148531312Y-60852923D01*
X148531313Y-61380780D01*
X148503181Y-61433411D01*
X148481738Y-61504098D01*
X148474498Y-61577611D01*
X148474498Y-62227611D01*
X148481738Y-62301124D01*
X148503181Y-62371811D01*
X148505714Y-62376550D01*
X148502253Y-62383026D01*
X148480753Y-62453902D01*
X148473493Y-62527611D01*
X148475312Y-62758111D01*
X148569312Y-62852111D01*
X149380812Y-62852111D01*
X149380812Y-62832111D01*
X149381812Y-62832111D01*
X149381812Y-62852111D01*
X149401812Y-62852111D01*
X149401812Y-62853111D01*
X149381812Y-62853111D01*
X149381812Y-62873111D01*
X149380812Y-62873111D01*
X149380812Y-62853111D01*
X148569312Y-62853111D01*
X148475312Y-62947111D01*
X148473493Y-63177611D01*
X148480753Y-63251320D01*
X148502253Y-63322196D01*
X148505714Y-63328672D01*
X148503181Y-63333411D01*
X148481738Y-63404098D01*
X148474498Y-63477611D01*
X148474498Y-64127611D01*
X148481738Y-64201124D01*
X148503181Y-64271811D01*
X148538003Y-64336958D01*
X148584864Y-64394059D01*
X148641965Y-64440920D01*
X148707112Y-64475742D01*
X148777799Y-64497185D01*
X148851312Y-64504425D01*
X149911312Y-64504425D01*
X149984825Y-64497185D01*
X150055512Y-64475742D01*
X150120659Y-64440920D01*
X150136876Y-64427611D01*
X150141303Y-64427611D01*
X150171997Y-64430634D01*
X150202691Y-64427611D01*
X150202701Y-64427611D01*
X150294518Y-64418568D01*
X150412331Y-64382830D01*
X150520908Y-64324794D01*
X150616077Y-64246691D01*
X150635655Y-64222835D01*
X150656312Y-64202178D01*
X150656312Y-65852611D01*
X150663518Y-65925770D01*
X150684857Y-65996117D01*
X150719511Y-66060950D01*
X150766147Y-66117776D01*
X151766147Y-67117776D01*
X151822973Y-67164412D01*
X151887806Y-67199066D01*
X151958153Y-67220405D01*
X152031312Y-67227611D01*
X153084053Y-67227611D01*
X155656312Y-69616137D01*
X155656312Y-70421094D01*
X155648412Y-70415815D01*
X155507371Y-70357394D01*
X155357643Y-70327611D01*
X155204981Y-70327611D01*
X155055253Y-70357394D01*
X154914212Y-70415815D01*
X154787278Y-70500629D01*
X154679330Y-70608577D01*
X154594516Y-70735511D01*
X154536095Y-70876552D01*
X154506312Y-71026280D01*
X154506312Y-71178942D01*
X154536095Y-71328670D01*
X154594516Y-71469711D01*
X154679330Y-71596645D01*
X154685296Y-71602611D01*
X154679330Y-71608577D01*
X154594516Y-71735511D01*
X154536095Y-71876552D01*
X154506312Y-72026280D01*
X154506312Y-72178942D01*
X154536095Y-72328670D01*
X154594516Y-72469711D01*
X154679330Y-72596645D01*
X154685296Y-72602611D01*
X154679330Y-72608577D01*
X154594516Y-72735511D01*
X154536095Y-72876552D01*
X154506312Y-73026280D01*
X154506312Y-73178942D01*
X154536095Y-73328670D01*
X154594516Y-73469711D01*
X154679330Y-73596645D01*
X154685296Y-73602611D01*
X154679330Y-73608577D01*
X154594516Y-73735511D01*
X154536095Y-73876552D01*
X154506312Y-74026280D01*
X154506312Y-74178942D01*
X154536095Y-74328670D01*
X154594516Y-74469711D01*
X154679330Y-74596645D01*
X154787278Y-74704593D01*
X154914212Y-74789407D01*
X155055253Y-74847828D01*
X155204981Y-74877611D01*
X155357643Y-74877611D01*
X155507371Y-74847828D01*
X155648412Y-74789407D01*
X155775346Y-74704593D01*
X155883294Y-74596645D01*
X155968108Y-74469711D01*
X156026529Y-74328670D01*
X156056312Y-74178942D01*
X156056312Y-74026280D01*
X156026529Y-73876552D01*
X156005191Y-73825038D01*
X156031312Y-73827611D01*
X158831312Y-73827611D01*
X158904471Y-73820405D01*
X158974818Y-73799066D01*
X159039651Y-73764412D01*
X159096477Y-73717776D01*
X159143113Y-73660950D01*
X159177767Y-73596117D01*
X159199106Y-73525770D01*
X159206312Y-73452611D01*
X159206312Y-72352611D01*
X160935296Y-72352611D01*
X161037278Y-72454593D01*
X161164212Y-72539407D01*
X161305253Y-72597828D01*
X161454981Y-72627611D01*
X161607643Y-72627611D01*
X161757371Y-72597828D01*
X161898412Y-72539407D01*
X162025346Y-72454593D01*
X162133294Y-72346645D01*
X162218108Y-72219711D01*
X162276529Y-72078670D01*
X162306312Y-71928942D01*
X162306312Y-71776280D01*
X162276529Y-71626552D01*
X162218108Y-71485511D01*
X162133294Y-71358577D01*
X162127328Y-71352611D01*
X162133294Y-71346645D01*
X162218108Y-71219711D01*
X162276529Y-71078670D01*
X162306312Y-70928942D01*
X162306312Y-70776280D01*
X162276529Y-70626552D01*
X162218108Y-70485511D01*
X162133294Y-70358577D01*
X162025346Y-70250629D01*
X161898412Y-70165815D01*
X161757371Y-70107394D01*
X161607643Y-70077611D01*
X161454981Y-70077611D01*
X161305253Y-70107394D01*
X161164212Y-70165815D01*
X161037278Y-70250629D01*
X160935296Y-70352611D01*
X158920126Y-70352611D01*
X158920126Y-70221611D01*
X158912886Y-70148098D01*
X158899610Y-70104333D01*
X158913871Y-70057320D01*
X158921131Y-69983611D01*
X158919312Y-69697111D01*
X158825312Y-69603111D01*
X157781812Y-69603111D01*
X157781812Y-69623111D01*
X157780812Y-69623111D01*
X157780812Y-69603111D01*
X157760812Y-69603111D01*
X157760812Y-69602111D01*
X157780812Y-69602111D01*
X157780812Y-68939611D01*
X157781812Y-68939611D01*
X157781812Y-69602111D01*
X158825312Y-69602111D01*
X158919312Y-69508111D01*
X158921131Y-69221611D01*
X158913871Y-69147902D01*
X158892371Y-69077026D01*
X158857457Y-69011706D01*
X158810470Y-68954453D01*
X158753217Y-68907466D01*
X158687897Y-68872552D01*
X158617021Y-68851052D01*
X158543312Y-68843792D01*
X157875812Y-68845611D01*
X157781812Y-68939611D01*
X157780812Y-68939611D01*
X157686812Y-68845611D01*
X157406312Y-68844847D01*
X157406312Y-68233611D01*
X160641493Y-68233611D01*
X160648753Y-68307320D01*
X160670253Y-68378196D01*
X160705167Y-68443516D01*
X160752154Y-68500769D01*
X160809407Y-68547756D01*
X160874727Y-68582670D01*
X160945603Y-68604170D01*
X161019312Y-68611430D01*
X161686812Y-68609611D01*
X161780812Y-68515611D01*
X161780812Y-67853111D01*
X161781812Y-67853111D01*
X161781812Y-68515611D01*
X161875812Y-68609611D01*
X162543312Y-68611430D01*
X162617021Y-68604170D01*
X162687897Y-68582670D01*
X162753217Y-68547756D01*
X162810470Y-68500769D01*
X162857457Y-68443516D01*
X162892371Y-68378196D01*
X162913871Y-68307320D01*
X162921131Y-68233611D01*
X162919312Y-67947111D01*
X162825312Y-67853111D01*
X161781812Y-67853111D01*
X161780812Y-67853111D01*
X160737312Y-67853111D01*
X160643312Y-67947111D01*
X160641493Y-68233611D01*
X157406312Y-68233611D01*
X157406312Y-67627611D01*
X158631312Y-67627611D01*
X158704471Y-67620405D01*
X158774818Y-67599066D01*
X158839651Y-67564412D01*
X158896477Y-67517776D01*
X158943113Y-67460950D01*
X158977767Y-67396117D01*
X158999106Y-67325770D01*
X159006312Y-67252611D01*
X159006312Y-66432611D01*
X159057603Y-66448170D01*
X159131312Y-66455430D01*
X159561812Y-66453611D01*
X159655812Y-66359611D01*
X159655812Y-65603111D01*
X159656812Y-65603111D01*
X159656812Y-66359611D01*
X159750812Y-66453611D01*
X160181312Y-66455430D01*
X160255021Y-66448170D01*
X160325897Y-66426670D01*
X160391217Y-66391756D01*
X160448470Y-66344769D01*
X160495457Y-66287516D01*
X160530371Y-66222196D01*
X160551871Y-66151320D01*
X160559131Y-66077611D01*
X160557312Y-65697111D01*
X160463312Y-65603111D01*
X159656812Y-65603111D01*
X159655812Y-65603111D01*
X159635812Y-65603111D01*
X159635812Y-65602111D01*
X159655812Y-65602111D01*
X159655812Y-64845611D01*
X159656812Y-64845611D01*
X159656812Y-65602111D01*
X160463312Y-65602111D01*
X160557312Y-65508111D01*
X160559131Y-65127611D01*
X160551871Y-65053902D01*
X160530371Y-64983026D01*
X160495457Y-64917706D01*
X160448470Y-64860453D01*
X160391217Y-64813466D01*
X160325897Y-64778552D01*
X160255021Y-64757052D01*
X160181312Y-64749792D01*
X159750812Y-64751611D01*
X159656812Y-64845611D01*
X159655812Y-64845611D01*
X159561812Y-64751611D01*
X159131312Y-64749792D01*
X159057603Y-64757052D01*
X159006312Y-64772611D01*
X159006312Y-64277669D01*
X159038003Y-64336958D01*
X159084864Y-64394059D01*
X159141965Y-64440920D01*
X159207112Y-64475742D01*
X159277799Y-64497185D01*
X159351312Y-64504425D01*
X160411312Y-64504425D01*
X160484825Y-64497185D01*
X160555512Y-64475742D01*
X160620659Y-64440920D01*
X160636876Y-64427611D01*
X160841465Y-64427611D01*
X160859426Y-64449497D01*
X160952517Y-64525894D01*
X161058724Y-64582663D01*
X161156313Y-64612266D01*
X161156312Y-66094797D01*
X161019312Y-66094797D01*
X160945799Y-66102037D01*
X160875112Y-66123480D01*
X160809965Y-66158302D01*
X160752864Y-66205163D01*
X160706003Y-66262264D01*
X160671181Y-66327411D01*
X160649738Y-66398098D01*
X160642498Y-66471611D01*
X160642498Y-67233611D01*
X160649738Y-67307124D01*
X160663014Y-67350889D01*
X160648753Y-67397902D01*
X160641493Y-67471611D01*
X160643312Y-67758111D01*
X160737312Y-67852111D01*
X161780812Y-67852111D01*
X161780812Y-67832111D01*
X161781812Y-67832111D01*
X161781812Y-67852111D01*
X162825312Y-67852111D01*
X162919312Y-67758111D01*
X162921131Y-67471611D01*
X162913871Y-67397902D01*
X162899610Y-67350889D01*
X162912886Y-67307124D01*
X162920126Y-67233611D01*
X162920126Y-66471611D01*
X162912886Y-66398098D01*
X162891443Y-66327411D01*
X162856621Y-66262264D01*
X162809760Y-66205163D01*
X162752659Y-66158302D01*
X162687512Y-66123480D01*
X162616825Y-66102037D01*
X162543312Y-66094797D01*
X162406312Y-66094797D01*
X162406312Y-64008304D01*
X162409335Y-63977610D01*
X162406312Y-63946916D01*
X162406312Y-63946907D01*
X162397269Y-63855090D01*
X162383126Y-63808467D01*
X162383126Y-63582903D01*
X162667503Y-63298526D01*
X162686586Y-63282865D01*
X162749068Y-63206730D01*
X162795497Y-63119868D01*
X162815899Y-63052611D01*
X162824087Y-63025619D01*
X162833741Y-62927601D01*
X162831322Y-62903041D01*
X162831322Y-58302181D01*
X162833741Y-58277621D01*
X162824087Y-58179603D01*
X162811599Y-58138436D01*
X162795497Y-58085354D01*
X162749068Y-57998492D01*
X162686586Y-57922357D01*
X162667503Y-57906696D01*
X161977241Y-57216435D01*
X161961576Y-57197347D01*
X161885441Y-57134865D01*
X161798579Y-57088436D01*
X161704329Y-57059846D01*
X161630872Y-57052611D01*
X161606312Y-57050192D01*
X161581752Y-57052611D01*
X160621712Y-57052611D01*
X160579595Y-56973816D01*
X160503198Y-56880725D01*
X160479577Y-56861340D01*
X160516217Y-56841756D01*
X160573470Y-56794769D01*
X160620457Y-56737516D01*
X160655371Y-56672196D01*
X160676871Y-56601320D01*
X160684131Y-56527611D01*
X160682312Y-56147111D01*
X160588312Y-56053111D01*
X159781812Y-56053111D01*
X159781812Y-56073111D01*
X159780812Y-56073111D01*
X159780812Y-56053111D01*
X159760812Y-56053111D01*
X159760812Y-56052111D01*
X159780812Y-56052111D01*
X159780812Y-55295611D01*
X159781812Y-55295611D01*
X159781812Y-56052111D01*
X160588312Y-56052111D01*
X160682312Y-55958111D01*
X160684131Y-55577611D01*
X160676871Y-55503902D01*
X160655371Y-55433026D01*
X160620457Y-55367706D01*
X160573470Y-55310453D01*
X160516217Y-55263466D01*
X160450897Y-55228552D01*
X160380021Y-55207052D01*
X160306312Y-55199792D01*
X159875812Y-55201611D01*
X159781812Y-55295611D01*
X159780812Y-55295611D01*
X159686812Y-55201611D01*
X159256312Y-55199792D01*
X159182603Y-55207052D01*
X159111727Y-55228552D01*
X159046407Y-55263466D01*
X158989154Y-55310453D01*
X158942167Y-55367706D01*
X158907253Y-55433026D01*
X158885753Y-55503902D01*
X158879517Y-55567213D01*
X158829595Y-55473816D01*
X158753198Y-55380725D01*
X158660107Y-55304328D01*
X158553900Y-55247559D01*
X158531312Y-55240707D01*
X158531312Y-51167756D01*
X158533731Y-51143198D01*
X158530321Y-51108577D01*
X158524077Y-51045182D01*
X158495487Y-50950932D01*
X158449058Y-50864070D01*
X158386576Y-50787935D01*
X158367493Y-50772274D01*
X156511653Y-48916435D01*
X156495988Y-48897347D01*
X156419853Y-48834865D01*
X156332991Y-48788436D01*
X156238741Y-48759846D01*
X156165284Y-48752611D01*
X156140724Y-48750192D01*
X156116164Y-48752611D01*
X152655872Y-48752611D01*
X152631312Y-48750192D01*
X152606752Y-48752611D01*
X152533295Y-48759846D01*
X152439045Y-48788436D01*
X152352183Y-48834865D01*
X152276048Y-48897347D01*
X152260387Y-48916430D01*
X148549206Y-52627612D01*
X147776739Y-52627612D01*
X147806312Y-52478942D01*
X147806312Y-52326280D01*
X147776529Y-52176552D01*
X147718108Y-52035511D01*
X147633294Y-51908577D01*
X147525346Y-51800629D01*
X147398412Y-51715815D01*
X147257371Y-51657394D01*
X147107643Y-51627611D01*
X146954981Y-51627611D01*
X146805253Y-51657394D01*
X146664212Y-51715815D01*
X146537278Y-51800629D01*
X146435296Y-51902611D01*
X145038419Y-51902611D01*
X142052241Y-48916435D01*
X142036576Y-48897347D01*
X141960441Y-48834865D01*
X141873579Y-48788436D01*
X141779329Y-48759846D01*
X141705872Y-48752611D01*
X141681312Y-48750192D01*
X141656752Y-48752611D01*
X137905872Y-48752611D01*
X137881312Y-48750192D01*
X137856752Y-48752611D01*
X137783295Y-48759846D01*
X137689045Y-48788436D01*
X137602183Y-48834865D01*
X137526048Y-48897347D01*
X137510392Y-48916424D01*
X134695136Y-51731682D01*
X134676048Y-51747347D01*
X134613566Y-51823482D01*
X134567137Y-51910345D01*
X134565478Y-51915815D01*
X134538547Y-52004594D01*
X134528893Y-52102611D01*
X134531312Y-52127171D01*
X134531313Y-61020506D01*
X133902241Y-60391435D01*
X133886576Y-60372347D01*
X133875561Y-60363308D01*
X133871322Y-60320264D01*
X133836364Y-60205023D01*
X133779595Y-60098816D01*
X133703198Y-60005725D01*
X133610107Y-59929328D01*
X133516710Y-59879406D01*
X133580021Y-59873170D01*
X133650897Y-59851670D01*
X133716217Y-59816756D01*
X133773470Y-59769769D01*
X133820457Y-59712516D01*
X133855371Y-59647196D01*
X133876871Y-59576320D01*
X133884131Y-59502611D01*
X133882312Y-59072111D01*
X133788312Y-58978111D01*
X133031812Y-58978111D01*
X133031812Y-58998111D01*
X133030812Y-58998111D01*
X133030812Y-58978111D01*
X132274312Y-58978111D01*
X132180312Y-59072111D01*
X132178493Y-59502611D01*
X132185753Y-59576320D01*
X132207253Y-59647196D01*
X132242167Y-59712516D01*
X132289154Y-59769769D01*
X132346407Y-59816756D01*
X132411727Y-59851670D01*
X132482603Y-59873170D01*
X132545914Y-59879406D01*
X132452517Y-59929328D01*
X132359426Y-60005725D01*
X132283029Y-60098816D01*
X132226260Y-60205023D01*
X132191302Y-60320264D01*
X132179498Y-60440111D01*
X132179498Y-61015111D01*
X132191302Y-61134958D01*
X132226260Y-61250199D01*
X132283029Y-61356406D01*
X132300423Y-61377601D01*
X132085372Y-61377601D01*
X132060812Y-61375182D01*
X132036252Y-61377601D01*
X131962795Y-61384836D01*
X131868545Y-61413426D01*
X131781683Y-61459855D01*
X131705548Y-61522337D01*
X131689891Y-61541415D01*
X131358134Y-61873174D01*
X131339047Y-61888838D01*
X131276565Y-61964973D01*
X131230136Y-62051836D01*
X131218422Y-62090453D01*
X131201546Y-62146085D01*
X131191892Y-62244102D01*
X130931312Y-62244102D01*
X130931312Y-58452611D01*
X132178493Y-58452611D01*
X132180312Y-58883111D01*
X132274312Y-58977111D01*
X133030812Y-58977111D01*
X133030812Y-58170611D01*
X133031812Y-58170611D01*
X133031812Y-58977111D01*
X133788312Y-58977111D01*
X133882312Y-58883111D01*
X133884131Y-58452611D01*
X133876871Y-58378902D01*
X133855371Y-58308026D01*
X133820457Y-58242706D01*
X133773470Y-58185453D01*
X133716217Y-58138466D01*
X133650897Y-58103552D01*
X133580021Y-58082052D01*
X133506312Y-58074792D01*
X133125812Y-58076611D01*
X133031812Y-58170611D01*
X133030812Y-58170611D01*
X132936812Y-58076611D01*
X132556312Y-58074792D01*
X132482603Y-58082052D01*
X132411727Y-58103552D01*
X132346407Y-58138466D01*
X132289154Y-58185453D01*
X132242167Y-58242706D01*
X132207253Y-58308026D01*
X132185753Y-58378902D01*
X132178493Y-58452611D01*
X130931312Y-58452611D01*
X130931312Y-51120076D01*
X131006499Y-50260680D01*
X131225238Y-49444337D01*
X131582411Y-48678378D01*
X132041074Y-48023338D01*
X141832982Y-48023338D01*
X141833235Y-48059592D01*
X141832982Y-48095846D01*
X141833527Y-48101405D01*
X141853928Y-48295501D01*
X141861217Y-48331009D01*
X141868011Y-48366625D01*
X141869626Y-48371972D01*
X141927338Y-48558410D01*
X141941376Y-48591807D01*
X141954967Y-48625445D01*
X141957589Y-48630376D01*
X142050414Y-48802053D01*
X142070692Y-48832117D01*
X142090539Y-48862446D01*
X142094069Y-48866774D01*
X142218473Y-49017152D01*
X142244199Y-49042699D01*
X142269563Y-49068600D01*
X142273866Y-49072160D01*
X142425108Y-49195510D01*
X142455300Y-49215569D01*
X142485219Y-49236055D01*
X142490132Y-49238711D01*
X142662454Y-49330336D01*
X142695952Y-49344143D01*
X142729294Y-49358433D01*
X142734629Y-49360085D01*
X142921466Y-49416494D01*
X142957029Y-49423536D01*
X142992490Y-49431073D01*
X142998044Y-49431657D01*
X143192278Y-49450702D01*
X143192282Y-49450702D01*
X143211665Y-49452611D01*
X150850959Y-49452611D01*
X150871326Y-49450605D01*
X150884307Y-49450605D01*
X150889862Y-49450021D01*
X151083811Y-49428266D01*
X151119268Y-49420729D01*
X151154838Y-49413686D01*
X151160173Y-49412035D01*
X151346204Y-49353022D01*
X151379531Y-49338738D01*
X151413043Y-49324925D01*
X151417952Y-49322270D01*
X151417957Y-49322268D01*
X151417961Y-49322265D01*
X151588981Y-49228246D01*
X151618878Y-49207775D01*
X151649090Y-49187702D01*
X151653394Y-49184142D01*
X151802900Y-49058692D01*
X151828280Y-49032775D01*
X151853991Y-49007243D01*
X151857521Y-49002915D01*
X151979812Y-48850815D01*
X151999673Y-48820464D01*
X152019935Y-48790425D01*
X152022557Y-48785494D01*
X152112977Y-48612538D01*
X152126556Y-48578929D01*
X152140608Y-48545500D01*
X152142222Y-48540153D01*
X152197325Y-48352928D01*
X152204116Y-48317326D01*
X152211408Y-48281805D01*
X152211953Y-48276246D01*
X152229642Y-48081885D01*
X152229389Y-48045630D01*
X152229642Y-48009376D01*
X152229097Y-48003817D01*
X152208696Y-47809720D01*
X152201404Y-47774199D01*
X152194613Y-47738597D01*
X152192999Y-47733254D01*
X152192998Y-47733248D01*
X152192996Y-47733242D01*
X152135286Y-47546812D01*
X152121254Y-47513432D01*
X152107657Y-47479777D01*
X152105035Y-47474846D01*
X152012210Y-47303169D01*
X151991932Y-47273105D01*
X151972085Y-47242776D01*
X151968555Y-47238448D01*
X151844151Y-47088070D01*
X151818425Y-47062523D01*
X151793061Y-47036622D01*
X151788758Y-47033062D01*
X151637516Y-46909712D01*
X151607342Y-46889665D01*
X151577406Y-46869167D01*
X151572493Y-46866511D01*
X151400170Y-46774886D01*
X151366672Y-46761079D01*
X151333330Y-46746789D01*
X151327995Y-46745137D01*
X151141159Y-46688728D01*
X151105574Y-46681682D01*
X151070134Y-46674149D01*
X151064579Y-46673565D01*
X150870346Y-46654520D01*
X150870342Y-46654520D01*
X150850959Y-46652611D01*
X143211665Y-46652611D01*
X143191298Y-46654617D01*
X143178317Y-46654617D01*
X143172762Y-46655201D01*
X142978812Y-46676956D01*
X142943348Y-46684494D01*
X142907786Y-46691536D01*
X142902451Y-46693187D01*
X142716421Y-46752200D01*
X142683107Y-46766478D01*
X142649581Y-46780297D01*
X142644668Y-46782953D01*
X142473643Y-46876976D01*
X142443746Y-46897447D01*
X142413534Y-46917520D01*
X142409234Y-46921078D01*
X142409229Y-46921081D01*
X142409225Y-46921085D01*
X142259724Y-47046530D01*
X142234344Y-47072447D01*
X142208633Y-47097979D01*
X142205103Y-47102307D01*
X142082812Y-47254407D01*
X142062961Y-47284743D01*
X142042689Y-47314797D01*
X142040067Y-47319729D01*
X141949647Y-47492684D01*
X141936068Y-47526293D01*
X141922016Y-47559722D01*
X141920402Y-47565069D01*
X141865299Y-47752295D01*
X141858509Y-47787889D01*
X141851216Y-47823417D01*
X141850671Y-47828976D01*
X141832982Y-48023338D01*
X132041074Y-48023338D01*
X132067168Y-47986073D01*
X132664775Y-47388466D01*
X133357076Y-46903711D01*
X134123037Y-46546538D01*
X134939382Y-46327798D01*
X135798777Y-46252611D01*
X158263847Y-46252611D01*
X159123243Y-46327798D01*
G37*
X159123243Y-46327798D02*
X159939586Y-46546537D01*
X160705545Y-46903710D01*
X161397850Y-47388467D01*
X161995457Y-47986074D01*
X162480212Y-48678375D01*
X162837385Y-49444336D01*
X163056125Y-50260681D01*
X163131313Y-51120088D01*
X163131312Y-74585146D01*
X163056125Y-75444541D01*
X162837385Y-76260886D01*
X162480212Y-77026847D01*
X161995457Y-77719148D01*
X161397850Y-78316755D01*
X160705545Y-78801512D01*
X159939586Y-79158685D01*
X159123243Y-79377424D01*
X158263847Y-79452611D01*
X135798777Y-79452611D01*
X134939382Y-79377424D01*
X134123037Y-79158684D01*
X133357076Y-78801511D01*
X132664775Y-78316756D01*
X132067168Y-77719149D01*
X132000081Y-77623338D01*
X141832982Y-77623338D01*
X141833235Y-77659592D01*
X141832982Y-77695846D01*
X141833527Y-77701405D01*
X141853928Y-77895501D01*
X141861217Y-77931009D01*
X141868011Y-77966625D01*
X141869626Y-77971972D01*
X141927338Y-78158410D01*
X141941376Y-78191807D01*
X141954967Y-78225445D01*
X141957589Y-78230376D01*
X142050414Y-78402053D01*
X142070692Y-78432117D01*
X142090539Y-78462446D01*
X142094069Y-78466774D01*
X142218473Y-78617152D01*
X142244199Y-78642699D01*
X142269563Y-78668600D01*
X142273866Y-78672160D01*
X142425108Y-78795510D01*
X142455300Y-78815569D01*
X142485219Y-78836055D01*
X142490132Y-78838711D01*
X142662454Y-78930336D01*
X142695952Y-78944143D01*
X142729294Y-78958433D01*
X142734629Y-78960085D01*
X142921466Y-79016494D01*
X142957029Y-79023536D01*
X142992490Y-79031073D01*
X142998044Y-79031657D01*
X143192278Y-79050702D01*
X143192282Y-79050702D01*
X143211665Y-79052611D01*
X150850959Y-79052611D01*
X150871326Y-79050605D01*
X150884307Y-79050605D01*
X150889862Y-79050021D01*
X151083811Y-79028266D01*
X151119268Y-79020729D01*
X151154838Y-79013686D01*
X151160173Y-79012035D01*
X151346204Y-78953022D01*
X151379531Y-78938738D01*
X151413043Y-78924925D01*
X151417952Y-78922270D01*
X151417957Y-78922268D01*
X151417961Y-78922265D01*
X151588981Y-78828246D01*
X151618878Y-78807775D01*
X151649090Y-78787702D01*
X151653394Y-78784142D01*
X151802900Y-78658692D01*
X151828280Y-78632775D01*
X151853991Y-78607243D01*
X151857521Y-78602915D01*
X151979812Y-78450815D01*
X151999673Y-78420464D01*
X152019935Y-78390425D01*
X152022557Y-78385494D01*
X152112977Y-78212538D01*
X152126556Y-78178929D01*
X152140608Y-78145500D01*
X152142222Y-78140153D01*
X152197325Y-77952928D01*
X152204116Y-77917326D01*
X152211408Y-77881805D01*
X152211953Y-77876246D01*
X152229642Y-77681885D01*
X152229389Y-77645630D01*
X152229642Y-77609376D01*
X152229097Y-77603817D01*
X152208696Y-77409720D01*
X152201404Y-77374199D01*
X152194613Y-77338597D01*
X152192999Y-77333254D01*
X152192998Y-77333248D01*
X152192996Y-77333242D01*
X152135286Y-77146812D01*
X152121254Y-77113432D01*
X152107657Y-77079777D01*
X152105035Y-77074846D01*
X152012210Y-76903169D01*
X151991932Y-76873105D01*
X151972085Y-76842776D01*
X151968555Y-76838448D01*
X151844151Y-76688070D01*
X151818425Y-76662523D01*
X151793061Y-76636622D01*
X151788758Y-76633062D01*
X151637516Y-76509712D01*
X151607342Y-76489665D01*
X151577406Y-76469167D01*
X151572493Y-76466511D01*
X151400170Y-76374886D01*
X151366672Y-76361079D01*
X151333330Y-76346789D01*
X151327995Y-76345137D01*
X151141159Y-76288728D01*
X151105574Y-76281682D01*
X151070134Y-76274149D01*
X151064579Y-76273565D01*
X150870346Y-76254520D01*
X150870342Y-76254520D01*
X150850959Y-76252611D01*
X143211665Y-76252611D01*
X143191298Y-76254617D01*
X143178317Y-76254617D01*
X143172762Y-76255201D01*
X142978812Y-76276956D01*
X142943348Y-76284494D01*
X142907786Y-76291536D01*
X142902451Y-76293187D01*
X142716421Y-76352200D01*
X142683107Y-76366478D01*
X142649581Y-76380297D01*
X142644668Y-76382953D01*
X142473643Y-76476976D01*
X142443746Y-76497447D01*
X142413534Y-76517520D01*
X142409234Y-76521078D01*
X142409229Y-76521081D01*
X142409225Y-76521085D01*
X142259724Y-76646530D01*
X142234344Y-76672447D01*
X142208633Y-76697979D01*
X142205103Y-76702307D01*
X142082812Y-76854407D01*
X142062961Y-76884743D01*
X142042689Y-76914797D01*
X142040067Y-76919729D01*
X141949647Y-77092684D01*
X141936068Y-77126293D01*
X141922016Y-77159722D01*
X141920402Y-77165069D01*
X141865299Y-77352295D01*
X141858509Y-77387889D01*
X141851216Y-77423417D01*
X141850671Y-77428976D01*
X141832982Y-77623338D01*
X132000081Y-77623338D01*
X131582411Y-77026844D01*
X131225238Y-76260885D01*
X131006499Y-75444542D01*
X130931312Y-74585146D01*
X130931312Y-62244102D01*
X131191892Y-62244102D01*
X131194311Y-62268662D01*
X131194312Y-69291040D01*
X131191892Y-69315610D01*
X131201546Y-69413627D01*
X131216377Y-69462516D01*
X131230137Y-69507877D01*
X131276566Y-69594739D01*
X131339048Y-69670874D01*
X131358130Y-69686534D01*
X132060391Y-70388797D01*
X132076048Y-70407875D01*
X132152183Y-70470357D01*
X132239045Y-70516786D01*
X132333295Y-70545376D01*
X132431312Y-70555030D01*
X132455872Y-70552611D01*
X133824206Y-70552611D01*
X133931312Y-70659717D01*
X133931313Y-72978041D01*
X133928893Y-73002611D01*
X133938547Y-73100628D01*
X133950738Y-73140815D01*
X133967138Y-73194878D01*
X134013567Y-73281740D01*
X134076049Y-73357875D01*
X134095130Y-73373534D01*
X134160386Y-73438791D01*
X134176048Y-73457875D01*
X134252183Y-73520357D01*
X134339045Y-73566786D01*
X134409117Y-73588042D01*
X134413537Y-73602611D01*
X134410333Y-73613171D01*
X134327045Y-73638436D01*
X134240183Y-73684865D01*
X134164048Y-73747347D01*
X134148386Y-73766431D01*
X134108129Y-73806689D01*
X134089048Y-73822348D01*
X134026566Y-73898483D01*
X133989486Y-73967855D01*
X133980137Y-73985345D01*
X133951546Y-74079595D01*
X133941892Y-74177612D01*
X133944312Y-74202182D01*
X133944311Y-75877460D01*
X133941892Y-75902020D01*
X133944311Y-75926579D01*
X133951546Y-76000036D01*
X133980136Y-76094286D01*
X134026565Y-76181149D01*
X134089047Y-76257284D01*
X134108135Y-76272949D01*
X135223991Y-77388806D01*
X135239647Y-77407883D01*
X135258724Y-77423539D01*
X135315781Y-77470365D01*
X135402642Y-77516794D01*
X135496893Y-77545384D01*
X135594910Y-77555039D01*
X135619477Y-77552619D01*
X140020567Y-77552621D01*
X140045127Y-77555040D01*
X140143144Y-77545386D01*
X140184067Y-77532972D01*
X140237393Y-77516796D01*
X140324255Y-77470367D01*
X140400390Y-77407885D01*
X140416050Y-77388803D01*
X142243557Y-75561298D01*
X142262634Y-75545642D01*
X142325116Y-75469507D01*
X142371545Y-75382645D01*
X142400135Y-75288395D01*
X142407370Y-75214938D01*
X142407370Y-75214929D01*
X142409788Y-75190379D01*
X142407370Y-75165829D01*
X142407370Y-68059716D01*
X144042509Y-66424579D01*
X144061586Y-66408923D01*
X144124068Y-66332788D01*
X144165868Y-66254587D01*
X144170496Y-66245928D01*
X144170497Y-66245926D01*
X144199087Y-66151676D01*
X144206322Y-66078219D01*
X144206322Y-66078210D01*
X144208074Y-66060421D01*
X146131314Y-67983661D01*
X146131313Y-72878052D01*
X146128894Y-72902612D01*
X146138548Y-73000629D01*
X146139751Y-73004594D01*
X146167138Y-73094878D01*
X146213567Y-73181741D01*
X146256312Y-73233826D01*
X146256312Y-73378942D01*
X146286095Y-73528670D01*
X146344516Y-73669711D01*
X146429330Y-73796645D01*
X146537278Y-73904593D01*
X146664212Y-73989407D01*
X146805253Y-74047828D01*
X146954981Y-74077611D01*
X147107643Y-74077611D01*
X147257371Y-74047828D01*
X147398412Y-73989407D01*
X147525346Y-73904593D01*
X147633294Y-73796645D01*
X147663605Y-73751280D01*
X152506312Y-73751280D01*
X152506312Y-73903942D01*
X152536095Y-74053670D01*
X152594516Y-74194711D01*
X152679330Y-74321645D01*
X152787278Y-74429593D01*
X152840435Y-74465111D01*
X152787278Y-74500629D01*
X152679330Y-74608577D01*
X152594516Y-74735511D01*
X152536095Y-74876552D01*
X152506312Y-75026280D01*
X152506312Y-75178942D01*
X152536095Y-75328670D01*
X152594516Y-75469711D01*
X152679330Y-75596645D01*
X152787278Y-75704593D01*
X152914212Y-75789407D01*
X153055253Y-75847828D01*
X153204981Y-75877611D01*
X153357643Y-75877611D01*
X153507371Y-75847828D01*
X153648412Y-75789407D01*
X153775346Y-75704593D01*
X153883294Y-75596645D01*
X153968108Y-75469711D01*
X154026529Y-75328670D01*
X154056312Y-75178942D01*
X154056312Y-75026280D01*
X154026529Y-74876552D01*
X153968108Y-74735511D01*
X153883294Y-74608577D01*
X153775346Y-74500629D01*
X153722189Y-74465111D01*
X153775346Y-74429593D01*
X153883294Y-74321645D01*
X153968108Y-74194711D01*
X154026529Y-74053670D01*
X154056312Y-73903942D01*
X154056312Y-73751280D01*
X154026529Y-73601552D01*
X153968108Y-73460511D01*
X153883294Y-73333577D01*
X153775346Y-73225629D01*
X153648412Y-73140815D01*
X153507371Y-73082394D01*
X153357643Y-73052611D01*
X153204981Y-73052611D01*
X153055253Y-73082394D01*
X152914212Y-73140815D01*
X152787278Y-73225629D01*
X152679330Y-73333577D01*
X152594516Y-73460511D01*
X152536095Y-73601552D01*
X152506312Y-73751280D01*
X147663605Y-73751280D01*
X147718108Y-73669711D01*
X147776529Y-73528670D01*
X147806312Y-73378942D01*
X147806312Y-73226280D01*
X147776529Y-73076552D01*
X147718108Y-72935511D01*
X147633294Y-72808577D01*
X147525346Y-72700629D01*
X147398412Y-72615815D01*
X147257371Y-72557394D01*
X147131313Y-72532319D01*
X147131313Y-67801114D01*
X147133732Y-67776554D01*
X147124078Y-67678537D01*
X147120251Y-67665920D01*
X147095488Y-67584287D01*
X147049059Y-67497425D01*
X146986577Y-67421290D01*
X146967494Y-67405629D01*
X144180088Y-64618224D01*
X144293812Y-64629425D01*
X144549243Y-64629425D01*
X145942663Y-66022846D01*
X145962232Y-66046691D01*
X145986077Y-66066260D01*
X145986080Y-66066263D01*
X146057399Y-66124793D01*
X146163314Y-66181406D01*
X146165978Y-66182830D01*
X146283791Y-66218568D01*
X146375608Y-66227611D01*
X146375617Y-66227611D01*
X146406311Y-66230634D01*
X146437005Y-66227611D01*
X146645948Y-66227611D01*
X146684426Y-66274497D01*
X146777517Y-66350894D01*
X146883724Y-66407663D01*
X146998965Y-66442621D01*
X147118812Y-66454425D01*
X147693812Y-66454425D01*
X147813659Y-66442621D01*
X147928900Y-66407663D01*
X148035107Y-66350894D01*
X148128198Y-66274497D01*
X148204595Y-66181406D01*
X148254517Y-66088009D01*
X148260753Y-66151320D01*
X148282253Y-66222196D01*
X148317167Y-66287516D01*
X148364154Y-66344769D01*
X148421407Y-66391756D01*
X148486727Y-66426670D01*
X148557603Y-66448170D01*
X148631312Y-66455430D01*
X149061812Y-66453611D01*
X149155812Y-66359611D01*
X149155812Y-65603111D01*
X149156812Y-65603111D01*
X149156812Y-66359611D01*
X149250812Y-66453611D01*
X149681312Y-66455430D01*
X149755021Y-66448170D01*
X149825897Y-66426670D01*
X149891217Y-66391756D01*
X149948470Y-66344769D01*
X149995457Y-66287516D01*
X150030371Y-66222196D01*
X150051871Y-66151320D01*
X150059131Y-66077611D01*
X150057312Y-65697111D01*
X149963312Y-65603111D01*
X149156812Y-65603111D01*
X149155812Y-65603111D01*
X149135812Y-65603111D01*
X149135812Y-65602111D01*
X149155812Y-65602111D01*
X149155812Y-64845611D01*
X149156812Y-64845611D01*
X149156812Y-65602111D01*
X149963312Y-65602111D01*
X150057312Y-65508111D01*
X150059131Y-65127611D01*
X150051871Y-65053902D01*
X150030371Y-64983026D01*
X149995457Y-64917706D01*
X149948470Y-64860453D01*
X149891217Y-64813466D01*
X149825897Y-64778552D01*
X149755021Y-64757052D01*
X149681312Y-64749792D01*
X149250812Y-64751611D01*
X149156812Y-64845611D01*
X149155812Y-64845611D01*
X149061812Y-64751611D01*
X148631312Y-64749792D01*
X148557603Y-64757052D01*
X148486727Y-64778552D01*
X148421407Y-64813466D01*
X148364154Y-64860453D01*
X148317167Y-64917706D01*
X148282253Y-64983026D01*
X148260753Y-65053902D01*
X148254517Y-65117213D01*
X148204595Y-65023816D01*
X148128198Y-64930725D01*
X148035107Y-64854328D01*
X147928900Y-64797559D01*
X147813659Y-64762601D01*
X147693812Y-64750797D01*
X147118812Y-64750797D01*
X146998965Y-64762601D01*
X146883724Y-64797559D01*
X146777517Y-64854328D01*
X146684426Y-64930725D01*
X146654624Y-64967039D01*
X145415194Y-63727611D01*
X145715194Y-63427611D01*
X146279422Y-63427611D01*
X146274498Y-63477611D01*
X146274498Y-64127611D01*
X146281738Y-64201124D01*
X146303181Y-64271811D01*
X146338003Y-64336958D01*
X146384864Y-64394059D01*
X146441965Y-64440920D01*
X146507112Y-64475742D01*
X146577799Y-64497185D01*
X146651312Y-64504425D01*
X147711312Y-64504425D01*
X147784825Y-64497185D01*
X147855512Y-64475742D01*
X147920659Y-64440920D01*
X147977760Y-64394059D01*
X148024621Y-64336958D01*
X148059443Y-64271811D01*
X148080886Y-64201124D01*
X148088126Y-64127611D01*
X148088126Y-63477611D01*
X148080886Y-63404098D01*
X148059443Y-63333411D01*
X148024621Y-63268264D01*
X147977760Y-63211163D01*
X147920659Y-63164302D01*
X147855512Y-63129480D01*
X147800388Y-63112758D01*
X147806312Y-63052611D01*
X147806312Y-62590667D01*
X147855512Y-62575742D01*
X147920659Y-62540920D01*
X147977760Y-62494059D01*
X148024621Y-62436958D01*
X148059443Y-62371811D01*
X148080886Y-62301124D01*
X148088126Y-62227611D01*
X148088126Y-61577611D01*
X148080886Y-61504098D01*
X148059443Y-61433411D01*
X148024621Y-61368264D01*
X147977760Y-61311163D01*
X147920659Y-61264302D01*
X147855512Y-61229480D01*
X147784825Y-61208037D01*
X147711312Y-61200797D01*
X147707434Y-61200797D01*
X147696477Y-61187446D01*
X147406814Y-60897783D01*
X147406814Y-60859613D01*
X147500812Y-60953611D01*
X147931312Y-60955430D01*
X148005021Y-60948170D01*
X148075897Y-60926670D01*
X148141217Y-60891756D01*
X148198470Y-60844769D01*
X148245457Y-60787516D01*
X148280371Y-60722196D01*
X148301871Y-60651320D01*
X148308107Y-60588009D01*
X148358029Y-60681406D01*
X148434426Y-60774497D01*
X148527517Y-60850894D01*
X148531312Y-60852923D01*
X148531313Y-61380780D01*
X148503181Y-61433411D01*
X148481738Y-61504098D01*
X148474498Y-61577611D01*
X148474498Y-62227611D01*
X148481738Y-62301124D01*
X148503181Y-62371811D01*
X148505714Y-62376550D01*
X148502253Y-62383026D01*
X148480753Y-62453902D01*
X148473493Y-62527611D01*
X148475312Y-62758111D01*
X148569312Y-62852111D01*
X149380812Y-62852111D01*
X149380812Y-62832111D01*
X149381812Y-62832111D01*
X149381812Y-62852111D01*
X149401812Y-62852111D01*
X149401812Y-62853111D01*
X149381812Y-62853111D01*
X149381812Y-62873111D01*
X149380812Y-62873111D01*
X149380812Y-62853111D01*
X148569312Y-62853111D01*
X148475312Y-62947111D01*
X148473493Y-63177611D01*
X148480753Y-63251320D01*
X148502253Y-63322196D01*
X148505714Y-63328672D01*
X148503181Y-63333411D01*
X148481738Y-63404098D01*
X148474498Y-63477611D01*
X148474498Y-64127611D01*
X148481738Y-64201124D01*
X148503181Y-64271811D01*
X148538003Y-64336958D01*
X148584864Y-64394059D01*
X148641965Y-64440920D01*
X148707112Y-64475742D01*
X148777799Y-64497185D01*
X148851312Y-64504425D01*
X149911312Y-64504425D01*
X149984825Y-64497185D01*
X150055512Y-64475742D01*
X150120659Y-64440920D01*
X150136876Y-64427611D01*
X150141303Y-64427611D01*
X150171997Y-64430634D01*
X150202691Y-64427611D01*
X150202701Y-64427611D01*
X150294518Y-64418568D01*
X150412331Y-64382830D01*
X150520908Y-64324794D01*
X150616077Y-64246691D01*
X150635655Y-64222835D01*
X150656312Y-64202178D01*
X150656312Y-65852611D01*
X150663518Y-65925770D01*
X150684857Y-65996117D01*
X150719511Y-66060950D01*
X150766147Y-66117776D01*
X151766147Y-67117776D01*
X151822973Y-67164412D01*
X151887806Y-67199066D01*
X151958153Y-67220405D01*
X152031312Y-67227611D01*
X153084053Y-67227611D01*
X155656312Y-69616137D01*
X155656312Y-70421094D01*
X155648412Y-70415815D01*
X155507371Y-70357394D01*
X155357643Y-70327611D01*
X155204981Y-70327611D01*
X155055253Y-70357394D01*
X154914212Y-70415815D01*
X154787278Y-70500629D01*
X154679330Y-70608577D01*
X154594516Y-70735511D01*
X154536095Y-70876552D01*
X154506312Y-71026280D01*
X154506312Y-71178942D01*
X154536095Y-71328670D01*
X154594516Y-71469711D01*
X154679330Y-71596645D01*
X154685296Y-71602611D01*
X154679330Y-71608577D01*
X154594516Y-71735511D01*
X154536095Y-71876552D01*
X154506312Y-72026280D01*
X154506312Y-72178942D01*
X154536095Y-72328670D01*
X154594516Y-72469711D01*
X154679330Y-72596645D01*
X154685296Y-72602611D01*
X154679330Y-72608577D01*
X154594516Y-72735511D01*
X154536095Y-72876552D01*
X154506312Y-73026280D01*
X154506312Y-73178942D01*
X154536095Y-73328670D01*
X154594516Y-73469711D01*
X154679330Y-73596645D01*
X154685296Y-73602611D01*
X154679330Y-73608577D01*
X154594516Y-73735511D01*
X154536095Y-73876552D01*
X154506312Y-74026280D01*
X154506312Y-74178942D01*
X154536095Y-74328670D01*
X154594516Y-74469711D01*
X154679330Y-74596645D01*
X154787278Y-74704593D01*
X154914212Y-74789407D01*
X155055253Y-74847828D01*
X155204981Y-74877611D01*
X155357643Y-74877611D01*
X155507371Y-74847828D01*
X155648412Y-74789407D01*
X155775346Y-74704593D01*
X155883294Y-74596645D01*
X155968108Y-74469711D01*
X156026529Y-74328670D01*
X156056312Y-74178942D01*
X156056312Y-74026280D01*
X156026529Y-73876552D01*
X156005191Y-73825038D01*
X156031312Y-73827611D01*
X158831312Y-73827611D01*
X158904471Y-73820405D01*
X158974818Y-73799066D01*
X159039651Y-73764412D01*
X159096477Y-73717776D01*
X159143113Y-73660950D01*
X159177767Y-73596117D01*
X159199106Y-73525770D01*
X159206312Y-73452611D01*
X159206312Y-72352611D01*
X160935296Y-72352611D01*
X161037278Y-72454593D01*
X161164212Y-72539407D01*
X161305253Y-72597828D01*
X161454981Y-72627611D01*
X161607643Y-72627611D01*
X161757371Y-72597828D01*
X161898412Y-72539407D01*
X162025346Y-72454593D01*
X162133294Y-72346645D01*
X162218108Y-72219711D01*
X162276529Y-72078670D01*
X162306312Y-71928942D01*
X162306312Y-71776280D01*
X162276529Y-71626552D01*
X162218108Y-71485511D01*
X162133294Y-71358577D01*
X162127328Y-71352611D01*
X162133294Y-71346645D01*
X162218108Y-71219711D01*
X162276529Y-71078670D01*
X162306312Y-70928942D01*
X162306312Y-70776280D01*
X162276529Y-70626552D01*
X162218108Y-70485511D01*
X162133294Y-70358577D01*
X162025346Y-70250629D01*
X161898412Y-70165815D01*
X161757371Y-70107394D01*
X161607643Y-70077611D01*
X161454981Y-70077611D01*
X161305253Y-70107394D01*
X161164212Y-70165815D01*
X161037278Y-70250629D01*
X160935296Y-70352611D01*
X158920126Y-70352611D01*
X158920126Y-70221611D01*
X158912886Y-70148098D01*
X158899610Y-70104333D01*
X158913871Y-70057320D01*
X158921131Y-69983611D01*
X158919312Y-69697111D01*
X158825312Y-69603111D01*
X157781812Y-69603111D01*
X157781812Y-69623111D01*
X157780812Y-69623111D01*
X157780812Y-69603111D01*
X157760812Y-69603111D01*
X157760812Y-69602111D01*
X157780812Y-69602111D01*
X157780812Y-68939611D01*
X157781812Y-68939611D01*
X157781812Y-69602111D01*
X158825312Y-69602111D01*
X158919312Y-69508111D01*
X158921131Y-69221611D01*
X158913871Y-69147902D01*
X158892371Y-69077026D01*
X158857457Y-69011706D01*
X158810470Y-68954453D01*
X158753217Y-68907466D01*
X158687897Y-68872552D01*
X158617021Y-68851052D01*
X158543312Y-68843792D01*
X157875812Y-68845611D01*
X157781812Y-68939611D01*
X157780812Y-68939611D01*
X157686812Y-68845611D01*
X157406312Y-68844847D01*
X157406312Y-68233611D01*
X160641493Y-68233611D01*
X160648753Y-68307320D01*
X160670253Y-68378196D01*
X160705167Y-68443516D01*
X160752154Y-68500769D01*
X160809407Y-68547756D01*
X160874727Y-68582670D01*
X160945603Y-68604170D01*
X161019312Y-68611430D01*
X161686812Y-68609611D01*
X161780812Y-68515611D01*
X161780812Y-67853111D01*
X161781812Y-67853111D01*
X161781812Y-68515611D01*
X161875812Y-68609611D01*
X162543312Y-68611430D01*
X162617021Y-68604170D01*
X162687897Y-68582670D01*
X162753217Y-68547756D01*
X162810470Y-68500769D01*
X162857457Y-68443516D01*
X162892371Y-68378196D01*
X162913871Y-68307320D01*
X162921131Y-68233611D01*
X162919312Y-67947111D01*
X162825312Y-67853111D01*
X161781812Y-67853111D01*
X161780812Y-67853111D01*
X160737312Y-67853111D01*
X160643312Y-67947111D01*
X160641493Y-68233611D01*
X157406312Y-68233611D01*
X157406312Y-67627611D01*
X158631312Y-67627611D01*
X158704471Y-67620405D01*
X158774818Y-67599066D01*
X158839651Y-67564412D01*
X158896477Y-67517776D01*
X158943113Y-67460950D01*
X158977767Y-67396117D01*
X158999106Y-67325770D01*
X159006312Y-67252611D01*
X159006312Y-66432611D01*
X159057603Y-66448170D01*
X159131312Y-66455430D01*
X159561812Y-66453611D01*
X159655812Y-66359611D01*
X159655812Y-65603111D01*
X159656812Y-65603111D01*
X159656812Y-66359611D01*
X159750812Y-66453611D01*
X160181312Y-66455430D01*
X160255021Y-66448170D01*
X160325897Y-66426670D01*
X160391217Y-66391756D01*
X160448470Y-66344769D01*
X160495457Y-66287516D01*
X160530371Y-66222196D01*
X160551871Y-66151320D01*
X160559131Y-66077611D01*
X160557312Y-65697111D01*
X160463312Y-65603111D01*
X159656812Y-65603111D01*
X159655812Y-65603111D01*
X159635812Y-65603111D01*
X159635812Y-65602111D01*
X159655812Y-65602111D01*
X159655812Y-64845611D01*
X159656812Y-64845611D01*
X159656812Y-65602111D01*
X160463312Y-65602111D01*
X160557312Y-65508111D01*
X160559131Y-65127611D01*
X160551871Y-65053902D01*
X160530371Y-64983026D01*
X160495457Y-64917706D01*
X160448470Y-64860453D01*
X160391217Y-64813466D01*
X160325897Y-64778552D01*
X160255021Y-64757052D01*
X160181312Y-64749792D01*
X159750812Y-64751611D01*
X159656812Y-64845611D01*
X159655812Y-64845611D01*
X159561812Y-64751611D01*
X159131312Y-64749792D01*
X159057603Y-64757052D01*
X159006312Y-64772611D01*
X159006312Y-64277669D01*
X159038003Y-64336958D01*
X159084864Y-64394059D01*
X159141965Y-64440920D01*
X159207112Y-64475742D01*
X159277799Y-64497185D01*
X159351312Y-64504425D01*
X160411312Y-64504425D01*
X160484825Y-64497185D01*
X160555512Y-64475742D01*
X160620659Y-64440920D01*
X160636876Y-64427611D01*
X160841465Y-64427611D01*
X160859426Y-64449497D01*
X160952517Y-64525894D01*
X161058724Y-64582663D01*
X161156313Y-64612266D01*
X161156312Y-66094797D01*
X161019312Y-66094797D01*
X160945799Y-66102037D01*
X160875112Y-66123480D01*
X160809965Y-66158302D01*
X160752864Y-66205163D01*
X160706003Y-66262264D01*
X160671181Y-66327411D01*
X160649738Y-66398098D01*
X160642498Y-66471611D01*
X160642498Y-67233611D01*
X160649738Y-67307124D01*
X160663014Y-67350889D01*
X160648753Y-67397902D01*
X160641493Y-67471611D01*
X160643312Y-67758111D01*
X160737312Y-67852111D01*
X161780812Y-67852111D01*
X161780812Y-67832111D01*
X161781812Y-67832111D01*
X161781812Y-67852111D01*
X162825312Y-67852111D01*
X162919312Y-67758111D01*
X162921131Y-67471611D01*
X162913871Y-67397902D01*
X162899610Y-67350889D01*
X162912886Y-67307124D01*
X162920126Y-67233611D01*
X162920126Y-66471611D01*
X162912886Y-66398098D01*
X162891443Y-66327411D01*
X162856621Y-66262264D01*
X162809760Y-66205163D01*
X162752659Y-66158302D01*
X162687512Y-66123480D01*
X162616825Y-66102037D01*
X162543312Y-66094797D01*
X162406312Y-66094797D01*
X162406312Y-64008304D01*
X162409335Y-63977610D01*
X162406312Y-63946916D01*
X162406312Y-63946907D01*
X162397269Y-63855090D01*
X162383126Y-63808467D01*
X162383126Y-63582903D01*
X162667503Y-63298526D01*
X162686586Y-63282865D01*
X162749068Y-63206730D01*
X162795497Y-63119868D01*
X162815899Y-63052611D01*
X162824087Y-63025619D01*
X162833741Y-62927601D01*
X162831322Y-62903041D01*
X162831322Y-58302181D01*
X162833741Y-58277621D01*
X162824087Y-58179603D01*
X162811599Y-58138436D01*
X162795497Y-58085354D01*
X162749068Y-57998492D01*
X162686586Y-57922357D01*
X162667503Y-57906696D01*
X161977241Y-57216435D01*
X161961576Y-57197347D01*
X161885441Y-57134865D01*
X161798579Y-57088436D01*
X161704329Y-57059846D01*
X161630872Y-57052611D01*
X161606312Y-57050192D01*
X161581752Y-57052611D01*
X160621712Y-57052611D01*
X160579595Y-56973816D01*
X160503198Y-56880725D01*
X160479577Y-56861340D01*
X160516217Y-56841756D01*
X160573470Y-56794769D01*
X160620457Y-56737516D01*
X160655371Y-56672196D01*
X160676871Y-56601320D01*
X160684131Y-56527611D01*
X160682312Y-56147111D01*
X160588312Y-56053111D01*
X159781812Y-56053111D01*
X159781812Y-56073111D01*
X159780812Y-56073111D01*
X159780812Y-56053111D01*
X159760812Y-56053111D01*
X159760812Y-56052111D01*
X159780812Y-56052111D01*
X159780812Y-55295611D01*
X159781812Y-55295611D01*
X159781812Y-56052111D01*
X160588312Y-56052111D01*
X160682312Y-55958111D01*
X160684131Y-55577611D01*
X160676871Y-55503902D01*
X160655371Y-55433026D01*
X160620457Y-55367706D01*
X160573470Y-55310453D01*
X160516217Y-55263466D01*
X160450897Y-55228552D01*
X160380021Y-55207052D01*
X160306312Y-55199792D01*
X159875812Y-55201611D01*
X159781812Y-55295611D01*
X159780812Y-55295611D01*
X159686812Y-55201611D01*
X159256312Y-55199792D01*
X159182603Y-55207052D01*
X159111727Y-55228552D01*
X159046407Y-55263466D01*
X158989154Y-55310453D01*
X158942167Y-55367706D01*
X158907253Y-55433026D01*
X158885753Y-55503902D01*
X158879517Y-55567213D01*
X158829595Y-55473816D01*
X158753198Y-55380725D01*
X158660107Y-55304328D01*
X158553900Y-55247559D01*
X158531312Y-55240707D01*
X158531312Y-51167756D01*
X158533731Y-51143198D01*
X158530321Y-51108577D01*
X158524077Y-51045182D01*
X158495487Y-50950932D01*
X158449058Y-50864070D01*
X158386576Y-50787935D01*
X158367493Y-50772274D01*
X156511653Y-48916435D01*
X156495988Y-48897347D01*
X156419853Y-48834865D01*
X156332991Y-48788436D01*
X156238741Y-48759846D01*
X156165284Y-48752611D01*
X156140724Y-48750192D01*
X156116164Y-48752611D01*
X152655872Y-48752611D01*
X152631312Y-48750192D01*
X152606752Y-48752611D01*
X152533295Y-48759846D01*
X152439045Y-48788436D01*
X152352183Y-48834865D01*
X152276048Y-48897347D01*
X152260387Y-48916430D01*
X148549206Y-52627612D01*
X147776739Y-52627612D01*
X147806312Y-52478942D01*
X147806312Y-52326280D01*
X147776529Y-52176552D01*
X147718108Y-52035511D01*
X147633294Y-51908577D01*
X147525346Y-51800629D01*
X147398412Y-51715815D01*
X147257371Y-51657394D01*
X147107643Y-51627611D01*
X146954981Y-51627611D01*
X146805253Y-51657394D01*
X146664212Y-51715815D01*
X146537278Y-51800629D01*
X146435296Y-51902611D01*
X145038419Y-51902611D01*
X142052241Y-48916435D01*
X142036576Y-48897347D01*
X141960441Y-48834865D01*
X141873579Y-48788436D01*
X141779329Y-48759846D01*
X141705872Y-48752611D01*
X141681312Y-48750192D01*
X141656752Y-48752611D01*
X137905872Y-48752611D01*
X137881312Y-48750192D01*
X137856752Y-48752611D01*
X137783295Y-48759846D01*
X137689045Y-48788436D01*
X137602183Y-48834865D01*
X137526048Y-48897347D01*
X137510392Y-48916424D01*
X134695136Y-51731682D01*
X134676048Y-51747347D01*
X134613566Y-51823482D01*
X134567137Y-51910345D01*
X134565478Y-51915815D01*
X134538547Y-52004594D01*
X134528893Y-52102611D01*
X134531312Y-52127171D01*
X134531313Y-61020506D01*
X133902241Y-60391435D01*
X133886576Y-60372347D01*
X133875561Y-60363308D01*
X133871322Y-60320264D01*
X133836364Y-60205023D01*
X133779595Y-60098816D01*
X133703198Y-60005725D01*
X133610107Y-59929328D01*
X133516710Y-59879406D01*
X133580021Y-59873170D01*
X133650897Y-59851670D01*
X133716217Y-59816756D01*
X133773470Y-59769769D01*
X133820457Y-59712516D01*
X133855371Y-59647196D01*
X133876871Y-59576320D01*
X133884131Y-59502611D01*
X133882312Y-59072111D01*
X133788312Y-58978111D01*
X133031812Y-58978111D01*
X133031812Y-58998111D01*
X133030812Y-58998111D01*
X133030812Y-58978111D01*
X132274312Y-58978111D01*
X132180312Y-59072111D01*
X132178493Y-59502611D01*
X132185753Y-59576320D01*
X132207253Y-59647196D01*
X132242167Y-59712516D01*
X132289154Y-59769769D01*
X132346407Y-59816756D01*
X132411727Y-59851670D01*
X132482603Y-59873170D01*
X132545914Y-59879406D01*
X132452517Y-59929328D01*
X132359426Y-60005725D01*
X132283029Y-60098816D01*
X132226260Y-60205023D01*
X132191302Y-60320264D01*
X132179498Y-60440111D01*
X132179498Y-61015111D01*
X132191302Y-61134958D01*
X132226260Y-61250199D01*
X132283029Y-61356406D01*
X132300423Y-61377601D01*
X132085372Y-61377601D01*
X132060812Y-61375182D01*
X132036252Y-61377601D01*
X131962795Y-61384836D01*
X131868545Y-61413426D01*
X131781683Y-61459855D01*
X131705548Y-61522337D01*
X131689891Y-61541415D01*
X131358134Y-61873174D01*
X131339047Y-61888838D01*
X131276565Y-61964973D01*
X131230136Y-62051836D01*
X131218422Y-62090453D01*
X131201546Y-62146085D01*
X131191892Y-62244102D01*
X130931312Y-62244102D01*
X130931312Y-58452611D01*
X132178493Y-58452611D01*
X132180312Y-58883111D01*
X132274312Y-58977111D01*
X133030812Y-58977111D01*
X133030812Y-58170611D01*
X133031812Y-58170611D01*
X133031812Y-58977111D01*
X133788312Y-58977111D01*
X133882312Y-58883111D01*
X133884131Y-58452611D01*
X133876871Y-58378902D01*
X133855371Y-58308026D01*
X133820457Y-58242706D01*
X133773470Y-58185453D01*
X133716217Y-58138466D01*
X133650897Y-58103552D01*
X133580021Y-58082052D01*
X133506312Y-58074792D01*
X133125812Y-58076611D01*
X133031812Y-58170611D01*
X133030812Y-58170611D01*
X132936812Y-58076611D01*
X132556312Y-58074792D01*
X132482603Y-58082052D01*
X132411727Y-58103552D01*
X132346407Y-58138466D01*
X132289154Y-58185453D01*
X132242167Y-58242706D01*
X132207253Y-58308026D01*
X132185753Y-58378902D01*
X132178493Y-58452611D01*
X130931312Y-58452611D01*
X130931312Y-51120076D01*
X131006499Y-50260680D01*
X131225238Y-49444337D01*
X131582411Y-48678378D01*
X132041074Y-48023338D01*
X141832982Y-48023338D01*
X141833235Y-48059592D01*
X141832982Y-48095846D01*
X141833527Y-48101405D01*
X141853928Y-48295501D01*
X141861217Y-48331009D01*
X141868011Y-48366625D01*
X141869626Y-48371972D01*
X141927338Y-48558410D01*
X141941376Y-48591807D01*
X141954967Y-48625445D01*
X141957589Y-48630376D01*
X142050414Y-48802053D01*
X142070692Y-48832117D01*
X142090539Y-48862446D01*
X142094069Y-48866774D01*
X142218473Y-49017152D01*
X142244199Y-49042699D01*
X142269563Y-49068600D01*
X142273866Y-49072160D01*
X142425108Y-49195510D01*
X142455300Y-49215569D01*
X142485219Y-49236055D01*
X142490132Y-49238711D01*
X142662454Y-49330336D01*
X142695952Y-49344143D01*
X142729294Y-49358433D01*
X142734629Y-49360085D01*
X142921466Y-49416494D01*
X142957029Y-49423536D01*
X142992490Y-49431073D01*
X142998044Y-49431657D01*
X143192278Y-49450702D01*
X143192282Y-49450702D01*
X143211665Y-49452611D01*
X150850959Y-49452611D01*
X150871326Y-49450605D01*
X150884307Y-49450605D01*
X150889862Y-49450021D01*
X151083811Y-49428266D01*
X151119268Y-49420729D01*
X151154838Y-49413686D01*
X151160173Y-49412035D01*
X151346204Y-49353022D01*
X151379531Y-49338738D01*
X151413043Y-49324925D01*
X151417952Y-49322270D01*
X151417957Y-49322268D01*
X151417961Y-49322265D01*
X151588981Y-49228246D01*
X151618878Y-49207775D01*
X151649090Y-49187702D01*
X151653394Y-49184142D01*
X151802900Y-49058692D01*
X151828280Y-49032775D01*
X151853991Y-49007243D01*
X151857521Y-49002915D01*
X151979812Y-48850815D01*
X151999673Y-48820464D01*
X152019935Y-48790425D01*
X152022557Y-48785494D01*
X152112977Y-48612538D01*
X152126556Y-48578929D01*
X152140608Y-48545500D01*
X152142222Y-48540153D01*
X152197325Y-48352928D01*
X152204116Y-48317326D01*
X152211408Y-48281805D01*
X152211953Y-48276246D01*
X152229642Y-48081885D01*
X152229389Y-48045630D01*
X152229642Y-48009376D01*
X152229097Y-48003817D01*
X152208696Y-47809720D01*
X152201404Y-47774199D01*
X152194613Y-47738597D01*
X152192999Y-47733254D01*
X152192998Y-47733248D01*
X152192996Y-47733242D01*
X152135286Y-47546812D01*
X152121254Y-47513432D01*
X152107657Y-47479777D01*
X152105035Y-47474846D01*
X152012210Y-47303169D01*
X151991932Y-47273105D01*
X151972085Y-47242776D01*
X151968555Y-47238448D01*
X151844151Y-47088070D01*
X151818425Y-47062523D01*
X151793061Y-47036622D01*
X151788758Y-47033062D01*
X151637516Y-46909712D01*
X151607342Y-46889665D01*
X151577406Y-46869167D01*
X151572493Y-46866511D01*
X151400170Y-46774886D01*
X151366672Y-46761079D01*
X151333330Y-46746789D01*
X151327995Y-46745137D01*
X151141159Y-46688728D01*
X151105574Y-46681682D01*
X151070134Y-46674149D01*
X151064579Y-46673565D01*
X150870346Y-46654520D01*
X150870342Y-46654520D01*
X150850959Y-46652611D01*
X143211665Y-46652611D01*
X143191298Y-46654617D01*
X143178317Y-46654617D01*
X143172762Y-46655201D01*
X142978812Y-46676956D01*
X142943348Y-46684494D01*
X142907786Y-46691536D01*
X142902451Y-46693187D01*
X142716421Y-46752200D01*
X142683107Y-46766478D01*
X142649581Y-46780297D01*
X142644668Y-46782953D01*
X142473643Y-46876976D01*
X142443746Y-46897447D01*
X142413534Y-46917520D01*
X142409234Y-46921078D01*
X142409229Y-46921081D01*
X142409225Y-46921085D01*
X142259724Y-47046530D01*
X142234344Y-47072447D01*
X142208633Y-47097979D01*
X142205103Y-47102307D01*
X142082812Y-47254407D01*
X142062961Y-47284743D01*
X142042689Y-47314797D01*
X142040067Y-47319729D01*
X141949647Y-47492684D01*
X141936068Y-47526293D01*
X141922016Y-47559722D01*
X141920402Y-47565069D01*
X141865299Y-47752295D01*
X141858509Y-47787889D01*
X141851216Y-47823417D01*
X141850671Y-47828976D01*
X141832982Y-48023338D01*
X132041074Y-48023338D01*
X132067168Y-47986073D01*
X132664775Y-47388466D01*
X133357076Y-46903711D01*
X134123037Y-46546538D01*
X134939382Y-46327798D01*
X135798777Y-46252611D01*
X158263847Y-46252611D01*
X159123243Y-46327798D01*
G36*
X135756312Y-67552611D02*
G01*
X135763518Y-67625770D01*
X135784857Y-67696117D01*
X135819511Y-67760950D01*
X135866147Y-67817776D01*
X136956312Y-68907941D01*
X136956312Y-75352611D01*
X136963518Y-75425770D01*
X136984857Y-75496117D01*
X137019511Y-75560950D01*
X137066147Y-75617776D01*
X137122973Y-75664412D01*
X137187806Y-75699066D01*
X137258153Y-75720405D01*
X137331312Y-75727611D01*
X137821727Y-75727611D01*
X137914212Y-75789407D01*
X138055253Y-75847828D01*
X138204981Y-75877611D01*
X138357643Y-75877611D01*
X138507371Y-75847828D01*
X138648412Y-75789407D01*
X138740897Y-75727611D01*
X139031312Y-75727611D01*
X139104471Y-75720405D01*
X139174818Y-75699066D01*
X139239651Y-75664412D01*
X139296477Y-75617776D01*
X139343113Y-75560950D01*
X139377767Y-75496117D01*
X139399106Y-75425770D01*
X139406312Y-75352611D01*
X139406312Y-74495584D01*
X139436498Y-74520357D01*
X139523360Y-74566786D01*
X139617547Y-74595357D01*
X139617610Y-74595376D01*
X139684666Y-74601981D01*
X139787278Y-74704593D01*
X139914212Y-74789407D01*
X140055253Y-74847828D01*
X140204981Y-74877611D01*
X140357643Y-74877611D01*
X140507371Y-74847828D01*
X140648412Y-74789407D01*
X140775346Y-74704593D01*
X140883294Y-74596645D01*
X140956323Y-74487349D01*
X140956323Y-74797909D01*
X139651622Y-76102611D01*
X136031312Y-76102611D01*
X136031312Y-75860425D01*
X136293312Y-75860425D01*
X136366825Y-75853185D01*
X136437512Y-75831742D01*
X136502659Y-75796920D01*
X136559760Y-75750059D01*
X136606621Y-75692958D01*
X136641443Y-75627811D01*
X136662886Y-75557124D01*
X136670126Y-75483611D01*
X136670126Y-74721611D01*
X136662886Y-74648098D01*
X136649087Y-74602611D01*
X136662886Y-74557124D01*
X136670126Y-74483611D01*
X136670126Y-73721611D01*
X136662886Y-73648098D01*
X136649087Y-73602611D01*
X136662886Y-73557124D01*
X136670126Y-73483611D01*
X136670126Y-72721611D01*
X136662886Y-72648098D01*
X136649610Y-72604333D01*
X136663871Y-72557320D01*
X136671131Y-72483611D01*
X136669312Y-72197111D01*
X136575312Y-72103111D01*
X135531812Y-72103111D01*
X135531812Y-72123111D01*
X135530812Y-72123111D01*
X135530812Y-72103111D01*
X135510812Y-72103111D01*
X135510812Y-72102111D01*
X135530812Y-72102111D01*
X135530812Y-71439611D01*
X135531812Y-71439611D01*
X135531812Y-72102111D01*
X136575312Y-72102111D01*
X136669312Y-72008111D01*
X136671131Y-71721611D01*
X136663871Y-71647902D01*
X136642371Y-71577026D01*
X136607457Y-71511706D01*
X136560470Y-71454453D01*
X136503217Y-71407466D01*
X136437897Y-71372552D01*
X136367021Y-71351052D01*
X136293312Y-71343792D01*
X135625812Y-71345611D01*
X135531812Y-71439611D01*
X135530812Y-71439611D01*
X135436812Y-71345611D01*
X134931312Y-71344233D01*
X134931312Y-70477160D01*
X134933730Y-70452610D01*
X134931312Y-70428060D01*
X134931312Y-70428051D01*
X134924077Y-70354594D01*
X134895487Y-70260344D01*
X134849058Y-70173482D01*
X134786576Y-70097347D01*
X134767498Y-70081690D01*
X134402240Y-69716434D01*
X134386576Y-69697347D01*
X134310441Y-69634865D01*
X134223579Y-69588436D01*
X134129329Y-69559846D01*
X134055872Y-69552611D01*
X134031312Y-69550192D01*
X134006752Y-69552611D01*
X133233452Y-69552611D01*
X133273470Y-69519769D01*
X133320457Y-69462516D01*
X133355371Y-69397196D01*
X133376871Y-69326320D01*
X133384131Y-69252611D01*
X133382312Y-68822111D01*
X133288312Y-68728111D01*
X132531812Y-68728111D01*
X132531812Y-68748111D01*
X132530812Y-68748111D01*
X132530812Y-68728111D01*
X132510812Y-68728111D01*
X132510812Y-68727111D01*
X132530812Y-68727111D01*
X132530812Y-68707111D01*
X132531812Y-68707111D01*
X132531812Y-68727111D01*
X133288312Y-68727111D01*
X133382312Y-68633111D01*
X133384131Y-68202611D01*
X133376871Y-68128902D01*
X133355371Y-68058026D01*
X133320457Y-67992706D01*
X133273470Y-67935453D01*
X133216217Y-67888466D01*
X133150897Y-67853552D01*
X133080021Y-67832052D01*
X133016710Y-67825816D01*
X133110107Y-67775894D01*
X133203198Y-67699497D01*
X133279595Y-67606406D01*
X133310678Y-67548254D01*
X133318003Y-67561958D01*
X133364864Y-67619059D01*
X133421965Y-67665920D01*
X133487112Y-67700742D01*
X133557799Y-67722185D01*
X133631312Y-67729425D01*
X135431312Y-67729425D01*
X135504825Y-67722185D01*
X135575512Y-67700742D01*
X135640659Y-67665920D01*
X135697760Y-67619059D01*
X135744621Y-67561958D01*
X135756312Y-67540086D01*
X135756312Y-67552611D01*
G37*
X135756312Y-67552611D02*
X135763518Y-67625770D01*
X135784857Y-67696117D01*
X135819511Y-67760950D01*
X135866147Y-67817776D01*
X136956312Y-68907941D01*
X136956312Y-75352611D01*
X136963518Y-75425770D01*
X136984857Y-75496117D01*
X137019511Y-75560950D01*
X137066147Y-75617776D01*
X137122973Y-75664412D01*
X137187806Y-75699066D01*
X137258153Y-75720405D01*
X137331312Y-75727611D01*
X137821727Y-75727611D01*
X137914212Y-75789407D01*
X138055253Y-75847828D01*
X138204981Y-75877611D01*
X138357643Y-75877611D01*
X138507371Y-75847828D01*
X138648412Y-75789407D01*
X138740897Y-75727611D01*
X139031312Y-75727611D01*
X139104471Y-75720405D01*
X139174818Y-75699066D01*
X139239651Y-75664412D01*
X139296477Y-75617776D01*
X139343113Y-75560950D01*
X139377767Y-75496117D01*
X139399106Y-75425770D01*
X139406312Y-75352611D01*
X139406312Y-74495584D01*
X139436498Y-74520357D01*
X139523360Y-74566786D01*
X139617547Y-74595357D01*
X139617610Y-74595376D01*
X139684666Y-74601981D01*
X139787278Y-74704593D01*
X139914212Y-74789407D01*
X140055253Y-74847828D01*
X140204981Y-74877611D01*
X140357643Y-74877611D01*
X140507371Y-74847828D01*
X140648412Y-74789407D01*
X140775346Y-74704593D01*
X140883294Y-74596645D01*
X140956323Y-74487349D01*
X140956323Y-74797909D01*
X139651622Y-76102611D01*
X136031312Y-76102611D01*
X136031312Y-75860425D01*
X136293312Y-75860425D01*
X136366825Y-75853185D01*
X136437512Y-75831742D01*
X136502659Y-75796920D01*
X136559760Y-75750059D01*
X136606621Y-75692958D01*
X136641443Y-75627811D01*
X136662886Y-75557124D01*
X136670126Y-75483611D01*
X136670126Y-74721611D01*
X136662886Y-74648098D01*
X136649087Y-74602611D01*
X136662886Y-74557124D01*
X136670126Y-74483611D01*
X136670126Y-73721611D01*
X136662886Y-73648098D01*
X136649087Y-73602611D01*
X136662886Y-73557124D01*
X136670126Y-73483611D01*
X136670126Y-72721611D01*
X136662886Y-72648098D01*
X136649610Y-72604333D01*
X136663871Y-72557320D01*
X136671131Y-72483611D01*
X136669312Y-72197111D01*
X136575312Y-72103111D01*
X135531812Y-72103111D01*
X135531812Y-72123111D01*
X135530812Y-72123111D01*
X135530812Y-72103111D01*
X135510812Y-72103111D01*
X135510812Y-72102111D01*
X135530812Y-72102111D01*
X135530812Y-71439611D01*
X135531812Y-71439611D01*
X135531812Y-72102111D01*
X136575312Y-72102111D01*
X136669312Y-72008111D01*
X136671131Y-71721611D01*
X136663871Y-71647902D01*
X136642371Y-71577026D01*
X136607457Y-71511706D01*
X136560470Y-71454453D01*
X136503217Y-71407466D01*
X136437897Y-71372552D01*
X136367021Y-71351052D01*
X136293312Y-71343792D01*
X135625812Y-71345611D01*
X135531812Y-71439611D01*
X135530812Y-71439611D01*
X135436812Y-71345611D01*
X134931312Y-71344233D01*
X134931312Y-70477160D01*
X134933730Y-70452610D01*
X134931312Y-70428060D01*
X134931312Y-70428051D01*
X134924077Y-70354594D01*
X134895487Y-70260344D01*
X134849058Y-70173482D01*
X134786576Y-70097347D01*
X134767498Y-70081690D01*
X134402240Y-69716434D01*
X134386576Y-69697347D01*
X134310441Y-69634865D01*
X134223579Y-69588436D01*
X134129329Y-69559846D01*
X134055872Y-69552611D01*
X134031312Y-69550192D01*
X134006752Y-69552611D01*
X133233452Y-69552611D01*
X133273470Y-69519769D01*
X133320457Y-69462516D01*
X133355371Y-69397196D01*
X133376871Y-69326320D01*
X133384131Y-69252611D01*
X133382312Y-68822111D01*
X133288312Y-68728111D01*
X132531812Y-68728111D01*
X132531812Y-68748111D01*
X132530812Y-68748111D01*
X132530812Y-68728111D01*
X132510812Y-68728111D01*
X132510812Y-68727111D01*
X132530812Y-68727111D01*
X132530812Y-68707111D01*
X132531812Y-68707111D01*
X132531812Y-68727111D01*
X133288312Y-68727111D01*
X133382312Y-68633111D01*
X133384131Y-68202611D01*
X133376871Y-68128902D01*
X133355371Y-68058026D01*
X133320457Y-67992706D01*
X133273470Y-67935453D01*
X133216217Y-67888466D01*
X133150897Y-67853552D01*
X133080021Y-67832052D01*
X133016710Y-67825816D01*
X133110107Y-67775894D01*
X133203198Y-67699497D01*
X133279595Y-67606406D01*
X133310678Y-67548254D01*
X133318003Y-67561958D01*
X133364864Y-67619059D01*
X133421965Y-67665920D01*
X133487112Y-67700742D01*
X133557799Y-67722185D01*
X133631312Y-67729425D01*
X135431312Y-67729425D01*
X135504825Y-67722185D01*
X135575512Y-67700742D01*
X135640659Y-67665920D01*
X135697760Y-67619059D01*
X135744621Y-67561958D01*
X135756312Y-67540086D01*
X135756312Y-67552611D01*
G36*
X134878973Y-63418789D02*
G01*
X134911050Y-63457875D01*
X134930138Y-63473540D01*
X134932395Y-63475797D01*
X133631312Y-63475797D01*
X133557799Y-63483037D01*
X133487112Y-63504480D01*
X133421965Y-63539302D01*
X133364864Y-63586163D01*
X133318003Y-63643264D01*
X133283181Y-63708411D01*
X133261738Y-63779098D01*
X133257521Y-63821918D01*
X133203198Y-63755725D01*
X133110107Y-63679328D01*
X133016710Y-63629406D01*
X133080021Y-63623170D01*
X133150897Y-63601670D01*
X133216217Y-63566756D01*
X133273470Y-63519769D01*
X133320457Y-63462516D01*
X133355371Y-63397196D01*
X133376871Y-63326320D01*
X133384131Y-63252611D01*
X133382312Y-62822111D01*
X133288312Y-62728111D01*
X132531812Y-62728111D01*
X132531812Y-62748111D01*
X132530812Y-62748111D01*
X132530812Y-62728111D01*
X132510812Y-62728111D01*
X132510812Y-62727111D01*
X132530812Y-62727111D01*
X132530812Y-62707111D01*
X132531812Y-62707111D01*
X132531812Y-62727111D01*
X133288312Y-62727111D01*
X133382312Y-62633111D01*
X133383392Y-62377601D01*
X133837787Y-62377601D01*
X134878973Y-63418789D01*
G37*
X134878973Y-63418789D02*
X134911050Y-63457875D01*
X134930138Y-63473540D01*
X134932395Y-63475797D01*
X133631312Y-63475797D01*
X133557799Y-63483037D01*
X133487112Y-63504480D01*
X133421965Y-63539302D01*
X133364864Y-63586163D01*
X133318003Y-63643264D01*
X133283181Y-63708411D01*
X133261738Y-63779098D01*
X133257521Y-63821918D01*
X133203198Y-63755725D01*
X133110107Y-63679328D01*
X133016710Y-63629406D01*
X133080021Y-63623170D01*
X133150897Y-63601670D01*
X133216217Y-63566756D01*
X133273470Y-63519769D01*
X133320457Y-63462516D01*
X133355371Y-63397196D01*
X133376871Y-63326320D01*
X133384131Y-63252611D01*
X133382312Y-62822111D01*
X133288312Y-62728111D01*
X132531812Y-62728111D01*
X132531812Y-62748111D01*
X132530812Y-62748111D01*
X132530812Y-62728111D01*
X132510812Y-62728111D01*
X132510812Y-62727111D01*
X132530812Y-62727111D01*
X132530812Y-62707111D01*
X132531812Y-62707111D01*
X132531812Y-62727111D01*
X133288312Y-62727111D01*
X133382312Y-62633111D01*
X133383392Y-62377601D01*
X133837787Y-62377601D01*
X134878973Y-63418789D01*
G36*
X160789154Y-62769769D02*
G01*
X160846407Y-62816756D01*
X160911727Y-62851670D01*
X160982603Y-62873170D01*
X161045914Y-62879406D01*
X160952517Y-62929328D01*
X160859426Y-63005725D01*
X160788457Y-63092202D01*
X160787312Y-62947111D01*
X160693312Y-62853111D01*
X159881812Y-62853111D01*
X159881812Y-62873111D01*
X159880812Y-62873111D01*
X159880812Y-62853111D01*
X159860812Y-62853111D01*
X159860812Y-62852111D01*
X159880812Y-62852111D01*
X159880812Y-62832111D01*
X159881812Y-62832111D01*
X159881812Y-62852111D01*
X160693312Y-62852111D01*
X160783069Y-62762354D01*
X160789154Y-62769769D01*
G37*
X160789154Y-62769769D02*
X160846407Y-62816756D01*
X160911727Y-62851670D01*
X160982603Y-62873170D01*
X161045914Y-62879406D01*
X160952517Y-62929328D01*
X160859426Y-63005725D01*
X160788457Y-63092202D01*
X160787312Y-62947111D01*
X160693312Y-62853111D01*
X159881812Y-62853111D01*
X159881812Y-62873111D01*
X159880812Y-62873111D01*
X159880812Y-62853111D01*
X159860812Y-62853111D01*
X159860812Y-62852111D01*
X159880812Y-62852111D01*
X159880812Y-62832111D01*
X159881812Y-62832111D01*
X159881812Y-62852111D01*
X160693312Y-62852111D01*
X160783069Y-62762354D01*
X160789154Y-62769769D01*
G36*
X142644312Y-62527111D02*
G01*
X142664312Y-62527111D01*
X142664312Y-62528111D01*
X142644312Y-62528111D01*
X142644312Y-62548111D01*
X142643312Y-62548111D01*
X142643312Y-62528111D01*
X142623312Y-62528111D01*
X142623312Y-62527111D01*
X142643312Y-62527111D01*
X142643312Y-62507111D01*
X142644312Y-62507111D01*
X142644312Y-62527111D01*
G37*
X142644312Y-62527111D02*
X142664312Y-62527111D01*
X142664312Y-62528111D01*
X142644312Y-62528111D01*
X142644312Y-62548111D01*
X142643312Y-62548111D01*
X142643312Y-62528111D01*
X142623312Y-62528111D01*
X142623312Y-62527111D01*
X142643312Y-62527111D01*
X142643312Y-62507111D01*
X142644312Y-62507111D01*
X142644312Y-62527111D01*
G36*
X155036095Y-50376552D02*
G01*
X155006312Y-50526280D01*
X155006312Y-50678942D01*
X155036095Y-50828670D01*
X155094516Y-50969711D01*
X155179330Y-51096645D01*
X155287278Y-51204593D01*
X155414212Y-51289407D01*
X155555253Y-51347828D01*
X155579299Y-51352611D01*
X155555253Y-51357394D01*
X155414212Y-51415815D01*
X155287278Y-51500629D01*
X155179330Y-51608577D01*
X155094516Y-51735511D01*
X155036095Y-51876552D01*
X155006312Y-52026280D01*
X155006312Y-52178942D01*
X155036095Y-52328670D01*
X155094516Y-52469711D01*
X155179330Y-52596645D01*
X155287278Y-52704593D01*
X155414212Y-52789407D01*
X155555253Y-52847828D01*
X155704981Y-52877611D01*
X155857643Y-52877611D01*
X156007371Y-52847828D01*
X156148412Y-52789407D01*
X156275346Y-52704593D01*
X156383294Y-52596645D01*
X156468108Y-52469711D01*
X156526529Y-52328670D01*
X156556312Y-52178942D01*
X156556312Y-52034717D01*
X156842500Y-51748530D01*
X156861577Y-51732874D01*
X156924059Y-51656739D01*
X156970488Y-51569877D01*
X156999078Y-51475627D01*
X157006313Y-51402170D01*
X157006313Y-51402161D01*
X157008731Y-51377611D01*
X157006313Y-51353061D01*
X157006313Y-50825306D01*
X157531312Y-51350305D01*
X157531313Y-55240707D01*
X157508724Y-55247559D01*
X157402517Y-55304328D01*
X157309426Y-55380725D01*
X157233029Y-55473816D01*
X157176260Y-55580023D01*
X157141302Y-55695264D01*
X157129498Y-55815111D01*
X157129498Y-56290111D01*
X157141302Y-56409958D01*
X157176260Y-56525199D01*
X157233029Y-56631406D01*
X157309426Y-56724497D01*
X157402517Y-56800894D01*
X157405729Y-56802611D01*
X157402517Y-56804328D01*
X157309426Y-56880725D01*
X157233029Y-56973816D01*
X157176260Y-57080023D01*
X157141302Y-57195264D01*
X157129498Y-57315111D01*
X157129498Y-57790111D01*
X157141302Y-57909958D01*
X157176260Y-58025199D01*
X157233029Y-58131406D01*
X157309426Y-58224497D01*
X157402517Y-58300894D01*
X157508724Y-58357663D01*
X157623965Y-58392621D01*
X157743812Y-58404425D01*
X158318812Y-58404425D01*
X158438659Y-58392621D01*
X158553900Y-58357663D01*
X158660107Y-58300894D01*
X158753198Y-58224497D01*
X158829595Y-58131406D01*
X158886364Y-58025199D01*
X158906312Y-57959439D01*
X158926260Y-58025199D01*
X158983029Y-58131406D01*
X159059426Y-58224497D01*
X159152517Y-58300894D01*
X159258724Y-58357663D01*
X159373965Y-58392621D01*
X159493812Y-58404425D01*
X160068812Y-58404425D01*
X160188659Y-58392621D01*
X160303900Y-58357663D01*
X160410107Y-58300894D01*
X160503198Y-58224497D01*
X160579595Y-58131406D01*
X160621712Y-58052611D01*
X161399207Y-58052611D01*
X161831323Y-58484728D01*
X161831322Y-61075629D01*
X161625812Y-61076611D01*
X161531812Y-61170611D01*
X161531812Y-61977111D01*
X161551812Y-61977111D01*
X161551812Y-61978111D01*
X161531812Y-61978111D01*
X161531812Y-61998111D01*
X161530812Y-61998111D01*
X161530812Y-61978111D01*
X161510812Y-61978111D01*
X161510812Y-61977111D01*
X161530812Y-61977111D01*
X161530812Y-61170611D01*
X161436812Y-61076611D01*
X161056312Y-61074792D01*
X160982603Y-61082052D01*
X160911727Y-61103552D01*
X160846407Y-61138466D01*
X160789154Y-61185453D01*
X160742167Y-61242706D01*
X160707253Y-61308026D01*
X160698599Y-61336555D01*
X160677760Y-61311163D01*
X160620659Y-61264302D01*
X160555512Y-61229480D01*
X160484825Y-61208037D01*
X160411312Y-61200797D01*
X159351312Y-61200797D01*
X159277799Y-61208037D01*
X159207112Y-61229480D01*
X159141965Y-61264302D01*
X159084864Y-61311163D01*
X159038003Y-61368264D01*
X159003181Y-61433411D01*
X158981738Y-61504098D01*
X158974498Y-61577611D01*
X158974498Y-62216654D01*
X158898412Y-62165815D01*
X158757371Y-62107394D01*
X158607643Y-62077611D01*
X158588126Y-62077611D01*
X158588126Y-61577611D01*
X158580886Y-61504098D01*
X158559443Y-61433411D01*
X158524621Y-61368264D01*
X158477760Y-61311163D01*
X158420659Y-61264302D01*
X158355512Y-61229480D01*
X158284825Y-61208037D01*
X158211312Y-61200797D01*
X158181312Y-61200797D01*
X158181312Y-60954425D01*
X158318812Y-60954425D01*
X158438659Y-60942621D01*
X158553900Y-60907663D01*
X158660107Y-60850894D01*
X158753198Y-60774497D01*
X158829595Y-60681406D01*
X158879517Y-60588009D01*
X158885753Y-60651320D01*
X158907253Y-60722196D01*
X158942167Y-60787516D01*
X158989154Y-60844769D01*
X159046407Y-60891756D01*
X159111727Y-60926670D01*
X159182603Y-60948170D01*
X159256312Y-60955430D01*
X159686812Y-60953611D01*
X159780812Y-60859611D01*
X159780812Y-60103111D01*
X159781812Y-60103111D01*
X159781812Y-60859611D01*
X159875812Y-60953611D01*
X160306312Y-60955430D01*
X160380021Y-60948170D01*
X160450897Y-60926670D01*
X160516217Y-60891756D01*
X160573470Y-60844769D01*
X160620457Y-60787516D01*
X160655371Y-60722196D01*
X160676871Y-60651320D01*
X160684131Y-60577611D01*
X160682312Y-60197111D01*
X160588312Y-60103111D01*
X159781812Y-60103111D01*
X159780812Y-60103111D01*
X159760812Y-60103111D01*
X159760812Y-60102111D01*
X159780812Y-60102111D01*
X159780812Y-59345611D01*
X159781812Y-59345611D01*
X159781812Y-60102111D01*
X160588312Y-60102111D01*
X160682312Y-60008111D01*
X160684131Y-59627611D01*
X160676871Y-59553902D01*
X160655371Y-59483026D01*
X160620457Y-59417706D01*
X160573470Y-59360453D01*
X160516217Y-59313466D01*
X160450897Y-59278552D01*
X160380021Y-59257052D01*
X160306312Y-59249792D01*
X159875812Y-59251611D01*
X159781812Y-59345611D01*
X159780812Y-59345611D01*
X159686812Y-59251611D01*
X159256312Y-59249792D01*
X159182603Y-59257052D01*
X159111727Y-59278552D01*
X159046407Y-59313466D01*
X158989154Y-59360453D01*
X158942167Y-59417706D01*
X158907253Y-59483026D01*
X158885753Y-59553902D01*
X158879517Y-59617213D01*
X158829595Y-59523816D01*
X158753198Y-59430725D01*
X158660107Y-59354328D01*
X158553900Y-59297559D01*
X158438659Y-59262601D01*
X158318812Y-59250797D01*
X157743812Y-59250797D01*
X157623965Y-59262601D01*
X157508724Y-59297559D01*
X157402517Y-59354328D01*
X157309426Y-59430725D01*
X157233029Y-59523816D01*
X157176260Y-59630023D01*
X157141302Y-59745264D01*
X157129498Y-59865111D01*
X157129498Y-60340111D01*
X157141302Y-60459958D01*
X157153340Y-60499641D01*
X157104471Y-60484817D01*
X157031312Y-60477611D01*
X156645528Y-60477611D01*
X156646681Y-60424811D01*
X156639421Y-60351102D01*
X156617921Y-60280226D01*
X156615957Y-60276551D01*
X156616993Y-60274612D01*
X156638436Y-60203925D01*
X156645676Y-60130412D01*
X156645676Y-59774812D01*
X156638436Y-59701299D01*
X156616993Y-59630612D01*
X156582171Y-59565465D01*
X156535310Y-59508364D01*
X156478209Y-59461503D01*
X156413062Y-59426681D01*
X156342375Y-59405238D01*
X156268862Y-59397998D01*
X154606312Y-59397998D01*
X154606312Y-59252611D01*
X154599106Y-59179452D01*
X154577767Y-59109105D01*
X154543113Y-59044272D01*
X154496477Y-58987446D01*
X154439651Y-58940810D01*
X154374818Y-58906156D01*
X154304471Y-58884817D01*
X154231312Y-58877611D01*
X152231312Y-58877611D01*
X152158153Y-58884817D01*
X152087806Y-58906156D01*
X152022973Y-58940810D01*
X151966147Y-58987446D01*
X151927152Y-59026441D01*
X151926048Y-59027347D01*
X151925142Y-59028451D01*
X151477152Y-59476441D01*
X151476048Y-59477347D01*
X151475142Y-59478451D01*
X150766147Y-60187446D01*
X150719511Y-60244272D01*
X150684857Y-60309105D01*
X150663518Y-60379452D01*
X150656312Y-60452611D01*
X150656312Y-61324886D01*
X150651646Y-61322392D01*
X150533833Y-61286654D01*
X150442016Y-61277611D01*
X150442006Y-61277611D01*
X150411312Y-61274588D01*
X150380618Y-61277611D01*
X150136876Y-61277611D01*
X150120659Y-61264302D01*
X150055512Y-61229480D01*
X149984825Y-61208037D01*
X149911312Y-61200797D01*
X149781312Y-61200797D01*
X149781312Y-60852922D01*
X149785107Y-60850894D01*
X149878198Y-60774497D01*
X149954595Y-60681406D01*
X150011364Y-60575199D01*
X150046322Y-60459958D01*
X150058126Y-60340111D01*
X150058126Y-59865111D01*
X150046322Y-59745264D01*
X150011364Y-59630023D01*
X149954595Y-59523816D01*
X149878198Y-59430725D01*
X149785107Y-59354328D01*
X149678900Y-59297559D01*
X149563659Y-59262601D01*
X149443812Y-59250797D01*
X148868812Y-59250797D01*
X148748965Y-59262601D01*
X148633724Y-59297559D01*
X148527517Y-59354328D01*
X148434426Y-59430725D01*
X148358029Y-59523816D01*
X148308107Y-59617213D01*
X148301871Y-59553902D01*
X148280371Y-59483026D01*
X148245457Y-59417706D01*
X148198470Y-59360453D01*
X148141217Y-59313466D01*
X148075897Y-59278552D01*
X148005021Y-59257052D01*
X147931312Y-59249792D01*
X147500812Y-59251611D01*
X147406812Y-59345611D01*
X147406812Y-60102111D01*
X147426812Y-60102111D01*
X147426812Y-60103111D01*
X147406812Y-60103111D01*
X147406812Y-60123111D01*
X147405812Y-60123111D01*
X147405812Y-60103111D01*
X147385812Y-60103111D01*
X147385812Y-60102111D01*
X147405812Y-60102111D01*
X147405812Y-59345611D01*
X147311812Y-59251611D01*
X146881312Y-59249792D01*
X146807603Y-59257052D01*
X146736727Y-59278552D01*
X146671407Y-59313466D01*
X146614154Y-59360453D01*
X146567167Y-59417706D01*
X146532253Y-59483026D01*
X146510753Y-59553902D01*
X146503493Y-59627611D01*
X146505255Y-59996224D01*
X146496477Y-59987446D01*
X146439651Y-59940810D01*
X146374818Y-59906156D01*
X146304471Y-59884817D01*
X146231312Y-59877611D01*
X145231312Y-59877611D01*
X145158153Y-59884817D01*
X145087806Y-59906156D01*
X145022973Y-59940810D01*
X144966147Y-59987446D01*
X144919511Y-60044272D01*
X144884857Y-60109105D01*
X144863518Y-60179452D01*
X144856312Y-60252611D01*
X144856312Y-61075509D01*
X144625812Y-61076611D01*
X144531812Y-61170611D01*
X144531812Y-61977111D01*
X144551812Y-61977111D01*
X144551812Y-61978111D01*
X144531812Y-61978111D01*
X144531812Y-61998111D01*
X144530812Y-61998111D01*
X144530812Y-61978111D01*
X144510812Y-61978111D01*
X144510812Y-61977111D01*
X144530812Y-61977111D01*
X144530812Y-61170611D01*
X144436812Y-61076611D01*
X144056312Y-61074792D01*
X143982603Y-61082052D01*
X143911727Y-61103552D01*
X143846407Y-61138466D01*
X143789154Y-61185453D01*
X143758126Y-61223260D01*
X143758126Y-61127611D01*
X143748964Y-61034589D01*
X143721831Y-60945142D01*
X143704454Y-60912632D01*
X144767499Y-59849589D01*
X144786576Y-59833933D01*
X144849058Y-59757798D01*
X144895487Y-59670936D01*
X144924077Y-59576686D01*
X144931312Y-59503229D01*
X144933731Y-59478669D01*
X144931312Y-59454109D01*
X144931312Y-54359717D01*
X145138418Y-54152611D01*
X148843162Y-54152611D01*
X148867722Y-54155030D01*
X148892282Y-54152611D01*
X148965739Y-54145376D01*
X149059989Y-54116786D01*
X149146851Y-54070357D01*
X149222986Y-54007875D01*
X149238651Y-53988787D01*
X149701158Y-53526280D01*
X153006306Y-53526280D01*
X153006306Y-53678942D01*
X153036089Y-53828670D01*
X153094510Y-53969711D01*
X153179324Y-54096645D01*
X153185293Y-54102614D01*
X153179330Y-54108577D01*
X153094516Y-54235511D01*
X153036095Y-54376552D01*
X153006312Y-54526280D01*
X153006312Y-54678942D01*
X153036095Y-54828670D01*
X153094516Y-54969711D01*
X153179330Y-55096645D01*
X153287278Y-55204593D01*
X153414212Y-55289407D01*
X153555253Y-55347828D01*
X153704981Y-55377611D01*
X153857643Y-55377611D01*
X154007371Y-55347828D01*
X154148412Y-55289407D01*
X154275346Y-55204593D01*
X154383294Y-55096645D01*
X154468108Y-54969711D01*
X154526529Y-54828670D01*
X154556312Y-54678942D01*
X154556312Y-54526280D01*
X154526529Y-54376552D01*
X154468108Y-54235511D01*
X154383294Y-54108577D01*
X154377325Y-54102608D01*
X154383288Y-54096645D01*
X154468102Y-53969711D01*
X154526523Y-53828670D01*
X154556306Y-53678942D01*
X154556306Y-53526280D01*
X154526523Y-53376552D01*
X154468102Y-53235511D01*
X154383288Y-53108577D01*
X154377325Y-53102614D01*
X154383294Y-53096645D01*
X154468108Y-52969711D01*
X154526529Y-52828670D01*
X154556312Y-52678942D01*
X154556312Y-52526280D01*
X154526529Y-52376552D01*
X154468108Y-52235511D01*
X154383294Y-52108577D01*
X154377328Y-52102611D01*
X154383294Y-52096645D01*
X154468108Y-51969711D01*
X154526529Y-51828670D01*
X154556312Y-51678942D01*
X154556312Y-51526280D01*
X154526529Y-51376552D01*
X154468108Y-51235511D01*
X154383294Y-51108577D01*
X154275346Y-51000629D01*
X154148412Y-50915815D01*
X154007371Y-50857394D01*
X153857643Y-50827611D01*
X153704981Y-50827611D01*
X153555253Y-50857394D01*
X153414212Y-50915815D01*
X153287278Y-51000629D01*
X153179330Y-51108577D01*
X153094516Y-51235511D01*
X153036095Y-51376552D01*
X153006312Y-51526280D01*
X153006312Y-51678942D01*
X153036095Y-51828670D01*
X153094516Y-51969711D01*
X153179330Y-52096645D01*
X153185296Y-52102611D01*
X153179330Y-52108577D01*
X153094516Y-52235511D01*
X153036095Y-52376552D01*
X153006312Y-52526280D01*
X153006312Y-52678942D01*
X153036095Y-52828670D01*
X153094516Y-52969711D01*
X153179330Y-53096645D01*
X153185293Y-53102608D01*
X153179324Y-53108577D01*
X153094510Y-53235511D01*
X153036089Y-53376552D01*
X153006306Y-53526280D01*
X149701158Y-53526280D01*
X152974829Y-50252611D01*
X155087433Y-50252611D01*
X155036095Y-50376552D01*
G37*
X155036095Y-50376552D02*
X155006312Y-50526280D01*
X155006312Y-50678942D01*
X155036095Y-50828670D01*
X155094516Y-50969711D01*
X155179330Y-51096645D01*
X155287278Y-51204593D01*
X155414212Y-51289407D01*
X155555253Y-51347828D01*
X155579299Y-51352611D01*
X155555253Y-51357394D01*
X155414212Y-51415815D01*
X155287278Y-51500629D01*
X155179330Y-51608577D01*
X155094516Y-51735511D01*
X155036095Y-51876552D01*
X155006312Y-52026280D01*
X155006312Y-52178942D01*
X155036095Y-52328670D01*
X155094516Y-52469711D01*
X155179330Y-52596645D01*
X155287278Y-52704593D01*
X155414212Y-52789407D01*
X155555253Y-52847828D01*
X155704981Y-52877611D01*
X155857643Y-52877611D01*
X156007371Y-52847828D01*
X156148412Y-52789407D01*
X156275346Y-52704593D01*
X156383294Y-52596645D01*
X156468108Y-52469711D01*
X156526529Y-52328670D01*
X156556312Y-52178942D01*
X156556312Y-52034717D01*
X156842500Y-51748530D01*
X156861577Y-51732874D01*
X156924059Y-51656739D01*
X156970488Y-51569877D01*
X156999078Y-51475627D01*
X157006313Y-51402170D01*
X157006313Y-51402161D01*
X157008731Y-51377611D01*
X157006313Y-51353061D01*
X157006313Y-50825306D01*
X157531312Y-51350305D01*
X157531313Y-55240707D01*
X157508724Y-55247559D01*
X157402517Y-55304328D01*
X157309426Y-55380725D01*
X157233029Y-55473816D01*
X157176260Y-55580023D01*
X157141302Y-55695264D01*
X157129498Y-55815111D01*
X157129498Y-56290111D01*
X157141302Y-56409958D01*
X157176260Y-56525199D01*
X157233029Y-56631406D01*
X157309426Y-56724497D01*
X157402517Y-56800894D01*
X157405729Y-56802611D01*
X157402517Y-56804328D01*
X157309426Y-56880725D01*
X157233029Y-56973816D01*
X157176260Y-57080023D01*
X157141302Y-57195264D01*
X157129498Y-57315111D01*
X157129498Y-57790111D01*
X157141302Y-57909958D01*
X157176260Y-58025199D01*
X157233029Y-58131406D01*
X157309426Y-58224497D01*
X157402517Y-58300894D01*
X157508724Y-58357663D01*
X157623965Y-58392621D01*
X157743812Y-58404425D01*
X158318812Y-58404425D01*
X158438659Y-58392621D01*
X158553900Y-58357663D01*
X158660107Y-58300894D01*
X158753198Y-58224497D01*
X158829595Y-58131406D01*
X158886364Y-58025199D01*
X158906312Y-57959439D01*
X158926260Y-58025199D01*
X158983029Y-58131406D01*
X159059426Y-58224497D01*
X159152517Y-58300894D01*
X159258724Y-58357663D01*
X159373965Y-58392621D01*
X159493812Y-58404425D01*
X160068812Y-58404425D01*
X160188659Y-58392621D01*
X160303900Y-58357663D01*
X160410107Y-58300894D01*
X160503198Y-58224497D01*
X160579595Y-58131406D01*
X160621712Y-58052611D01*
X161399207Y-58052611D01*
X161831323Y-58484728D01*
X161831322Y-61075629D01*
X161625812Y-61076611D01*
X161531812Y-61170611D01*
X161531812Y-61977111D01*
X161551812Y-61977111D01*
X161551812Y-61978111D01*
X161531812Y-61978111D01*
X161531812Y-61998111D01*
X161530812Y-61998111D01*
X161530812Y-61978111D01*
X161510812Y-61978111D01*
X161510812Y-61977111D01*
X161530812Y-61977111D01*
X161530812Y-61170611D01*
X161436812Y-61076611D01*
X161056312Y-61074792D01*
X160982603Y-61082052D01*
X160911727Y-61103552D01*
X160846407Y-61138466D01*
X160789154Y-61185453D01*
X160742167Y-61242706D01*
X160707253Y-61308026D01*
X160698599Y-61336555D01*
X160677760Y-61311163D01*
X160620659Y-61264302D01*
X160555512Y-61229480D01*
X160484825Y-61208037D01*
X160411312Y-61200797D01*
X159351312Y-61200797D01*
X159277799Y-61208037D01*
X159207112Y-61229480D01*
X159141965Y-61264302D01*
X159084864Y-61311163D01*
X159038003Y-61368264D01*
X159003181Y-61433411D01*
X158981738Y-61504098D01*
X158974498Y-61577611D01*
X158974498Y-62216654D01*
X158898412Y-62165815D01*
X158757371Y-62107394D01*
X158607643Y-62077611D01*
X158588126Y-62077611D01*
X158588126Y-61577611D01*
X158580886Y-61504098D01*
X158559443Y-61433411D01*
X158524621Y-61368264D01*
X158477760Y-61311163D01*
X158420659Y-61264302D01*
X158355512Y-61229480D01*
X158284825Y-61208037D01*
X158211312Y-61200797D01*
X158181312Y-61200797D01*
X158181312Y-60954425D01*
X158318812Y-60954425D01*
X158438659Y-60942621D01*
X158553900Y-60907663D01*
X158660107Y-60850894D01*
X158753198Y-60774497D01*
X158829595Y-60681406D01*
X158879517Y-60588009D01*
X158885753Y-60651320D01*
X158907253Y-60722196D01*
X158942167Y-60787516D01*
X158989154Y-60844769D01*
X159046407Y-60891756D01*
X159111727Y-60926670D01*
X159182603Y-60948170D01*
X159256312Y-60955430D01*
X159686812Y-60953611D01*
X159780812Y-60859611D01*
X159780812Y-60103111D01*
X159781812Y-60103111D01*
X159781812Y-60859611D01*
X159875812Y-60953611D01*
X160306312Y-60955430D01*
X160380021Y-60948170D01*
X160450897Y-60926670D01*
X160516217Y-60891756D01*
X160573470Y-60844769D01*
X160620457Y-60787516D01*
X160655371Y-60722196D01*
X160676871Y-60651320D01*
X160684131Y-60577611D01*
X160682312Y-60197111D01*
X160588312Y-60103111D01*
X159781812Y-60103111D01*
X159780812Y-60103111D01*
X159760812Y-60103111D01*
X159760812Y-60102111D01*
X159780812Y-60102111D01*
X159780812Y-59345611D01*
X159781812Y-59345611D01*
X159781812Y-60102111D01*
X160588312Y-60102111D01*
X160682312Y-60008111D01*
X160684131Y-59627611D01*
X160676871Y-59553902D01*
X160655371Y-59483026D01*
X160620457Y-59417706D01*
X160573470Y-59360453D01*
X160516217Y-59313466D01*
X160450897Y-59278552D01*
X160380021Y-59257052D01*
X160306312Y-59249792D01*
X159875812Y-59251611D01*
X159781812Y-59345611D01*
X159780812Y-59345611D01*
X159686812Y-59251611D01*
X159256312Y-59249792D01*
X159182603Y-59257052D01*
X159111727Y-59278552D01*
X159046407Y-59313466D01*
X158989154Y-59360453D01*
X158942167Y-59417706D01*
X158907253Y-59483026D01*
X158885753Y-59553902D01*
X158879517Y-59617213D01*
X158829595Y-59523816D01*
X158753198Y-59430725D01*
X158660107Y-59354328D01*
X158553900Y-59297559D01*
X158438659Y-59262601D01*
X158318812Y-59250797D01*
X157743812Y-59250797D01*
X157623965Y-59262601D01*
X157508724Y-59297559D01*
X157402517Y-59354328D01*
X157309426Y-59430725D01*
X157233029Y-59523816D01*
X157176260Y-59630023D01*
X157141302Y-59745264D01*
X157129498Y-59865111D01*
X157129498Y-60340111D01*
X157141302Y-60459958D01*
X157153340Y-60499641D01*
X157104471Y-60484817D01*
X157031312Y-60477611D01*
X156645528Y-60477611D01*
X156646681Y-60424811D01*
X156639421Y-60351102D01*
X156617921Y-60280226D01*
X156615957Y-60276551D01*
X156616993Y-60274612D01*
X156638436Y-60203925D01*
X156645676Y-60130412D01*
X156645676Y-59774812D01*
X156638436Y-59701299D01*
X156616993Y-59630612D01*
X156582171Y-59565465D01*
X156535310Y-59508364D01*
X156478209Y-59461503D01*
X156413062Y-59426681D01*
X156342375Y-59405238D01*
X156268862Y-59397998D01*
X154606312Y-59397998D01*
X154606312Y-59252611D01*
X154599106Y-59179452D01*
X154577767Y-59109105D01*
X154543113Y-59044272D01*
X154496477Y-58987446D01*
X154439651Y-58940810D01*
X154374818Y-58906156D01*
X154304471Y-58884817D01*
X154231312Y-58877611D01*
X152231312Y-58877611D01*
X152158153Y-58884817D01*
X152087806Y-58906156D01*
X152022973Y-58940810D01*
X151966147Y-58987446D01*
X151927152Y-59026441D01*
X151926048Y-59027347D01*
X151925142Y-59028451D01*
X151477152Y-59476441D01*
X151476048Y-59477347D01*
X151475142Y-59478451D01*
X150766147Y-60187446D01*
X150719511Y-60244272D01*
X150684857Y-60309105D01*
X150663518Y-60379452D01*
X150656312Y-60452611D01*
X150656312Y-61324886D01*
X150651646Y-61322392D01*
X150533833Y-61286654D01*
X150442016Y-61277611D01*
X150442006Y-61277611D01*
X150411312Y-61274588D01*
X150380618Y-61277611D01*
X150136876Y-61277611D01*
X150120659Y-61264302D01*
X150055512Y-61229480D01*
X149984825Y-61208037D01*
X149911312Y-61200797D01*
X149781312Y-61200797D01*
X149781312Y-60852922D01*
X149785107Y-60850894D01*
X149878198Y-60774497D01*
X149954595Y-60681406D01*
X150011364Y-60575199D01*
X150046322Y-60459958D01*
X150058126Y-60340111D01*
X150058126Y-59865111D01*
X150046322Y-59745264D01*
X150011364Y-59630023D01*
X149954595Y-59523816D01*
X149878198Y-59430725D01*
X149785107Y-59354328D01*
X149678900Y-59297559D01*
X149563659Y-59262601D01*
X149443812Y-59250797D01*
X148868812Y-59250797D01*
X148748965Y-59262601D01*
X148633724Y-59297559D01*
X148527517Y-59354328D01*
X148434426Y-59430725D01*
X148358029Y-59523816D01*
X148308107Y-59617213D01*
X148301871Y-59553902D01*
X148280371Y-59483026D01*
X148245457Y-59417706D01*
X148198470Y-59360453D01*
X148141217Y-59313466D01*
X148075897Y-59278552D01*
X148005021Y-59257052D01*
X147931312Y-59249792D01*
X147500812Y-59251611D01*
X147406812Y-59345611D01*
X147406812Y-60102111D01*
X147426812Y-60102111D01*
X147426812Y-60103111D01*
X147406812Y-60103111D01*
X147406812Y-60123111D01*
X147405812Y-60123111D01*
X147405812Y-60103111D01*
X147385812Y-60103111D01*
X147385812Y-60102111D01*
X147405812Y-60102111D01*
X147405812Y-59345611D01*
X147311812Y-59251611D01*
X146881312Y-59249792D01*
X146807603Y-59257052D01*
X146736727Y-59278552D01*
X146671407Y-59313466D01*
X146614154Y-59360453D01*
X146567167Y-59417706D01*
X146532253Y-59483026D01*
X146510753Y-59553902D01*
X146503493Y-59627611D01*
X146505255Y-59996224D01*
X146496477Y-59987446D01*
X146439651Y-59940810D01*
X146374818Y-59906156D01*
X146304471Y-59884817D01*
X146231312Y-59877611D01*
X145231312Y-59877611D01*
X145158153Y-59884817D01*
X145087806Y-59906156D01*
X145022973Y-59940810D01*
X144966147Y-59987446D01*
X144919511Y-60044272D01*
X144884857Y-60109105D01*
X144863518Y-60179452D01*
X144856312Y-60252611D01*
X144856312Y-61075509D01*
X144625812Y-61076611D01*
X144531812Y-61170611D01*
X144531812Y-61977111D01*
X144551812Y-61977111D01*
X144551812Y-61978111D01*
X144531812Y-61978111D01*
X144531812Y-61998111D01*
X144530812Y-61998111D01*
X144530812Y-61978111D01*
X144510812Y-61978111D01*
X144510812Y-61977111D01*
X144530812Y-61977111D01*
X144530812Y-61170611D01*
X144436812Y-61076611D01*
X144056312Y-61074792D01*
X143982603Y-61082052D01*
X143911727Y-61103552D01*
X143846407Y-61138466D01*
X143789154Y-61185453D01*
X143758126Y-61223260D01*
X143758126Y-61127611D01*
X143748964Y-61034589D01*
X143721831Y-60945142D01*
X143704454Y-60912632D01*
X144767499Y-59849589D01*
X144786576Y-59833933D01*
X144849058Y-59757798D01*
X144895487Y-59670936D01*
X144924077Y-59576686D01*
X144931312Y-59503229D01*
X144933731Y-59478669D01*
X144931312Y-59454109D01*
X144931312Y-54359717D01*
X145138418Y-54152611D01*
X148843162Y-54152611D01*
X148867722Y-54155030D01*
X148892282Y-54152611D01*
X148965739Y-54145376D01*
X149059989Y-54116786D01*
X149146851Y-54070357D01*
X149222986Y-54007875D01*
X149238651Y-53988787D01*
X149701158Y-53526280D01*
X153006306Y-53526280D01*
X153006306Y-53678942D01*
X153036089Y-53828670D01*
X153094510Y-53969711D01*
X153179324Y-54096645D01*
X153185293Y-54102614D01*
X153179330Y-54108577D01*
X153094516Y-54235511D01*
X153036095Y-54376552D01*
X153006312Y-54526280D01*
X153006312Y-54678942D01*
X153036095Y-54828670D01*
X153094516Y-54969711D01*
X153179330Y-55096645D01*
X153287278Y-55204593D01*
X153414212Y-55289407D01*
X153555253Y-55347828D01*
X153704981Y-55377611D01*
X153857643Y-55377611D01*
X154007371Y-55347828D01*
X154148412Y-55289407D01*
X154275346Y-55204593D01*
X154383294Y-55096645D01*
X154468108Y-54969711D01*
X154526529Y-54828670D01*
X154556312Y-54678942D01*
X154556312Y-54526280D01*
X154526529Y-54376552D01*
X154468108Y-54235511D01*
X154383294Y-54108577D01*
X154377325Y-54102608D01*
X154383288Y-54096645D01*
X154468102Y-53969711D01*
X154526523Y-53828670D01*
X154556306Y-53678942D01*
X154556306Y-53526280D01*
X154526523Y-53376552D01*
X154468102Y-53235511D01*
X154383288Y-53108577D01*
X154377325Y-53102614D01*
X154383294Y-53096645D01*
X154468108Y-52969711D01*
X154526529Y-52828670D01*
X154556312Y-52678942D01*
X154556312Y-52526280D01*
X154526529Y-52376552D01*
X154468108Y-52235511D01*
X154383294Y-52108577D01*
X154377328Y-52102611D01*
X154383294Y-52096645D01*
X154468108Y-51969711D01*
X154526529Y-51828670D01*
X154556312Y-51678942D01*
X154556312Y-51526280D01*
X154526529Y-51376552D01*
X154468108Y-51235511D01*
X154383294Y-51108577D01*
X154275346Y-51000629D01*
X154148412Y-50915815D01*
X154007371Y-50857394D01*
X153857643Y-50827611D01*
X153704981Y-50827611D01*
X153555253Y-50857394D01*
X153414212Y-50915815D01*
X153287278Y-51000629D01*
X153179330Y-51108577D01*
X153094516Y-51235511D01*
X153036095Y-51376552D01*
X153006312Y-51526280D01*
X153006312Y-51678942D01*
X153036095Y-51828670D01*
X153094516Y-51969711D01*
X153179330Y-52096645D01*
X153185296Y-52102611D01*
X153179330Y-52108577D01*
X153094516Y-52235511D01*
X153036095Y-52376552D01*
X153006312Y-52526280D01*
X153006312Y-52678942D01*
X153036095Y-52828670D01*
X153094516Y-52969711D01*
X153179330Y-53096645D01*
X153185293Y-53102608D01*
X153179324Y-53108577D01*
X153094510Y-53235511D01*
X153036089Y-53376552D01*
X153006306Y-53526280D01*
X149701158Y-53526280D01*
X152974829Y-50252611D01*
X155087433Y-50252611D01*
X155036095Y-50376552D01*
G36*
X142143813Y-56106534D02*
G01*
X142143812Y-59350797D01*
X142006312Y-59350797D01*
X141913290Y-59359959D01*
X141823843Y-59387092D01*
X141741408Y-59431155D01*
X141669154Y-59490453D01*
X141609856Y-59562707D01*
X141565793Y-59645142D01*
X141538660Y-59734589D01*
X141529498Y-59827611D01*
X141529498Y-60027611D01*
X141538660Y-60120633D01*
X141565793Y-60210080D01*
X141588527Y-60252611D01*
X141565793Y-60295142D01*
X141538660Y-60384589D01*
X141529498Y-60477611D01*
X141529498Y-60677611D01*
X141538660Y-60770633D01*
X141565793Y-60860080D01*
X141583170Y-60892589D01*
X140306312Y-62169448D01*
X140306312Y-59454691D01*
X140561812Y-59453611D01*
X140655812Y-59359611D01*
X140655812Y-58603111D01*
X140656812Y-58603111D01*
X140656812Y-59359611D01*
X140750812Y-59453611D01*
X141181312Y-59455430D01*
X141255021Y-59448170D01*
X141325897Y-59426670D01*
X141391217Y-59391756D01*
X141448470Y-59344769D01*
X141495457Y-59287516D01*
X141530371Y-59222196D01*
X141551871Y-59151320D01*
X141559131Y-59077611D01*
X141557312Y-58697111D01*
X141463312Y-58603111D01*
X140656812Y-58603111D01*
X140655812Y-58603111D01*
X140635812Y-58603111D01*
X140635812Y-58602111D01*
X140655812Y-58602111D01*
X140655812Y-57845611D01*
X140656812Y-57845611D01*
X140656812Y-58602111D01*
X141463312Y-58602111D01*
X141557312Y-58508111D01*
X141559131Y-58127611D01*
X141551871Y-58053902D01*
X141530371Y-57983026D01*
X141495457Y-57917706D01*
X141448470Y-57860453D01*
X141391217Y-57813466D01*
X141325897Y-57778552D01*
X141255021Y-57757052D01*
X141181312Y-57749792D01*
X140750812Y-57751611D01*
X140656812Y-57845611D01*
X140655812Y-57845611D01*
X140561812Y-57751611D01*
X140306312Y-57750531D01*
X140306312Y-57552611D01*
X140299106Y-57479452D01*
X140277767Y-57409105D01*
X140243113Y-57344272D01*
X140196477Y-57287446D01*
X140139651Y-57240810D01*
X140074818Y-57206156D01*
X140004471Y-57184817D01*
X139931312Y-57177611D01*
X138031312Y-57177611D01*
X137958153Y-57184817D01*
X137887806Y-57206156D01*
X137822973Y-57240810D01*
X137766147Y-57287446D01*
X137719511Y-57344272D01*
X137684857Y-57409105D01*
X137663518Y-57479452D01*
X137656312Y-57552611D01*
X137656312Y-59362076D01*
X137649334Y-59359959D01*
X137556312Y-59350797D01*
X137418812Y-59350797D01*
X137418812Y-55106531D01*
X138008112Y-54517232D01*
X138006312Y-54526280D01*
X138006312Y-54678942D01*
X138036095Y-54828670D01*
X138094516Y-54969711D01*
X138179330Y-55096645D01*
X138287278Y-55204593D01*
X138414212Y-55289407D01*
X138555253Y-55347828D01*
X138704981Y-55377611D01*
X138857643Y-55377611D01*
X139007371Y-55347828D01*
X139148412Y-55289407D01*
X139275346Y-55204593D01*
X139383294Y-55096645D01*
X139468108Y-54969711D01*
X139526529Y-54828670D01*
X139556312Y-54678942D01*
X139556312Y-54526280D01*
X139526529Y-54376552D01*
X139468108Y-54235511D01*
X139383294Y-54108577D01*
X139377328Y-54102611D01*
X139383294Y-54096645D01*
X139468108Y-53969711D01*
X139526529Y-53828670D01*
X139556312Y-53678942D01*
X139556312Y-53526280D01*
X139554512Y-53517231D01*
X142143813Y-56106534D01*
G37*
X142143813Y-56106534D02*
X142143812Y-59350797D01*
X142006312Y-59350797D01*
X141913290Y-59359959D01*
X141823843Y-59387092D01*
X141741408Y-59431155D01*
X141669154Y-59490453D01*
X141609856Y-59562707D01*
X141565793Y-59645142D01*
X141538660Y-59734589D01*
X141529498Y-59827611D01*
X141529498Y-60027611D01*
X141538660Y-60120633D01*
X141565793Y-60210080D01*
X141588527Y-60252611D01*
X141565793Y-60295142D01*
X141538660Y-60384589D01*
X141529498Y-60477611D01*
X141529498Y-60677611D01*
X141538660Y-60770633D01*
X141565793Y-60860080D01*
X141583170Y-60892589D01*
X140306312Y-62169448D01*
X140306312Y-59454691D01*
X140561812Y-59453611D01*
X140655812Y-59359611D01*
X140655812Y-58603111D01*
X140656812Y-58603111D01*
X140656812Y-59359611D01*
X140750812Y-59453611D01*
X141181312Y-59455430D01*
X141255021Y-59448170D01*
X141325897Y-59426670D01*
X141391217Y-59391756D01*
X141448470Y-59344769D01*
X141495457Y-59287516D01*
X141530371Y-59222196D01*
X141551871Y-59151320D01*
X141559131Y-59077611D01*
X141557312Y-58697111D01*
X141463312Y-58603111D01*
X140656812Y-58603111D01*
X140655812Y-58603111D01*
X140635812Y-58603111D01*
X140635812Y-58602111D01*
X140655812Y-58602111D01*
X140655812Y-57845611D01*
X140656812Y-57845611D01*
X140656812Y-58602111D01*
X141463312Y-58602111D01*
X141557312Y-58508111D01*
X141559131Y-58127611D01*
X141551871Y-58053902D01*
X141530371Y-57983026D01*
X141495457Y-57917706D01*
X141448470Y-57860453D01*
X141391217Y-57813466D01*
X141325897Y-57778552D01*
X141255021Y-57757052D01*
X141181312Y-57749792D01*
X140750812Y-57751611D01*
X140656812Y-57845611D01*
X140655812Y-57845611D01*
X140561812Y-57751611D01*
X140306312Y-57750531D01*
X140306312Y-57552611D01*
X140299106Y-57479452D01*
X140277767Y-57409105D01*
X140243113Y-57344272D01*
X140196477Y-57287446D01*
X140139651Y-57240810D01*
X140074818Y-57206156D01*
X140004471Y-57184817D01*
X139931312Y-57177611D01*
X138031312Y-57177611D01*
X137958153Y-57184817D01*
X137887806Y-57206156D01*
X137822973Y-57240810D01*
X137766147Y-57287446D01*
X137719511Y-57344272D01*
X137684857Y-57409105D01*
X137663518Y-57479452D01*
X137656312Y-57552611D01*
X137656312Y-59362076D01*
X137649334Y-59359959D01*
X137556312Y-59350797D01*
X137418812Y-59350797D01*
X137418812Y-55106531D01*
X138008112Y-54517232D01*
X138006312Y-54526280D01*
X138006312Y-54678942D01*
X138036095Y-54828670D01*
X138094516Y-54969711D01*
X138179330Y-55096645D01*
X138287278Y-55204593D01*
X138414212Y-55289407D01*
X138555253Y-55347828D01*
X138704981Y-55377611D01*
X138857643Y-55377611D01*
X139007371Y-55347828D01*
X139148412Y-55289407D01*
X139275346Y-55204593D01*
X139383294Y-55096645D01*
X139468108Y-54969711D01*
X139526529Y-54828670D01*
X139556312Y-54678942D01*
X139556312Y-54526280D01*
X139526529Y-54376552D01*
X139468108Y-54235511D01*
X139383294Y-54108577D01*
X139377328Y-54102611D01*
X139383294Y-54096645D01*
X139468108Y-53969711D01*
X139526529Y-53828670D01*
X139556312Y-53678942D01*
X139556312Y-53526280D01*
X139554512Y-53517231D01*
X142143813Y-56106534D01*
G36*
X147405810Y-60896779D02*
G01*
X147387227Y-60878196D01*
X147405810Y-60859613D01*
X147405810Y-60896779D01*
G37*
X147405810Y-60896779D02*
X147387227Y-60878196D01*
X147405810Y-60859613D01*
X147405810Y-60896779D01*
G36*
X140036095Y-50376552D02*
G01*
X140006312Y-50526280D01*
X140006312Y-50678942D01*
X140036095Y-50828670D01*
X140094516Y-50969711D01*
X140179330Y-51096645D01*
X140287278Y-51204593D01*
X140414212Y-51289407D01*
X140555253Y-51347828D01*
X140579299Y-51352611D01*
X140555253Y-51357394D01*
X140414212Y-51415815D01*
X140287278Y-51500629D01*
X140179330Y-51608577D01*
X140094516Y-51735511D01*
X140036095Y-51876552D01*
X140006312Y-52026280D01*
X140006312Y-52178942D01*
X140036095Y-52328670D01*
X140094516Y-52469711D01*
X140179330Y-52596645D01*
X140287278Y-52704593D01*
X140414212Y-52789407D01*
X140555253Y-52847828D01*
X140704981Y-52877611D01*
X140857643Y-52877611D01*
X141007371Y-52847828D01*
X141148412Y-52789407D01*
X141275346Y-52704593D01*
X141383294Y-52596645D01*
X141468108Y-52469711D01*
X141526529Y-52328670D01*
X141556312Y-52178942D01*
X141556312Y-52026280D01*
X141526529Y-51876552D01*
X141468108Y-51735511D01*
X141383294Y-51608577D01*
X141275346Y-51500629D01*
X141148412Y-51415815D01*
X141007371Y-51357394D01*
X140983325Y-51352611D01*
X141007371Y-51347828D01*
X141148412Y-51289407D01*
X141275346Y-51204593D01*
X141383294Y-51096645D01*
X141468108Y-50969711D01*
X141526529Y-50828670D01*
X141556312Y-50678942D01*
X141556312Y-50526280D01*
X141543508Y-50461913D01*
X144479206Y-53397611D01*
X144095135Y-53781682D01*
X144076048Y-53797347D01*
X144013566Y-53873482D01*
X143967137Y-53960345D01*
X143952719Y-54007875D01*
X143938547Y-54054594D01*
X143928893Y-54152611D01*
X143931312Y-54177171D01*
X143931313Y-59271561D01*
X143660819Y-59542055D01*
X143618470Y-59490453D01*
X143546216Y-59431155D01*
X143463781Y-59387092D01*
X143374334Y-59359959D01*
X143281312Y-59350797D01*
X143143812Y-59350797D01*
X143143812Y-55923975D01*
X143146230Y-55899425D01*
X143143812Y-55874875D01*
X143143812Y-55874866D01*
X143136577Y-55801409D01*
X143107987Y-55707159D01*
X143061558Y-55620297D01*
X142999076Y-55544162D01*
X142979999Y-55528506D01*
X139717926Y-52266435D01*
X139702261Y-52247347D01*
X139626126Y-52184865D01*
X139539264Y-52138436D01*
X139445014Y-52109846D01*
X139377959Y-52103242D01*
X139377328Y-52102611D01*
X139383294Y-52096645D01*
X139468108Y-51969711D01*
X139526529Y-51828670D01*
X139556312Y-51678942D01*
X139556312Y-51526280D01*
X139526529Y-51376552D01*
X139468108Y-51235511D01*
X139383294Y-51108577D01*
X139275346Y-51000629D01*
X139148412Y-50915815D01*
X139007371Y-50857394D01*
X138857643Y-50827611D01*
X138704981Y-50827611D01*
X138555253Y-50857394D01*
X138414212Y-50915815D01*
X138287278Y-51000629D01*
X138179330Y-51108577D01*
X138094516Y-51235511D01*
X138036095Y-51376552D01*
X138006312Y-51526280D01*
X138006312Y-51678942D01*
X138036095Y-51828670D01*
X138094516Y-51969711D01*
X138179330Y-52096645D01*
X138185296Y-52102611D01*
X138179330Y-52108577D01*
X138094516Y-52235511D01*
X138036095Y-52376552D01*
X138006312Y-52526280D01*
X138006312Y-52678942D01*
X138036095Y-52828670D01*
X138094516Y-52969711D01*
X138179330Y-53096645D01*
X138185296Y-53102611D01*
X138184665Y-53103242D01*
X138117610Y-53109846D01*
X138023360Y-53138436D01*
X137936498Y-53184865D01*
X137860363Y-53247347D01*
X137844707Y-53266424D01*
X136582631Y-54528502D01*
X136563549Y-54544162D01*
X136501067Y-54620297D01*
X136454638Y-54707159D01*
X136426047Y-54801409D01*
X136416393Y-54899426D01*
X136418813Y-54923996D01*
X136418812Y-59350797D01*
X136281312Y-59350797D01*
X136188290Y-59359959D01*
X136098843Y-59387092D01*
X136031312Y-59423189D01*
X136031312Y-52559716D01*
X138338419Y-50252611D01*
X140087433Y-50252611D01*
X140036095Y-50376552D01*
G37*
X140036095Y-50376552D02*
X140006312Y-50526280D01*
X140006312Y-50678942D01*
X140036095Y-50828670D01*
X140094516Y-50969711D01*
X140179330Y-51096645D01*
X140287278Y-51204593D01*
X140414212Y-51289407D01*
X140555253Y-51347828D01*
X140579299Y-51352611D01*
X140555253Y-51357394D01*
X140414212Y-51415815D01*
X140287278Y-51500629D01*
X140179330Y-51608577D01*
X140094516Y-51735511D01*
X140036095Y-51876552D01*
X140006312Y-52026280D01*
X140006312Y-52178942D01*
X140036095Y-52328670D01*
X140094516Y-52469711D01*
X140179330Y-52596645D01*
X140287278Y-52704593D01*
X140414212Y-52789407D01*
X140555253Y-52847828D01*
X140704981Y-52877611D01*
X140857643Y-52877611D01*
X141007371Y-52847828D01*
X141148412Y-52789407D01*
X141275346Y-52704593D01*
X141383294Y-52596645D01*
X141468108Y-52469711D01*
X141526529Y-52328670D01*
X141556312Y-52178942D01*
X141556312Y-52026280D01*
X141526529Y-51876552D01*
X141468108Y-51735511D01*
X141383294Y-51608577D01*
X141275346Y-51500629D01*
X141148412Y-51415815D01*
X141007371Y-51357394D01*
X140983325Y-51352611D01*
X141007371Y-51347828D01*
X141148412Y-51289407D01*
X141275346Y-51204593D01*
X141383294Y-51096645D01*
X141468108Y-50969711D01*
X141526529Y-50828670D01*
X141556312Y-50678942D01*
X141556312Y-50526280D01*
X141543508Y-50461913D01*
X144479206Y-53397611D01*
X144095135Y-53781682D01*
X144076048Y-53797347D01*
X144013566Y-53873482D01*
X143967137Y-53960345D01*
X143952719Y-54007875D01*
X143938547Y-54054594D01*
X143928893Y-54152611D01*
X143931312Y-54177171D01*
X143931313Y-59271561D01*
X143660819Y-59542055D01*
X143618470Y-59490453D01*
X143546216Y-59431155D01*
X143463781Y-59387092D01*
X143374334Y-59359959D01*
X143281312Y-59350797D01*
X143143812Y-59350797D01*
X143143812Y-55923975D01*
X143146230Y-55899425D01*
X143143812Y-55874875D01*
X143143812Y-55874866D01*
X143136577Y-55801409D01*
X143107987Y-55707159D01*
X143061558Y-55620297D01*
X142999076Y-55544162D01*
X142979999Y-55528506D01*
X139717926Y-52266435D01*
X139702261Y-52247347D01*
X139626126Y-52184865D01*
X139539264Y-52138436D01*
X139445014Y-52109846D01*
X139377959Y-52103242D01*
X139377328Y-52102611D01*
X139383294Y-52096645D01*
X139468108Y-51969711D01*
X139526529Y-51828670D01*
X139556312Y-51678942D01*
X139556312Y-51526280D01*
X139526529Y-51376552D01*
X139468108Y-51235511D01*
X139383294Y-51108577D01*
X139275346Y-51000629D01*
X139148412Y-50915815D01*
X139007371Y-50857394D01*
X138857643Y-50827611D01*
X138704981Y-50827611D01*
X138555253Y-50857394D01*
X138414212Y-50915815D01*
X138287278Y-51000629D01*
X138179330Y-51108577D01*
X138094516Y-51235511D01*
X138036095Y-51376552D01*
X138006312Y-51526280D01*
X138006312Y-51678942D01*
X138036095Y-51828670D01*
X138094516Y-51969711D01*
X138179330Y-52096645D01*
X138185296Y-52102611D01*
X138179330Y-52108577D01*
X138094516Y-52235511D01*
X138036095Y-52376552D01*
X138006312Y-52526280D01*
X138006312Y-52678942D01*
X138036095Y-52828670D01*
X138094516Y-52969711D01*
X138179330Y-53096645D01*
X138185296Y-53102611D01*
X138184665Y-53103242D01*
X138117610Y-53109846D01*
X138023360Y-53138436D01*
X137936498Y-53184865D01*
X137860363Y-53247347D01*
X137844707Y-53266424D01*
X136582631Y-54528502D01*
X136563549Y-54544162D01*
X136501067Y-54620297D01*
X136454638Y-54707159D01*
X136426047Y-54801409D01*
X136416393Y-54899426D01*
X136418813Y-54923996D01*
X136418812Y-59350797D01*
X136281312Y-59350797D01*
X136188290Y-59359959D01*
X136098843Y-59387092D01*
X136031312Y-59423189D01*
X136031312Y-52559716D01*
X138338419Y-50252611D01*
X140087433Y-50252611D01*
X140036095Y-50376552D01*
%TO.N,VCC*%
G36*
X156906312Y-61293561D02*
G01*
X156884864Y-61311163D01*
X156838003Y-61368264D01*
X156803181Y-61433411D01*
X156781738Y-61504098D01*
X156774498Y-61577611D01*
X156774498Y-62227611D01*
X156781738Y-62301124D01*
X156803181Y-62371811D01*
X156838003Y-62436958D01*
X156884864Y-62494059D01*
X156906312Y-62511661D01*
X156906312Y-63193561D01*
X156884864Y-63211163D01*
X156838003Y-63268264D01*
X156803181Y-63333411D01*
X156781738Y-63404098D01*
X156774498Y-63477611D01*
X156774498Y-64127611D01*
X156781738Y-64201124D01*
X156803181Y-64271811D01*
X156838003Y-64336958D01*
X156884864Y-64394059D01*
X156906312Y-64411661D01*
X156906312Y-66327611D01*
X156704873Y-66327611D01*
X156691832Y-66323655D01*
X156620460Y-66316626D01*
X156639421Y-66254119D01*
X156646681Y-66180410D01*
X156644862Y-66097110D01*
X156550862Y-66003110D01*
X155418462Y-66003110D01*
X155418462Y-66023110D01*
X155417462Y-66023110D01*
X155417462Y-66003110D01*
X155397462Y-66003110D01*
X155397462Y-66002110D01*
X155417462Y-66002110D01*
X155417462Y-65982110D01*
X155418462Y-65982110D01*
X155418462Y-66002110D01*
X156550862Y-66002110D01*
X156644862Y-65908110D01*
X156646681Y-65824810D01*
X156639421Y-65751101D01*
X156617921Y-65680225D01*
X156615957Y-65676550D01*
X156616993Y-65674611D01*
X156638436Y-65603924D01*
X156645676Y-65530411D01*
X156645676Y-65174811D01*
X156638436Y-65101298D01*
X156616993Y-65030611D01*
X156615390Y-65027611D01*
X156616993Y-65024612D01*
X156638436Y-64953925D01*
X156645676Y-64880412D01*
X156645676Y-64524812D01*
X156638436Y-64451299D01*
X156616993Y-64380612D01*
X156582171Y-64315465D01*
X156535310Y-64258364D01*
X156478209Y-64211503D01*
X156413062Y-64176681D01*
X156342375Y-64155238D01*
X156268862Y-64147998D01*
X154567062Y-64147998D01*
X154493549Y-64155238D01*
X154422862Y-64176681D01*
X154357715Y-64211503D01*
X154356312Y-64212654D01*
X154356312Y-63556845D01*
X154398412Y-63539407D01*
X154525346Y-63454593D01*
X154633294Y-63346645D01*
X154718108Y-63219711D01*
X154776529Y-63078670D01*
X154806312Y-62928942D01*
X154806312Y-62776280D01*
X154776529Y-62626552D01*
X154718108Y-62485511D01*
X154633294Y-62358577D01*
X154525346Y-62250629D01*
X154398412Y-62165815D01*
X154356312Y-62148377D01*
X154356312Y-61743862D01*
X154357157Y-61744555D01*
X154422477Y-61779469D01*
X154493353Y-61800969D01*
X154567062Y-61808229D01*
X155323462Y-61806410D01*
X155417462Y-61712410D01*
X155417462Y-61253110D01*
X155418462Y-61253110D01*
X155418462Y-61712410D01*
X155512462Y-61806410D01*
X156268862Y-61808229D01*
X156342571Y-61800969D01*
X156413447Y-61779469D01*
X156478767Y-61744555D01*
X156536020Y-61697568D01*
X156583007Y-61640315D01*
X156617921Y-61574995D01*
X156639421Y-61504119D01*
X156646681Y-61430410D01*
X156644862Y-61347110D01*
X156550862Y-61253110D01*
X155418462Y-61253110D01*
X155417462Y-61253110D01*
X155397462Y-61253110D01*
X155397462Y-61252110D01*
X155417462Y-61252110D01*
X155417462Y-61232110D01*
X155418462Y-61232110D01*
X155418462Y-61252110D01*
X156550862Y-61252110D01*
X156644862Y-61158110D01*
X156646681Y-61074810D01*
X156642292Y-61030247D01*
X156660794Y-61020357D01*
X156712880Y-60977611D01*
X156906312Y-60977611D01*
X156906312Y-61293561D01*
G37*
X156906312Y-61293561D02*
X156884864Y-61311163D01*
X156838003Y-61368264D01*
X156803181Y-61433411D01*
X156781738Y-61504098D01*
X156774498Y-61577611D01*
X156774498Y-62227611D01*
X156781738Y-62301124D01*
X156803181Y-62371811D01*
X156838003Y-62436958D01*
X156884864Y-62494059D01*
X156906312Y-62511661D01*
X156906312Y-63193561D01*
X156884864Y-63211163D01*
X156838003Y-63268264D01*
X156803181Y-63333411D01*
X156781738Y-63404098D01*
X156774498Y-63477611D01*
X156774498Y-64127611D01*
X156781738Y-64201124D01*
X156803181Y-64271811D01*
X156838003Y-64336958D01*
X156884864Y-64394059D01*
X156906312Y-64411661D01*
X156906312Y-66327611D01*
X156704873Y-66327611D01*
X156691832Y-66323655D01*
X156620460Y-66316626D01*
X156639421Y-66254119D01*
X156646681Y-66180410D01*
X156644862Y-66097110D01*
X156550862Y-66003110D01*
X155418462Y-66003110D01*
X155418462Y-66023110D01*
X155417462Y-66023110D01*
X155417462Y-66003110D01*
X155397462Y-66003110D01*
X155397462Y-66002110D01*
X155417462Y-66002110D01*
X155417462Y-65982110D01*
X155418462Y-65982110D01*
X155418462Y-66002110D01*
X156550862Y-66002110D01*
X156644862Y-65908110D01*
X156646681Y-65824810D01*
X156639421Y-65751101D01*
X156617921Y-65680225D01*
X156615957Y-65676550D01*
X156616993Y-65674611D01*
X156638436Y-65603924D01*
X156645676Y-65530411D01*
X156645676Y-65174811D01*
X156638436Y-65101298D01*
X156616993Y-65030611D01*
X156615390Y-65027611D01*
X156616993Y-65024612D01*
X156638436Y-64953925D01*
X156645676Y-64880412D01*
X156645676Y-64524812D01*
X156638436Y-64451299D01*
X156616993Y-64380612D01*
X156582171Y-64315465D01*
X156535310Y-64258364D01*
X156478209Y-64211503D01*
X156413062Y-64176681D01*
X156342375Y-64155238D01*
X156268862Y-64147998D01*
X154567062Y-64147998D01*
X154493549Y-64155238D01*
X154422862Y-64176681D01*
X154357715Y-64211503D01*
X154356312Y-64212654D01*
X154356312Y-63556845D01*
X154398412Y-63539407D01*
X154525346Y-63454593D01*
X154633294Y-63346645D01*
X154718108Y-63219711D01*
X154776529Y-63078670D01*
X154806312Y-62928942D01*
X154806312Y-62776280D01*
X154776529Y-62626552D01*
X154718108Y-62485511D01*
X154633294Y-62358577D01*
X154525346Y-62250629D01*
X154398412Y-62165815D01*
X154356312Y-62148377D01*
X154356312Y-61743862D01*
X154357157Y-61744555D01*
X154422477Y-61779469D01*
X154493353Y-61800969D01*
X154567062Y-61808229D01*
X155323462Y-61806410D01*
X155417462Y-61712410D01*
X155417462Y-61253110D01*
X155418462Y-61253110D01*
X155418462Y-61712410D01*
X155512462Y-61806410D01*
X156268862Y-61808229D01*
X156342571Y-61800969D01*
X156413447Y-61779469D01*
X156478767Y-61744555D01*
X156536020Y-61697568D01*
X156583007Y-61640315D01*
X156617921Y-61574995D01*
X156639421Y-61504119D01*
X156646681Y-61430410D01*
X156644862Y-61347110D01*
X156550862Y-61253110D01*
X155418462Y-61253110D01*
X155417462Y-61253110D01*
X155397462Y-61253110D01*
X155397462Y-61252110D01*
X155417462Y-61252110D01*
X155417462Y-61232110D01*
X155418462Y-61232110D01*
X155418462Y-61252110D01*
X156550862Y-61252110D01*
X156644862Y-61158110D01*
X156646681Y-61074810D01*
X156642292Y-61030247D01*
X156660794Y-61020357D01*
X156712880Y-60977611D01*
X156906312Y-60977611D01*
X156906312Y-61293561D01*
%TO.N,+5V*%
G36*
X154106312Y-59415489D02*
G01*
X154069271Y-59404253D01*
X153995562Y-59396993D01*
X153363662Y-59398812D01*
X153269662Y-59492812D01*
X153269662Y-59899812D01*
X153289662Y-59899812D01*
X153289662Y-60005412D01*
X153269662Y-60005412D01*
X153269662Y-60047997D01*
X153019662Y-60047997D01*
X153019662Y-60005412D01*
X152011762Y-60005412D01*
X151917762Y-60099412D01*
X151915943Y-60130412D01*
X151920332Y-60174975D01*
X151901830Y-60184865D01*
X151825695Y-60247347D01*
X151810034Y-60266430D01*
X151632580Y-60443885D01*
X151613498Y-60459545D01*
X151551016Y-60535680D01*
X151515240Y-60602612D01*
X151504587Y-60622542D01*
X151475996Y-60716792D01*
X151466342Y-60814809D01*
X151468762Y-60839379D01*
X151468761Y-63765500D01*
X151468761Y-64214619D01*
X151468762Y-64214626D01*
X151468761Y-65115853D01*
X151466342Y-65140413D01*
X151475996Y-65238430D01*
X151481698Y-65257226D01*
X151504586Y-65332679D01*
X151551015Y-65419542D01*
X151613497Y-65495677D01*
X151632584Y-65511341D01*
X151810034Y-65688792D01*
X151825695Y-65707875D01*
X151901830Y-65770357D01*
X151920332Y-65780247D01*
X151915943Y-65824810D01*
X151917762Y-65855810D01*
X152011762Y-65949810D01*
X153019662Y-65949810D01*
X153019662Y-65907225D01*
X153269662Y-65907225D01*
X153269662Y-65949810D01*
X153289662Y-65949810D01*
X153289662Y-66055410D01*
X153269662Y-66055410D01*
X153269662Y-66462410D01*
X153363662Y-66556410D01*
X153873257Y-66557877D01*
X153884857Y-66596117D01*
X153919511Y-66660950D01*
X153966147Y-66717776D01*
X154022973Y-66764412D01*
X154087806Y-66799066D01*
X154158153Y-66820405D01*
X154231312Y-66827611D01*
X157031312Y-66827611D01*
X157104471Y-66820405D01*
X157174818Y-66799066D01*
X157239651Y-66764412D01*
X157296477Y-66717776D01*
X157343113Y-66660950D01*
X157377767Y-66596117D01*
X157399106Y-66525770D01*
X157406049Y-66455283D01*
X157687312Y-66453611D01*
X157781312Y-66359611D01*
X157781312Y-65727611D01*
X157761312Y-65727611D01*
X157761312Y-65477611D01*
X157781312Y-65477611D01*
X157781312Y-64845611D01*
X157687312Y-64751611D01*
X157406312Y-64749941D01*
X157406312Y-64503939D01*
X157462312Y-64503611D01*
X157556312Y-64409611D01*
X157556312Y-63927611D01*
X157536312Y-63927611D01*
X157536312Y-63677611D01*
X157556312Y-63677611D01*
X157556312Y-63657611D01*
X157806312Y-63657611D01*
X157806312Y-63677611D01*
X157826312Y-63677611D01*
X157826312Y-63927611D01*
X157806312Y-63927611D01*
X157806312Y-64409611D01*
X157900312Y-64503611D01*
X158211312Y-64505430D01*
X158285021Y-64498170D01*
X158355897Y-64476670D01*
X158421217Y-64441756D01*
X158478470Y-64394769D01*
X158506312Y-64360844D01*
X158506312Y-64757444D01*
X158505021Y-64757052D01*
X158431312Y-64749792D01*
X158125312Y-64751611D01*
X158031312Y-64845611D01*
X158031312Y-65477611D01*
X158051312Y-65477611D01*
X158051312Y-65727611D01*
X158031312Y-65727611D01*
X158031312Y-66359611D01*
X158125312Y-66453611D01*
X158431312Y-66455430D01*
X158505021Y-66448170D01*
X158506312Y-66447778D01*
X158506312Y-67127611D01*
X157031312Y-67127611D01*
X157006926Y-67130013D01*
X156983477Y-67137126D01*
X156961866Y-67148677D01*
X156942924Y-67164223D01*
X156927378Y-67183165D01*
X156915827Y-67204776D01*
X156908714Y-67228225D01*
X156906312Y-67252611D01*
X156906312Y-68864015D01*
X156875112Y-68873480D01*
X156809965Y-68908302D01*
X156752864Y-68955163D01*
X156706003Y-69012264D01*
X156671181Y-69077411D01*
X156649738Y-69148098D01*
X156642498Y-69221611D01*
X156642498Y-69983611D01*
X156649738Y-70057124D01*
X156663537Y-70102611D01*
X156649738Y-70148098D01*
X156642498Y-70221611D01*
X156642498Y-70983611D01*
X156649738Y-71057124D01*
X156663537Y-71102611D01*
X156649738Y-71148098D01*
X156642498Y-71221611D01*
X156642498Y-71983611D01*
X156649738Y-72057124D01*
X156663014Y-72100889D01*
X156648753Y-72147902D01*
X156641493Y-72221611D01*
X156643312Y-72383611D01*
X156737312Y-72477611D01*
X157656312Y-72477611D01*
X157656312Y-72457611D01*
X157906312Y-72457611D01*
X157906312Y-72477611D01*
X157926312Y-72477611D01*
X157926312Y-72727611D01*
X157906312Y-72727611D01*
X157906312Y-72747611D01*
X157656312Y-72747611D01*
X157656312Y-72727611D01*
X156737312Y-72727611D01*
X156643312Y-72821611D01*
X156641493Y-72983611D01*
X156648753Y-73057320D01*
X156670253Y-73128196D01*
X156705167Y-73193516D01*
X156752154Y-73250769D01*
X156809407Y-73297756D01*
X156865262Y-73327611D01*
X156156312Y-73327611D01*
X156156312Y-69452611D01*
X156153910Y-69428225D01*
X156146797Y-69404776D01*
X156135246Y-69383165D01*
X156116368Y-69361012D01*
X153316368Y-66761012D01*
X153296864Y-66746178D01*
X153274840Y-66735435D01*
X153251144Y-66729194D01*
X153231312Y-66727611D01*
X152083088Y-66727611D01*
X151535887Y-66180410D01*
X151915943Y-66180410D01*
X151923203Y-66254119D01*
X151944703Y-66324995D01*
X151979617Y-66390315D01*
X152026604Y-66447568D01*
X152083857Y-66494555D01*
X152149177Y-66529469D01*
X152220053Y-66550969D01*
X152293762Y-66558229D01*
X152925662Y-66556410D01*
X153019662Y-66462410D01*
X153019662Y-66055410D01*
X152011762Y-66055410D01*
X151917762Y-66149410D01*
X151915943Y-66180410D01*
X151535887Y-66180410D01*
X151156312Y-65800835D01*
X151156312Y-63593421D01*
X151172269Y-63540817D01*
X151181312Y-63449000D01*
X151181312Y-63448991D01*
X151184335Y-63418297D01*
X151181312Y-63387603D01*
X151181312Y-63312196D01*
X151243108Y-63219711D01*
X151301529Y-63078670D01*
X151331312Y-62928942D01*
X151331312Y-62776280D01*
X151301529Y-62626552D01*
X151243108Y-62485511D01*
X151181312Y-62393026D01*
X151181312Y-62078305D01*
X151184335Y-62047611D01*
X151181312Y-62016917D01*
X151181312Y-62016907D01*
X151172269Y-61925090D01*
X151156312Y-61872487D01*
X151156312Y-60504387D01*
X151919227Y-59741472D01*
X151915943Y-59774812D01*
X151917762Y-59805812D01*
X152011762Y-59899812D01*
X153019662Y-59899812D01*
X153019662Y-59492812D01*
X152925662Y-59398812D01*
X152293762Y-59396993D01*
X152260422Y-59400277D01*
X152283088Y-59377611D01*
X154106312Y-59377611D01*
X154106312Y-59415489D01*
G37*
X154106312Y-59415489D02*
X154069271Y-59404253D01*
X153995562Y-59396993D01*
X153363662Y-59398812D01*
X153269662Y-59492812D01*
X153269662Y-59899812D01*
X153289662Y-59899812D01*
X153289662Y-60005412D01*
X153269662Y-60005412D01*
X153269662Y-60047997D01*
X153019662Y-60047997D01*
X153019662Y-60005412D01*
X152011762Y-60005412D01*
X151917762Y-60099412D01*
X151915943Y-60130412D01*
X151920332Y-60174975D01*
X151901830Y-60184865D01*
X151825695Y-60247347D01*
X151810034Y-60266430D01*
X151632580Y-60443885D01*
X151613498Y-60459545D01*
X151551016Y-60535680D01*
X151515240Y-60602612D01*
X151504587Y-60622542D01*
X151475996Y-60716792D01*
X151466342Y-60814809D01*
X151468762Y-60839379D01*
X151468761Y-63765500D01*
X151468761Y-64214619D01*
X151468762Y-64214626D01*
X151468761Y-65115853D01*
X151466342Y-65140413D01*
X151475996Y-65238430D01*
X151481698Y-65257226D01*
X151504586Y-65332679D01*
X151551015Y-65419542D01*
X151613497Y-65495677D01*
X151632584Y-65511341D01*
X151810034Y-65688792D01*
X151825695Y-65707875D01*
X151901830Y-65770357D01*
X151920332Y-65780247D01*
X151915943Y-65824810D01*
X151917762Y-65855810D01*
X152011762Y-65949810D01*
X153019662Y-65949810D01*
X153019662Y-65907225D01*
X153269662Y-65907225D01*
X153269662Y-65949810D01*
X153289662Y-65949810D01*
X153289662Y-66055410D01*
X153269662Y-66055410D01*
X153269662Y-66462410D01*
X153363662Y-66556410D01*
X153873257Y-66557877D01*
X153884857Y-66596117D01*
X153919511Y-66660950D01*
X153966147Y-66717776D01*
X154022973Y-66764412D01*
X154087806Y-66799066D01*
X154158153Y-66820405D01*
X154231312Y-66827611D01*
X157031312Y-66827611D01*
X157104471Y-66820405D01*
X157174818Y-66799066D01*
X157239651Y-66764412D01*
X157296477Y-66717776D01*
X157343113Y-66660950D01*
X157377767Y-66596117D01*
X157399106Y-66525770D01*
X157406049Y-66455283D01*
X157687312Y-66453611D01*
X157781312Y-66359611D01*
X157781312Y-65727611D01*
X157761312Y-65727611D01*
X157761312Y-65477611D01*
X157781312Y-65477611D01*
X157781312Y-64845611D01*
X157687312Y-64751611D01*
X157406312Y-64749941D01*
X157406312Y-64503939D01*
X157462312Y-64503611D01*
X157556312Y-64409611D01*
X157556312Y-63927611D01*
X157536312Y-63927611D01*
X157536312Y-63677611D01*
X157556312Y-63677611D01*
X157556312Y-63657611D01*
X157806312Y-63657611D01*
X157806312Y-63677611D01*
X157826312Y-63677611D01*
X157826312Y-63927611D01*
X157806312Y-63927611D01*
X157806312Y-64409611D01*
X157900312Y-64503611D01*
X158211312Y-64505430D01*
X158285021Y-64498170D01*
X158355897Y-64476670D01*
X158421217Y-64441756D01*
X158478470Y-64394769D01*
X158506312Y-64360844D01*
X158506312Y-64757444D01*
X158505021Y-64757052D01*
X158431312Y-64749792D01*
X158125312Y-64751611D01*
X158031312Y-64845611D01*
X158031312Y-65477611D01*
X158051312Y-65477611D01*
X158051312Y-65727611D01*
X158031312Y-65727611D01*
X158031312Y-66359611D01*
X158125312Y-66453611D01*
X158431312Y-66455430D01*
X158505021Y-66448170D01*
X158506312Y-66447778D01*
X158506312Y-67127611D01*
X157031312Y-67127611D01*
X157006926Y-67130013D01*
X156983477Y-67137126D01*
X156961866Y-67148677D01*
X156942924Y-67164223D01*
X156927378Y-67183165D01*
X156915827Y-67204776D01*
X156908714Y-67228225D01*
X156906312Y-67252611D01*
X156906312Y-68864015D01*
X156875112Y-68873480D01*
X156809965Y-68908302D01*
X156752864Y-68955163D01*
X156706003Y-69012264D01*
X156671181Y-69077411D01*
X156649738Y-69148098D01*
X156642498Y-69221611D01*
X156642498Y-69983611D01*
X156649738Y-70057124D01*
X156663537Y-70102611D01*
X156649738Y-70148098D01*
X156642498Y-70221611D01*
X156642498Y-70983611D01*
X156649738Y-71057124D01*
X156663537Y-71102611D01*
X156649738Y-71148098D01*
X156642498Y-71221611D01*
X156642498Y-71983611D01*
X156649738Y-72057124D01*
X156663014Y-72100889D01*
X156648753Y-72147902D01*
X156641493Y-72221611D01*
X156643312Y-72383611D01*
X156737312Y-72477611D01*
X157656312Y-72477611D01*
X157656312Y-72457611D01*
X157906312Y-72457611D01*
X157906312Y-72477611D01*
X157926312Y-72477611D01*
X157926312Y-72727611D01*
X157906312Y-72727611D01*
X157906312Y-72747611D01*
X157656312Y-72747611D01*
X157656312Y-72727611D01*
X156737312Y-72727611D01*
X156643312Y-72821611D01*
X156641493Y-72983611D01*
X156648753Y-73057320D01*
X156670253Y-73128196D01*
X156705167Y-73193516D01*
X156752154Y-73250769D01*
X156809407Y-73297756D01*
X156865262Y-73327611D01*
X156156312Y-73327611D01*
X156156312Y-69452611D01*
X156153910Y-69428225D01*
X156146797Y-69404776D01*
X156135246Y-69383165D01*
X156116368Y-69361012D01*
X153316368Y-66761012D01*
X153296864Y-66746178D01*
X153274840Y-66735435D01*
X153251144Y-66729194D01*
X153231312Y-66727611D01*
X152083088Y-66727611D01*
X151535887Y-66180410D01*
X151915943Y-66180410D01*
X151923203Y-66254119D01*
X151944703Y-66324995D01*
X151979617Y-66390315D01*
X152026604Y-66447568D01*
X152083857Y-66494555D01*
X152149177Y-66529469D01*
X152220053Y-66550969D01*
X152293762Y-66558229D01*
X152925662Y-66556410D01*
X153019662Y-66462410D01*
X153019662Y-66055410D01*
X152011762Y-66055410D01*
X151917762Y-66149410D01*
X151915943Y-66180410D01*
X151535887Y-66180410D01*
X151156312Y-65800835D01*
X151156312Y-63593421D01*
X151172269Y-63540817D01*
X151181312Y-63449000D01*
X151181312Y-63448991D01*
X151184335Y-63418297D01*
X151181312Y-63387603D01*
X151181312Y-63312196D01*
X151243108Y-63219711D01*
X151301529Y-63078670D01*
X151331312Y-62928942D01*
X151331312Y-62776280D01*
X151301529Y-62626552D01*
X151243108Y-62485511D01*
X151181312Y-62393026D01*
X151181312Y-62078305D01*
X151184335Y-62047611D01*
X151181312Y-62016917D01*
X151181312Y-62016907D01*
X151172269Y-61925090D01*
X151156312Y-61872487D01*
X151156312Y-60504387D01*
X151919227Y-59741472D01*
X151915943Y-59774812D01*
X151917762Y-59805812D01*
X152011762Y-59899812D01*
X153019662Y-59899812D01*
X153019662Y-59492812D01*
X152925662Y-59398812D01*
X152293762Y-59396993D01*
X152260422Y-59400277D01*
X152283088Y-59377611D01*
X154106312Y-59377611D01*
X154106312Y-59415489D01*
%TO.N,+BATT*%
G36*
X153269662Y-61199810D02*
G01*
X153289662Y-61199810D01*
X153289662Y-61305410D01*
X153269662Y-61305410D01*
X153269662Y-61712410D01*
X153363662Y-61806410D01*
X153856312Y-61807828D01*
X153856312Y-63368492D01*
X153811095Y-63477656D01*
X153781312Y-63627384D01*
X153781312Y-63780046D01*
X153811095Y-63929774D01*
X153856312Y-64038938D01*
X153856312Y-64147394D01*
X153363662Y-64148812D01*
X153269662Y-64242812D01*
X153269662Y-64649812D01*
X153289662Y-64649812D01*
X153289662Y-64755412D01*
X153269662Y-64755412D01*
X153269662Y-64797997D01*
X153019662Y-64797997D01*
X153019662Y-64755412D01*
X152999662Y-64755412D01*
X152999662Y-64649812D01*
X153019662Y-64649812D01*
X153019662Y-64242812D01*
X152925662Y-64148812D01*
X152468761Y-64147497D01*
X152468761Y-61807725D01*
X152925662Y-61806410D01*
X153019662Y-61712410D01*
X153019662Y-61305410D01*
X152999662Y-61305410D01*
X152999662Y-61199810D01*
X153019662Y-61199810D01*
X153019662Y-61157225D01*
X153269662Y-61157225D01*
X153269662Y-61199810D01*
G37*
X153269662Y-61199810D02*
X153289662Y-61199810D01*
X153289662Y-61305410D01*
X153269662Y-61305410D01*
X153269662Y-61712410D01*
X153363662Y-61806410D01*
X153856312Y-61807828D01*
X153856312Y-63368492D01*
X153811095Y-63477656D01*
X153781312Y-63627384D01*
X153781312Y-63780046D01*
X153811095Y-63929774D01*
X153856312Y-64038938D01*
X153856312Y-64147394D01*
X153363662Y-64148812D01*
X153269662Y-64242812D01*
X153269662Y-64649812D01*
X153289662Y-64649812D01*
X153289662Y-64755412D01*
X153269662Y-64755412D01*
X153269662Y-64797997D01*
X153019662Y-64797997D01*
X153019662Y-64755412D01*
X152999662Y-64755412D01*
X152999662Y-64649812D01*
X153019662Y-64649812D01*
X153019662Y-64242812D01*
X152925662Y-64148812D01*
X152468761Y-64147497D01*
X152468761Y-61807725D01*
X152925662Y-61806410D01*
X153019662Y-61712410D01*
X153019662Y-61305410D01*
X152999662Y-61305410D01*
X152999662Y-61199810D01*
X153019662Y-61199810D01*
X153019662Y-61157225D01*
X153269662Y-61157225D01*
X153269662Y-61199810D01*
%TO.N,+3V3*%
G36*
X147003187Y-61201262D02*
G01*
X146651312Y-61199792D01*
X146577603Y-61207052D01*
X146506727Y-61228552D01*
X146441407Y-61263466D01*
X146384154Y-61310453D01*
X146337167Y-61367706D01*
X146302253Y-61433026D01*
X146280753Y-61503902D01*
X146273493Y-61577611D01*
X146275312Y-61808111D01*
X146369312Y-61902111D01*
X147180812Y-61902111D01*
X147180812Y-61882111D01*
X147181812Y-61882111D01*
X147181812Y-61902111D01*
X147201812Y-61902111D01*
X147201812Y-61903111D01*
X147181812Y-61903111D01*
X147181812Y-62509611D01*
X147275812Y-62603611D01*
X147306312Y-62603738D01*
X147306312Y-62927611D01*
X145356312Y-62927611D01*
X145356312Y-62434439D01*
X145371322Y-62384958D01*
X145383126Y-62265111D01*
X145383126Y-62227611D01*
X146273493Y-62227611D01*
X146280753Y-62301320D01*
X146302253Y-62372196D01*
X146337167Y-62437516D01*
X146384154Y-62494769D01*
X146441407Y-62541756D01*
X146506727Y-62576670D01*
X146577603Y-62598170D01*
X146651312Y-62605430D01*
X147086812Y-62603611D01*
X147180812Y-62509611D01*
X147180812Y-61903111D01*
X146369312Y-61903111D01*
X146275312Y-61997111D01*
X146273493Y-62227611D01*
X145383126Y-62227611D01*
X145383126Y-61690111D01*
X145371322Y-61570264D01*
X145356312Y-61520783D01*
X145356312Y-60377611D01*
X146179536Y-60377611D01*
X147003187Y-61201262D01*
G37*
X147003187Y-61201262D02*
X146651312Y-61199792D01*
X146577603Y-61207052D01*
X146506727Y-61228552D01*
X146441407Y-61263466D01*
X146384154Y-61310453D01*
X146337167Y-61367706D01*
X146302253Y-61433026D01*
X146280753Y-61503902D01*
X146273493Y-61577611D01*
X146275312Y-61808111D01*
X146369312Y-61902111D01*
X147180812Y-61902111D01*
X147180812Y-61882111D01*
X147181812Y-61882111D01*
X147181812Y-61902111D01*
X147201812Y-61902111D01*
X147201812Y-61903111D01*
X147181812Y-61903111D01*
X147181812Y-62509611D01*
X147275812Y-62603611D01*
X147306312Y-62603738D01*
X147306312Y-62927611D01*
X145356312Y-62927611D01*
X145356312Y-62434439D01*
X145371322Y-62384958D01*
X145383126Y-62265111D01*
X145383126Y-62227611D01*
X146273493Y-62227611D01*
X146280753Y-62301320D01*
X146302253Y-62372196D01*
X146337167Y-62437516D01*
X146384154Y-62494769D01*
X146441407Y-62541756D01*
X146506727Y-62576670D01*
X146577603Y-62598170D01*
X146651312Y-62605430D01*
X147086812Y-62603611D01*
X147180812Y-62509611D01*
X147180812Y-61903111D01*
X146369312Y-61903111D01*
X146275312Y-61997111D01*
X146273493Y-62227611D01*
X145383126Y-62227611D01*
X145383126Y-61690111D01*
X145371322Y-61570264D01*
X145356312Y-61520783D01*
X145356312Y-60377611D01*
X146179536Y-60377611D01*
X147003187Y-61201262D01*
G36*
X139806312Y-69700835D02*
G01*
X138942924Y-70564223D01*
X138927378Y-70583165D01*
X138915827Y-70604776D01*
X138908714Y-70628225D01*
X138906312Y-70652611D01*
X138906312Y-73143026D01*
X138883294Y-73108577D01*
X138775346Y-73000629D01*
X138648412Y-72915815D01*
X138507371Y-72857394D01*
X138357643Y-72827611D01*
X138204981Y-72827611D01*
X138055253Y-72857394D01*
X137914212Y-72915815D01*
X137787278Y-73000629D01*
X137679330Y-73108577D01*
X137594516Y-73235511D01*
X137536095Y-73376552D01*
X137506312Y-73526280D01*
X137506312Y-73678942D01*
X137536095Y-73828670D01*
X137594516Y-73969711D01*
X137679330Y-74096645D01*
X137787278Y-74204593D01*
X137914212Y-74289407D01*
X138055253Y-74347828D01*
X138204981Y-74377611D01*
X138357643Y-74377611D01*
X138507371Y-74347828D01*
X138648412Y-74289407D01*
X138775346Y-74204593D01*
X138883294Y-74096645D01*
X138906312Y-74062196D01*
X138906312Y-75227611D01*
X137456312Y-75227611D01*
X137456312Y-68752611D01*
X137453910Y-68728225D01*
X137446797Y-68704776D01*
X137435246Y-68683165D01*
X137419700Y-68664223D01*
X136256312Y-67500835D01*
X136256312Y-66355218D01*
X136824312Y-66353611D01*
X136918312Y-66259611D01*
X136918312Y-65778111D01*
X136919312Y-65778111D01*
X136919312Y-66259611D01*
X137013312Y-66353611D01*
X137656312Y-66355430D01*
X137730021Y-66348170D01*
X137800897Y-66326670D01*
X137866217Y-66291756D01*
X137923470Y-66244769D01*
X137970457Y-66187516D01*
X138005371Y-66122196D01*
X138026871Y-66051320D01*
X138034131Y-65977611D01*
X138032312Y-65872111D01*
X137938312Y-65778111D01*
X136919312Y-65778111D01*
X136918312Y-65778111D01*
X136898312Y-65778111D01*
X136898312Y-65777111D01*
X136918312Y-65777111D01*
X136918312Y-65757111D01*
X136919312Y-65757111D01*
X136919312Y-65777111D01*
X137938312Y-65777111D01*
X138032312Y-65683111D01*
X138034131Y-65577611D01*
X138034104Y-65577336D01*
X138055698Y-65575209D01*
X138079147Y-65568096D01*
X138100758Y-65556545D01*
X138119700Y-65540999D01*
X138135246Y-65522057D01*
X138146797Y-65500446D01*
X138153910Y-65476997D01*
X138156312Y-65452611D01*
X138156312Y-61812196D01*
X138179330Y-61846645D01*
X138287278Y-61954593D01*
X138414212Y-62039407D01*
X138555253Y-62097828D01*
X138704981Y-62127611D01*
X138857643Y-62127611D01*
X139007371Y-62097828D01*
X139148412Y-62039407D01*
X139275346Y-61954593D01*
X139383294Y-61846645D01*
X139468108Y-61719711D01*
X139526529Y-61578670D01*
X139556312Y-61428942D01*
X139556312Y-61276280D01*
X139526529Y-61126552D01*
X139468108Y-60985511D01*
X139383294Y-60858577D01*
X139275346Y-60750629D01*
X139240897Y-60727611D01*
X139275346Y-60704593D01*
X139383294Y-60596645D01*
X139468108Y-60469711D01*
X139526529Y-60328670D01*
X139556312Y-60178942D01*
X139556312Y-60026280D01*
X139526529Y-59876552D01*
X139468108Y-59735511D01*
X139383294Y-59608577D01*
X139275346Y-59500629D01*
X139206277Y-59454479D01*
X139431312Y-59455430D01*
X139505021Y-59448170D01*
X139575897Y-59426670D01*
X139641217Y-59391756D01*
X139698470Y-59344769D01*
X139745457Y-59287516D01*
X139780371Y-59222196D01*
X139801871Y-59151320D01*
X139806312Y-59106233D01*
X139806312Y-69700835D01*
G37*
X139806312Y-69700835D02*
X138942924Y-70564223D01*
X138927378Y-70583165D01*
X138915827Y-70604776D01*
X138908714Y-70628225D01*
X138906312Y-70652611D01*
X138906312Y-73143026D01*
X138883294Y-73108577D01*
X138775346Y-73000629D01*
X138648412Y-72915815D01*
X138507371Y-72857394D01*
X138357643Y-72827611D01*
X138204981Y-72827611D01*
X138055253Y-72857394D01*
X137914212Y-72915815D01*
X137787278Y-73000629D01*
X137679330Y-73108577D01*
X137594516Y-73235511D01*
X137536095Y-73376552D01*
X137506312Y-73526280D01*
X137506312Y-73678942D01*
X137536095Y-73828670D01*
X137594516Y-73969711D01*
X137679330Y-74096645D01*
X137787278Y-74204593D01*
X137914212Y-74289407D01*
X138055253Y-74347828D01*
X138204981Y-74377611D01*
X138357643Y-74377611D01*
X138507371Y-74347828D01*
X138648412Y-74289407D01*
X138775346Y-74204593D01*
X138883294Y-74096645D01*
X138906312Y-74062196D01*
X138906312Y-75227611D01*
X137456312Y-75227611D01*
X137456312Y-68752611D01*
X137453910Y-68728225D01*
X137446797Y-68704776D01*
X137435246Y-68683165D01*
X137419700Y-68664223D01*
X136256312Y-67500835D01*
X136256312Y-66355218D01*
X136824312Y-66353611D01*
X136918312Y-66259611D01*
X136918312Y-65778111D01*
X136919312Y-65778111D01*
X136919312Y-66259611D01*
X137013312Y-66353611D01*
X137656312Y-66355430D01*
X137730021Y-66348170D01*
X137800897Y-66326670D01*
X137866217Y-66291756D01*
X137923470Y-66244769D01*
X137970457Y-66187516D01*
X138005371Y-66122196D01*
X138026871Y-66051320D01*
X138034131Y-65977611D01*
X138032312Y-65872111D01*
X137938312Y-65778111D01*
X136919312Y-65778111D01*
X136918312Y-65778111D01*
X136898312Y-65778111D01*
X136898312Y-65777111D01*
X136918312Y-65777111D01*
X136918312Y-65757111D01*
X136919312Y-65757111D01*
X136919312Y-65777111D01*
X137938312Y-65777111D01*
X138032312Y-65683111D01*
X138034131Y-65577611D01*
X138034104Y-65577336D01*
X138055698Y-65575209D01*
X138079147Y-65568096D01*
X138100758Y-65556545D01*
X138119700Y-65540999D01*
X138135246Y-65522057D01*
X138146797Y-65500446D01*
X138153910Y-65476997D01*
X138156312Y-65452611D01*
X138156312Y-61812196D01*
X138179330Y-61846645D01*
X138287278Y-61954593D01*
X138414212Y-62039407D01*
X138555253Y-62097828D01*
X138704981Y-62127611D01*
X138857643Y-62127611D01*
X139007371Y-62097828D01*
X139148412Y-62039407D01*
X139275346Y-61954593D01*
X139383294Y-61846645D01*
X139468108Y-61719711D01*
X139526529Y-61578670D01*
X139556312Y-61428942D01*
X139556312Y-61276280D01*
X139526529Y-61126552D01*
X139468108Y-60985511D01*
X139383294Y-60858577D01*
X139275346Y-60750629D01*
X139240897Y-60727611D01*
X139275346Y-60704593D01*
X139383294Y-60596645D01*
X139468108Y-60469711D01*
X139526529Y-60328670D01*
X139556312Y-60178942D01*
X139556312Y-60026280D01*
X139526529Y-59876552D01*
X139468108Y-59735511D01*
X139383294Y-59608577D01*
X139275346Y-59500629D01*
X139206277Y-59454479D01*
X139431312Y-59455430D01*
X139505021Y-59448170D01*
X139575897Y-59426670D01*
X139641217Y-59391756D01*
X139698470Y-59344769D01*
X139745457Y-59287516D01*
X139780371Y-59222196D01*
X139801871Y-59151320D01*
X139806312Y-59106233D01*
X139806312Y-69700835D01*
G36*
X139754498Y-58644297D02*
G01*
X139713314Y-58603113D01*
X139754498Y-58603113D01*
X139754498Y-58644297D01*
G37*
X139754498Y-58644297D02*
X139713314Y-58603113D01*
X139754498Y-58603113D01*
X139754498Y-58644297D01*
G36*
X139806312Y-58098989D02*
G01*
X139801871Y-58053902D01*
X139780371Y-57983026D01*
X139745457Y-57917706D01*
X139698470Y-57860453D01*
X139641217Y-57813466D01*
X139575897Y-57778552D01*
X139505021Y-57757052D01*
X139431312Y-57749792D01*
X139000812Y-57751611D01*
X138906812Y-57845611D01*
X138906812Y-58602111D01*
X138926812Y-58602111D01*
X138926812Y-58603111D01*
X138906812Y-58603111D01*
X138906812Y-58623111D01*
X138905812Y-58623111D01*
X138905812Y-58603111D01*
X138885812Y-58603111D01*
X138885812Y-58602111D01*
X138905812Y-58602111D01*
X138905812Y-57845611D01*
X138811812Y-57751611D01*
X138381312Y-57749792D01*
X138307603Y-57757052D01*
X138236727Y-57778552D01*
X138171407Y-57813466D01*
X138156312Y-57825854D01*
X138156312Y-57677611D01*
X139806312Y-57677611D01*
X139806312Y-58098989D01*
G37*
X139806312Y-58098989D02*
X139801871Y-58053902D01*
X139780371Y-57983026D01*
X139745457Y-57917706D01*
X139698470Y-57860453D01*
X139641217Y-57813466D01*
X139575897Y-57778552D01*
X139505021Y-57757052D01*
X139431312Y-57749792D01*
X139000812Y-57751611D01*
X138906812Y-57845611D01*
X138906812Y-58602111D01*
X138926812Y-58602111D01*
X138926812Y-58603111D01*
X138906812Y-58603111D01*
X138906812Y-58623111D01*
X138905812Y-58623111D01*
X138905812Y-58603111D01*
X138885812Y-58603111D01*
X138885812Y-58602111D01*
X138905812Y-58602111D01*
X138905812Y-57845611D01*
X138811812Y-57751611D01*
X138381312Y-57749792D01*
X138307603Y-57757052D01*
X138236727Y-57778552D01*
X138171407Y-57813466D01*
X138156312Y-57825854D01*
X138156312Y-57677611D01*
X139806312Y-57677611D01*
X139806312Y-58098989D01*
G36*
X139754498Y-58602109D02*
G01*
X139713314Y-58602109D01*
X139754498Y-58560925D01*
X139754498Y-58602109D01*
G37*
X139754498Y-58602109D02*
X139713314Y-58602109D01*
X139754498Y-58560925D01*
X139754498Y-58602109D01*
%TD*%
M02*
