%TF.GenerationSoftware,KiCad,Pcbnew,(5.1.6)-1*%
%TF.CreationDate,2020-09-19T18:08:18+02:00*%
%TF.ProjectId,watch,77617463-682e-46b6-9963-61645f706362,rev?*%
%TF.SameCoordinates,Original*%
%TF.FileFunction,Copper,L3,Inr*%
%TF.FilePolarity,Positive*%
%FSLAX46Y46*%
G04 Gerber Fmt 4.6, Leading zero omitted, Abs format (unit mm)*
G04 Created by KiCad (PCBNEW (5.1.6)-1) date 2020-09-19 18:08:18*
%MOMM*%
%LPD*%
G01*
G04 APERTURE LIST*
%TA.AperFunction,ViaPad*%
%ADD10C,0.800000*%
%TD*%
%TA.AperFunction,Conductor*%
%ADD11C,0.250000*%
%TD*%
G04 APERTURE END LIST*
D10*
%TO.N,GND*%
X133781312Y-62852611D03*
X140260725Y-75127611D03*
X155281312Y-75127611D03*
X147031312Y-50802611D03*
X140781312Y-60852611D03*
X153781312Y-50577611D03*
X138781312Y-50577611D03*
X146981312Y-74902611D03*
X132431312Y-70852611D03*
X132431312Y-71852611D03*
%TO.N,VCC*%
X154556312Y-63703715D03*
X150556312Y-62852611D03*
%TO.N,+3V3*%
X138281312Y-75102611D03*
X140781312Y-50602611D03*
X155781312Y-50602611D03*
X141281312Y-63102611D03*
X138781312Y-62602611D03*
X145781312Y-60852611D03*
X153281312Y-75102611D03*
%TO.N,/MDI*%
X155781312Y-52102611D03*
%TO.N,/OE*%
X155281312Y-71102611D03*
X138781312Y-54602611D03*
X153781312Y-54602611D03*
X140281312Y-71102611D03*
%TO.N,/LE*%
X155281312Y-72102611D03*
X140281312Y-72102611D03*
X138781312Y-53602611D03*
X153781306Y-53602611D03*
%TO.N,/CLK*%
X155281312Y-73102611D03*
X140281312Y-73102611D03*
X138781312Y-52602611D03*
X153781312Y-52602611D03*
%TO.N,/SDI*%
X140281312Y-74102611D03*
%TO.N,/SW1*%
X147031312Y-52402611D03*
%TO.N,/SW2*%
X147031312Y-73302611D03*
%TO.N,+BATT*%
X154031312Y-62852611D03*
X158531312Y-62852611D03*
%TO.N,Net-(U10-Pad2)*%
X153281312Y-73827611D03*
X138781312Y-51602611D03*
%TO.N,Net-(U3-Pad2)*%
X155281312Y-74102611D03*
X138281312Y-73602611D03*
%TO.N,Net-(U10-Pad14)*%
X153781312Y-51602611D03*
X140781312Y-52102611D03*
%TO.N,/RX*%
X138781312Y-60102611D03*
X161531312Y-70852611D03*
%TO.N,/TX*%
X138781312Y-61352611D03*
X161531312Y-71852611D03*
%TD*%
D11*
%TO.N,/RX*%
X160632206Y-70852611D02*
X161531312Y-70852611D01*
X148882206Y-59102611D02*
X160632206Y-70852611D01*
X138781312Y-60102611D02*
X139781312Y-59102611D01*
X139781312Y-59102611D02*
X148882206Y-59102611D01*
%TO.N,/TX*%
X160995799Y-71852614D02*
X161531312Y-71852614D01*
X148745796Y-59602611D02*
X160995799Y-71852614D01*
X138781312Y-61352611D02*
X140531312Y-59602611D01*
X140531312Y-59602611D02*
X148745796Y-59602611D01*
%TD*%
%TO.N,GND*%
G36*
X159123243Y-46327798D02*
G01*
X159939586Y-46546537D01*
X160705545Y-46903710D01*
X161397850Y-47388467D01*
X161995457Y-47986074D01*
X162480212Y-48678375D01*
X162837385Y-49444336D01*
X163056125Y-50260681D01*
X163131313Y-51120088D01*
X163131312Y-74585146D01*
X163056125Y-75444541D01*
X162837385Y-76260886D01*
X162480212Y-77026847D01*
X161995457Y-77719148D01*
X161397850Y-78316755D01*
X160705545Y-78801512D01*
X159939586Y-79158685D01*
X159123243Y-79377424D01*
X158263847Y-79452611D01*
X135798777Y-79452611D01*
X134939382Y-79377424D01*
X134123037Y-79158684D01*
X133357076Y-78801511D01*
X132664775Y-78316756D01*
X132067168Y-77719149D01*
X132000081Y-77623338D01*
X141832982Y-77623338D01*
X141833235Y-77659592D01*
X141832982Y-77695846D01*
X141833527Y-77701405D01*
X141853928Y-77895501D01*
X141861217Y-77931009D01*
X141868011Y-77966625D01*
X141869626Y-77971972D01*
X141927338Y-78158410D01*
X141941376Y-78191807D01*
X141954967Y-78225445D01*
X141957589Y-78230376D01*
X142050414Y-78402053D01*
X142070692Y-78432117D01*
X142090539Y-78462446D01*
X142094069Y-78466774D01*
X142218473Y-78617152D01*
X142244199Y-78642699D01*
X142269563Y-78668600D01*
X142273866Y-78672160D01*
X142425108Y-78795510D01*
X142455300Y-78815569D01*
X142485219Y-78836055D01*
X142490132Y-78838711D01*
X142662454Y-78930336D01*
X142695952Y-78944143D01*
X142729294Y-78958433D01*
X142734629Y-78960085D01*
X142921466Y-79016494D01*
X142957029Y-79023536D01*
X142992490Y-79031073D01*
X142998044Y-79031657D01*
X143192278Y-79050702D01*
X143192282Y-79050702D01*
X143211665Y-79052611D01*
X150850959Y-79052611D01*
X150871326Y-79050605D01*
X150884307Y-79050605D01*
X150889862Y-79050021D01*
X151083811Y-79028266D01*
X151119268Y-79020729D01*
X151154838Y-79013686D01*
X151160173Y-79012035D01*
X151346204Y-78953022D01*
X151379531Y-78938738D01*
X151413043Y-78924925D01*
X151417952Y-78922270D01*
X151417957Y-78922268D01*
X151417961Y-78922265D01*
X151588981Y-78828246D01*
X151618878Y-78807775D01*
X151649090Y-78787702D01*
X151653394Y-78784142D01*
X151802900Y-78658692D01*
X151828280Y-78632775D01*
X151853991Y-78607243D01*
X151857521Y-78602915D01*
X151979812Y-78450815D01*
X151999673Y-78420464D01*
X152019935Y-78390425D01*
X152022557Y-78385494D01*
X152112977Y-78212538D01*
X152126556Y-78178929D01*
X152140608Y-78145500D01*
X152142222Y-78140153D01*
X152197325Y-77952928D01*
X152204116Y-77917326D01*
X152211408Y-77881805D01*
X152211953Y-77876246D01*
X152229642Y-77681885D01*
X152229389Y-77645630D01*
X152229642Y-77609376D01*
X152229097Y-77603817D01*
X152208696Y-77409720D01*
X152201404Y-77374199D01*
X152194613Y-77338597D01*
X152192999Y-77333254D01*
X152192998Y-77333248D01*
X152192996Y-77333242D01*
X152135286Y-77146812D01*
X152121254Y-77113432D01*
X152107657Y-77079777D01*
X152105035Y-77074846D01*
X152012210Y-76903169D01*
X151991932Y-76873105D01*
X151972085Y-76842776D01*
X151968555Y-76838448D01*
X151844151Y-76688070D01*
X151818425Y-76662523D01*
X151793061Y-76636622D01*
X151788758Y-76633062D01*
X151637516Y-76509712D01*
X151607342Y-76489665D01*
X151577406Y-76469167D01*
X151572493Y-76466511D01*
X151400170Y-76374886D01*
X151366672Y-76361079D01*
X151333330Y-76346789D01*
X151327995Y-76345137D01*
X151141159Y-76288728D01*
X151105574Y-76281682D01*
X151070134Y-76274149D01*
X151064579Y-76273565D01*
X150870346Y-76254520D01*
X150870342Y-76254520D01*
X150850959Y-76252611D01*
X143211665Y-76252611D01*
X143191298Y-76254617D01*
X143178317Y-76254617D01*
X143172762Y-76255201D01*
X142978812Y-76276956D01*
X142943348Y-76284494D01*
X142907786Y-76291536D01*
X142902451Y-76293187D01*
X142716421Y-76352200D01*
X142683107Y-76366478D01*
X142649581Y-76380297D01*
X142644668Y-76382953D01*
X142473643Y-76476976D01*
X142443746Y-76497447D01*
X142413534Y-76517520D01*
X142409234Y-76521078D01*
X142409229Y-76521081D01*
X142409225Y-76521085D01*
X142259724Y-76646530D01*
X142234344Y-76672447D01*
X142208633Y-76697979D01*
X142205103Y-76702307D01*
X142082812Y-76854407D01*
X142062961Y-76884743D01*
X142042689Y-76914797D01*
X142040067Y-76919729D01*
X141949647Y-77092684D01*
X141936068Y-77126293D01*
X141922016Y-77159722D01*
X141920402Y-77165069D01*
X141865299Y-77352295D01*
X141858509Y-77387889D01*
X141851216Y-77423417D01*
X141850671Y-77428976D01*
X141832982Y-77623338D01*
X132000081Y-77623338D01*
X131582411Y-77026844D01*
X131225238Y-76260885D01*
X131006499Y-75444542D01*
X130931312Y-74585146D01*
X130931312Y-73526280D01*
X137506312Y-73526280D01*
X137506312Y-73678942D01*
X137536095Y-73828670D01*
X137594516Y-73969711D01*
X137679330Y-74096645D01*
X137787278Y-74204593D01*
X137914212Y-74289407D01*
X138055253Y-74347828D01*
X138079299Y-74352611D01*
X138055253Y-74357394D01*
X137914212Y-74415815D01*
X137787278Y-74500629D01*
X137679330Y-74608577D01*
X137594516Y-74735511D01*
X137536095Y-74876552D01*
X137506312Y-75026280D01*
X137506312Y-75178942D01*
X137536095Y-75328670D01*
X137594516Y-75469711D01*
X137679330Y-75596645D01*
X137787278Y-75704593D01*
X137914212Y-75789407D01*
X138055253Y-75847828D01*
X138204981Y-75877611D01*
X138357643Y-75877611D01*
X138507371Y-75847828D01*
X138648412Y-75789407D01*
X138775346Y-75704593D01*
X138883294Y-75596645D01*
X138968108Y-75469711D01*
X139026529Y-75328670D01*
X139056312Y-75178942D01*
X139056312Y-75026280D01*
X139026529Y-74876552D01*
X138968108Y-74735511D01*
X138883294Y-74608577D01*
X138775346Y-74500629D01*
X138648412Y-74415815D01*
X138507371Y-74357394D01*
X138483325Y-74352611D01*
X138507371Y-74347828D01*
X138648412Y-74289407D01*
X138775346Y-74204593D01*
X138883294Y-74096645D01*
X138968108Y-73969711D01*
X139026529Y-73828670D01*
X139056312Y-73678942D01*
X139056312Y-73526280D01*
X139026529Y-73376552D01*
X138968108Y-73235511D01*
X138883294Y-73108577D01*
X138775346Y-73000629D01*
X138648412Y-72915815D01*
X138507371Y-72857394D01*
X138357643Y-72827611D01*
X138204981Y-72827611D01*
X138055253Y-72857394D01*
X137914212Y-72915815D01*
X137787278Y-73000629D01*
X137679330Y-73108577D01*
X137594516Y-73235511D01*
X137536095Y-73376552D01*
X137506312Y-73526280D01*
X130931312Y-73526280D01*
X130931312Y-71026280D01*
X139506312Y-71026280D01*
X139506312Y-71178942D01*
X139536095Y-71328670D01*
X139594516Y-71469711D01*
X139679330Y-71596645D01*
X139685296Y-71602611D01*
X139679330Y-71608577D01*
X139594516Y-71735511D01*
X139536095Y-71876552D01*
X139506312Y-72026280D01*
X139506312Y-72178942D01*
X139536095Y-72328670D01*
X139594516Y-72469711D01*
X139679330Y-72596645D01*
X139685296Y-72602611D01*
X139679330Y-72608577D01*
X139594516Y-72735511D01*
X139536095Y-72876552D01*
X139506312Y-73026280D01*
X139506312Y-73178942D01*
X139536095Y-73328670D01*
X139594516Y-73469711D01*
X139679330Y-73596645D01*
X139685296Y-73602611D01*
X139679330Y-73608577D01*
X139594516Y-73735511D01*
X139536095Y-73876552D01*
X139506312Y-74026280D01*
X139506312Y-74178942D01*
X139536095Y-74328670D01*
X139594516Y-74469711D01*
X139679330Y-74596645D01*
X139787278Y-74704593D01*
X139914212Y-74789407D01*
X140055253Y-74847828D01*
X140204981Y-74877611D01*
X140357643Y-74877611D01*
X140507371Y-74847828D01*
X140648412Y-74789407D01*
X140775346Y-74704593D01*
X140883294Y-74596645D01*
X140968108Y-74469711D01*
X141026529Y-74328670D01*
X141056312Y-74178942D01*
X141056312Y-74026280D01*
X141026529Y-73876552D01*
X140968108Y-73735511D01*
X140883294Y-73608577D01*
X140877328Y-73602611D01*
X140883294Y-73596645D01*
X140968108Y-73469711D01*
X141026529Y-73328670D01*
X141046895Y-73226280D01*
X146256312Y-73226280D01*
X146256312Y-73378942D01*
X146286095Y-73528670D01*
X146344516Y-73669711D01*
X146429330Y-73796645D01*
X146537278Y-73904593D01*
X146664212Y-73989407D01*
X146805253Y-74047828D01*
X146954981Y-74077611D01*
X147107643Y-74077611D01*
X147257371Y-74047828D01*
X147398412Y-73989407D01*
X147525346Y-73904593D01*
X147633294Y-73796645D01*
X147663605Y-73751280D01*
X152506312Y-73751280D01*
X152506312Y-73903942D01*
X152536095Y-74053670D01*
X152594516Y-74194711D01*
X152679330Y-74321645D01*
X152787278Y-74429593D01*
X152840435Y-74465111D01*
X152787278Y-74500629D01*
X152679330Y-74608577D01*
X152594516Y-74735511D01*
X152536095Y-74876552D01*
X152506312Y-75026280D01*
X152506312Y-75178942D01*
X152536095Y-75328670D01*
X152594516Y-75469711D01*
X152679330Y-75596645D01*
X152787278Y-75704593D01*
X152914212Y-75789407D01*
X153055253Y-75847828D01*
X153204981Y-75877611D01*
X153357643Y-75877611D01*
X153507371Y-75847828D01*
X153648412Y-75789407D01*
X153775346Y-75704593D01*
X153883294Y-75596645D01*
X153968108Y-75469711D01*
X154026529Y-75328670D01*
X154056312Y-75178942D01*
X154056312Y-75026280D01*
X154026529Y-74876552D01*
X153968108Y-74735511D01*
X153883294Y-74608577D01*
X153775346Y-74500629D01*
X153722189Y-74465111D01*
X153775346Y-74429593D01*
X153883294Y-74321645D01*
X153968108Y-74194711D01*
X154026529Y-74053670D01*
X154056312Y-73903942D01*
X154056312Y-73751280D01*
X154026529Y-73601552D01*
X153968108Y-73460511D01*
X153883294Y-73333577D01*
X153775346Y-73225629D01*
X153648412Y-73140815D01*
X153507371Y-73082394D01*
X153357643Y-73052611D01*
X153204981Y-73052611D01*
X153055253Y-73082394D01*
X152914212Y-73140815D01*
X152787278Y-73225629D01*
X152679330Y-73333577D01*
X152594516Y-73460511D01*
X152536095Y-73601552D01*
X152506312Y-73751280D01*
X147663605Y-73751280D01*
X147718108Y-73669711D01*
X147776529Y-73528670D01*
X147806312Y-73378942D01*
X147806312Y-73226280D01*
X147776529Y-73076552D01*
X147718108Y-72935511D01*
X147633294Y-72808577D01*
X147525346Y-72700629D01*
X147398412Y-72615815D01*
X147257371Y-72557394D01*
X147107643Y-72527611D01*
X146954981Y-72527611D01*
X146805253Y-72557394D01*
X146664212Y-72615815D01*
X146537278Y-72700629D01*
X146429330Y-72808577D01*
X146344516Y-72935511D01*
X146286095Y-73076552D01*
X146256312Y-73226280D01*
X141046895Y-73226280D01*
X141056312Y-73178942D01*
X141056312Y-73026280D01*
X141026529Y-72876552D01*
X140968108Y-72735511D01*
X140883294Y-72608577D01*
X140877328Y-72602611D01*
X140883294Y-72596645D01*
X140968108Y-72469711D01*
X141026529Y-72328670D01*
X141056312Y-72178942D01*
X141056312Y-72026280D01*
X141026529Y-71876552D01*
X140968108Y-71735511D01*
X140883294Y-71608577D01*
X140877328Y-71602611D01*
X140883294Y-71596645D01*
X140968108Y-71469711D01*
X141026529Y-71328670D01*
X141056312Y-71178942D01*
X141056312Y-71026280D01*
X154506312Y-71026280D01*
X154506312Y-71178942D01*
X154536095Y-71328670D01*
X154594516Y-71469711D01*
X154679330Y-71596645D01*
X154685296Y-71602611D01*
X154679330Y-71608577D01*
X154594516Y-71735511D01*
X154536095Y-71876552D01*
X154506312Y-72026280D01*
X154506312Y-72178942D01*
X154536095Y-72328670D01*
X154594516Y-72469711D01*
X154679330Y-72596645D01*
X154685296Y-72602611D01*
X154679330Y-72608577D01*
X154594516Y-72735511D01*
X154536095Y-72876552D01*
X154506312Y-73026280D01*
X154506312Y-73178942D01*
X154536095Y-73328670D01*
X154594516Y-73469711D01*
X154679330Y-73596645D01*
X154685296Y-73602611D01*
X154679330Y-73608577D01*
X154594516Y-73735511D01*
X154536095Y-73876552D01*
X154506312Y-74026280D01*
X154506312Y-74178942D01*
X154536095Y-74328670D01*
X154594516Y-74469711D01*
X154679330Y-74596645D01*
X154787278Y-74704593D01*
X154914212Y-74789407D01*
X155055253Y-74847828D01*
X155204981Y-74877611D01*
X155357643Y-74877611D01*
X155507371Y-74847828D01*
X155648412Y-74789407D01*
X155775346Y-74704593D01*
X155883294Y-74596645D01*
X155968108Y-74469711D01*
X156026529Y-74328670D01*
X156056312Y-74178942D01*
X156056312Y-74026280D01*
X156026529Y-73876552D01*
X155968108Y-73735511D01*
X155883294Y-73608577D01*
X155877328Y-73602611D01*
X155883294Y-73596645D01*
X155968108Y-73469711D01*
X156026529Y-73328670D01*
X156056312Y-73178942D01*
X156056312Y-73026280D01*
X156026529Y-72876552D01*
X155968108Y-72735511D01*
X155883294Y-72608577D01*
X155877328Y-72602611D01*
X155883294Y-72596645D01*
X155968108Y-72469711D01*
X156026529Y-72328670D01*
X156056312Y-72178942D01*
X156056312Y-72026280D01*
X156026529Y-71876552D01*
X155968108Y-71735511D01*
X155883294Y-71608577D01*
X155877328Y-71602611D01*
X155883294Y-71596645D01*
X155968108Y-71469711D01*
X156026529Y-71328670D01*
X156056312Y-71178942D01*
X156056312Y-71026280D01*
X156026529Y-70876552D01*
X155968108Y-70735511D01*
X155883294Y-70608577D01*
X155775346Y-70500629D01*
X155648412Y-70415815D01*
X155507371Y-70357394D01*
X155357643Y-70327611D01*
X155204981Y-70327611D01*
X155055253Y-70357394D01*
X154914212Y-70415815D01*
X154787278Y-70500629D01*
X154679330Y-70608577D01*
X154594516Y-70735511D01*
X154536095Y-70876552D01*
X154506312Y-71026280D01*
X141056312Y-71026280D01*
X141026529Y-70876552D01*
X140968108Y-70735511D01*
X140883294Y-70608577D01*
X140775346Y-70500629D01*
X140648412Y-70415815D01*
X140507371Y-70357394D01*
X140357643Y-70327611D01*
X140204981Y-70327611D01*
X140055253Y-70357394D01*
X139914212Y-70415815D01*
X139787278Y-70500629D01*
X139679330Y-70608577D01*
X139594516Y-70735511D01*
X139536095Y-70876552D01*
X139506312Y-71026280D01*
X130931312Y-71026280D01*
X130931312Y-60026280D01*
X138006312Y-60026280D01*
X138006312Y-60178942D01*
X138036095Y-60328670D01*
X138094516Y-60469711D01*
X138179330Y-60596645D01*
X138287278Y-60704593D01*
X138321727Y-60727611D01*
X138287278Y-60750629D01*
X138179330Y-60858577D01*
X138094516Y-60985511D01*
X138036095Y-61126552D01*
X138006312Y-61276280D01*
X138006312Y-61428942D01*
X138036095Y-61578670D01*
X138094516Y-61719711D01*
X138179330Y-61846645D01*
X138287278Y-61954593D01*
X138321727Y-61977611D01*
X138287278Y-62000629D01*
X138179330Y-62108577D01*
X138094516Y-62235511D01*
X138036095Y-62376552D01*
X138006312Y-62526280D01*
X138006312Y-62678942D01*
X138036095Y-62828670D01*
X138094516Y-62969711D01*
X138179330Y-63096645D01*
X138287278Y-63204593D01*
X138414212Y-63289407D01*
X138555253Y-63347828D01*
X138704981Y-63377611D01*
X138857643Y-63377611D01*
X139007371Y-63347828D01*
X139148412Y-63289407D01*
X139275346Y-63204593D01*
X139383294Y-63096645D01*
X139430310Y-63026280D01*
X140506312Y-63026280D01*
X140506312Y-63178942D01*
X140536095Y-63328670D01*
X140594516Y-63469711D01*
X140679330Y-63596645D01*
X140787278Y-63704593D01*
X140914212Y-63789407D01*
X141055253Y-63847828D01*
X141204981Y-63877611D01*
X141357643Y-63877611D01*
X141507371Y-63847828D01*
X141648412Y-63789407D01*
X141775346Y-63704593D01*
X141883294Y-63596645D01*
X141968108Y-63469711D01*
X142026529Y-63328670D01*
X142056312Y-63178942D01*
X142056312Y-63026280D01*
X142026529Y-62876552D01*
X141968108Y-62735511D01*
X141883294Y-62608577D01*
X141775346Y-62500629D01*
X141648412Y-62415815D01*
X141507371Y-62357394D01*
X141357643Y-62327611D01*
X141204981Y-62327611D01*
X141055253Y-62357394D01*
X140914212Y-62415815D01*
X140787278Y-62500629D01*
X140679330Y-62608577D01*
X140594516Y-62735511D01*
X140536095Y-62876552D01*
X140506312Y-63026280D01*
X139430310Y-63026280D01*
X139468108Y-62969711D01*
X139526529Y-62828670D01*
X139556312Y-62678942D01*
X139556312Y-62526280D01*
X139526529Y-62376552D01*
X139468108Y-62235511D01*
X139383294Y-62108577D01*
X139275346Y-62000629D01*
X139240897Y-61977611D01*
X139275346Y-61954593D01*
X139383294Y-61846645D01*
X139468108Y-61719711D01*
X139526529Y-61578670D01*
X139556312Y-61428942D01*
X139556312Y-61284716D01*
X140738419Y-60102611D01*
X145579299Y-60102611D01*
X145555253Y-60107394D01*
X145414212Y-60165815D01*
X145287278Y-60250629D01*
X145179330Y-60358577D01*
X145094516Y-60485511D01*
X145036095Y-60626552D01*
X145006312Y-60776280D01*
X145006312Y-60928942D01*
X145036095Y-61078670D01*
X145094516Y-61219711D01*
X145179330Y-61346645D01*
X145287278Y-61454593D01*
X145414212Y-61539407D01*
X145555253Y-61597828D01*
X145704981Y-61627611D01*
X145857643Y-61627611D01*
X146007371Y-61597828D01*
X146148412Y-61539407D01*
X146275346Y-61454593D01*
X146383294Y-61346645D01*
X146468108Y-61219711D01*
X146526529Y-61078670D01*
X146556312Y-60928942D01*
X146556312Y-60776280D01*
X146526529Y-60626552D01*
X146468108Y-60485511D01*
X146383294Y-60358577D01*
X146275346Y-60250629D01*
X146148412Y-60165815D01*
X146007371Y-60107394D01*
X145983325Y-60102611D01*
X148538691Y-60102611D01*
X150513691Y-62077611D01*
X150479981Y-62077611D01*
X150330253Y-62107394D01*
X150189212Y-62165815D01*
X150062278Y-62250629D01*
X149954330Y-62358577D01*
X149869516Y-62485511D01*
X149811095Y-62626552D01*
X149781312Y-62776280D01*
X149781312Y-62928942D01*
X149811095Y-63078670D01*
X149869516Y-63219711D01*
X149954330Y-63346645D01*
X150062278Y-63454593D01*
X150189212Y-63539407D01*
X150330253Y-63597828D01*
X150479981Y-63627611D01*
X150632643Y-63627611D01*
X150782371Y-63597828D01*
X150923412Y-63539407D01*
X151050346Y-63454593D01*
X151158294Y-63346645D01*
X151243108Y-63219711D01*
X151301529Y-63078670D01*
X151331312Y-62928942D01*
X151331312Y-62895232D01*
X160624879Y-72188801D01*
X160640535Y-72207878D01*
X160716670Y-72270360D01*
X160803532Y-72316789D01*
X160897782Y-72345379D01*
X160931372Y-72348687D01*
X161037278Y-72454593D01*
X161164212Y-72539407D01*
X161305253Y-72597828D01*
X161454981Y-72627611D01*
X161607643Y-72627611D01*
X161757371Y-72597828D01*
X161898412Y-72539407D01*
X162025346Y-72454593D01*
X162133294Y-72346645D01*
X162218108Y-72219711D01*
X162276529Y-72078670D01*
X162306312Y-71928942D01*
X162306312Y-71776280D01*
X162276529Y-71626552D01*
X162218108Y-71485511D01*
X162133294Y-71358577D01*
X162127328Y-71352611D01*
X162133294Y-71346645D01*
X162218108Y-71219711D01*
X162276529Y-71078670D01*
X162306312Y-70928942D01*
X162306312Y-70776280D01*
X162276529Y-70626552D01*
X162218108Y-70485511D01*
X162133294Y-70358577D01*
X162025346Y-70250629D01*
X161898412Y-70165815D01*
X161757371Y-70107394D01*
X161607643Y-70077611D01*
X161454981Y-70077611D01*
X161305253Y-70107394D01*
X161164212Y-70165815D01*
X161037278Y-70250629D01*
X160935296Y-70352611D01*
X160839313Y-70352611D01*
X154890744Y-64404043D01*
X154923412Y-64390511D01*
X155050346Y-64305697D01*
X155158294Y-64197749D01*
X155243108Y-64070815D01*
X155301529Y-63929774D01*
X155331312Y-63780046D01*
X155331312Y-63627384D01*
X155301529Y-63477656D01*
X155243108Y-63336615D01*
X155158294Y-63209681D01*
X155050346Y-63101733D01*
X154923412Y-63016919D01*
X154799058Y-62965410D01*
X154806312Y-62928942D01*
X154806312Y-62776280D01*
X157756312Y-62776280D01*
X157756312Y-62928942D01*
X157786095Y-63078670D01*
X157844516Y-63219711D01*
X157929330Y-63346645D01*
X158037278Y-63454593D01*
X158164212Y-63539407D01*
X158305253Y-63597828D01*
X158454981Y-63627611D01*
X158607643Y-63627611D01*
X158757371Y-63597828D01*
X158898412Y-63539407D01*
X159025346Y-63454593D01*
X159133294Y-63346645D01*
X159218108Y-63219711D01*
X159276529Y-63078670D01*
X159306312Y-62928942D01*
X159306312Y-62776280D01*
X159276529Y-62626552D01*
X159218108Y-62485511D01*
X159133294Y-62358577D01*
X159025346Y-62250629D01*
X158898412Y-62165815D01*
X158757371Y-62107394D01*
X158607643Y-62077611D01*
X158454981Y-62077611D01*
X158305253Y-62107394D01*
X158164212Y-62165815D01*
X158037278Y-62250629D01*
X157929330Y-62358577D01*
X157844516Y-62485511D01*
X157786095Y-62626552D01*
X157756312Y-62776280D01*
X154806312Y-62776280D01*
X154776529Y-62626552D01*
X154718108Y-62485511D01*
X154633294Y-62358577D01*
X154525346Y-62250629D01*
X154398412Y-62165815D01*
X154257371Y-62107394D01*
X154107643Y-62077611D01*
X153954981Y-62077611D01*
X153805253Y-62107394D01*
X153664212Y-62165815D01*
X153537278Y-62250629D01*
X153429330Y-62358577D01*
X153344516Y-62485511D01*
X153286095Y-62626552D01*
X153257418Y-62770718D01*
X149253135Y-58766435D01*
X149237470Y-58747347D01*
X149161335Y-58684865D01*
X149074473Y-58638436D01*
X148980223Y-58609846D01*
X148906766Y-58602611D01*
X148882206Y-58600192D01*
X148857646Y-58602611D01*
X139805872Y-58602611D01*
X139781312Y-58600192D01*
X139756752Y-58602611D01*
X139683295Y-58609846D01*
X139589045Y-58638436D01*
X139502183Y-58684865D01*
X139426048Y-58747347D01*
X139410392Y-58766424D01*
X138849206Y-59327611D01*
X138704981Y-59327611D01*
X138555253Y-59357394D01*
X138414212Y-59415815D01*
X138287278Y-59500629D01*
X138179330Y-59608577D01*
X138094516Y-59735511D01*
X138036095Y-59876552D01*
X138006312Y-60026280D01*
X130931312Y-60026280D01*
X130931312Y-51526280D01*
X138006312Y-51526280D01*
X138006312Y-51678942D01*
X138036095Y-51828670D01*
X138094516Y-51969711D01*
X138179330Y-52096645D01*
X138185296Y-52102611D01*
X138179330Y-52108577D01*
X138094516Y-52235511D01*
X138036095Y-52376552D01*
X138006312Y-52526280D01*
X138006312Y-52678942D01*
X138036095Y-52828670D01*
X138094516Y-52969711D01*
X138179330Y-53096645D01*
X138185296Y-53102611D01*
X138179330Y-53108577D01*
X138094516Y-53235511D01*
X138036095Y-53376552D01*
X138006312Y-53526280D01*
X138006312Y-53678942D01*
X138036095Y-53828670D01*
X138094516Y-53969711D01*
X138179330Y-54096645D01*
X138185296Y-54102611D01*
X138179330Y-54108577D01*
X138094516Y-54235511D01*
X138036095Y-54376552D01*
X138006312Y-54526280D01*
X138006312Y-54678942D01*
X138036095Y-54828670D01*
X138094516Y-54969711D01*
X138179330Y-55096645D01*
X138287278Y-55204593D01*
X138414212Y-55289407D01*
X138555253Y-55347828D01*
X138704981Y-55377611D01*
X138857643Y-55377611D01*
X139007371Y-55347828D01*
X139148412Y-55289407D01*
X139275346Y-55204593D01*
X139383294Y-55096645D01*
X139468108Y-54969711D01*
X139526529Y-54828670D01*
X139556312Y-54678942D01*
X139556312Y-54526280D01*
X139526529Y-54376552D01*
X139468108Y-54235511D01*
X139383294Y-54108577D01*
X139377328Y-54102611D01*
X139383294Y-54096645D01*
X139468108Y-53969711D01*
X139526529Y-53828670D01*
X139556312Y-53678942D01*
X139556312Y-53526280D01*
X153006306Y-53526280D01*
X153006306Y-53678942D01*
X153036089Y-53828670D01*
X153094510Y-53969711D01*
X153179324Y-54096645D01*
X153185293Y-54102614D01*
X153179330Y-54108577D01*
X153094516Y-54235511D01*
X153036095Y-54376552D01*
X153006312Y-54526280D01*
X153006312Y-54678942D01*
X153036095Y-54828670D01*
X153094516Y-54969711D01*
X153179330Y-55096645D01*
X153287278Y-55204593D01*
X153414212Y-55289407D01*
X153555253Y-55347828D01*
X153704981Y-55377611D01*
X153857643Y-55377611D01*
X154007371Y-55347828D01*
X154148412Y-55289407D01*
X154275346Y-55204593D01*
X154383294Y-55096645D01*
X154468108Y-54969711D01*
X154526529Y-54828670D01*
X154556312Y-54678942D01*
X154556312Y-54526280D01*
X154526529Y-54376552D01*
X154468108Y-54235511D01*
X154383294Y-54108577D01*
X154377325Y-54102608D01*
X154383288Y-54096645D01*
X154468102Y-53969711D01*
X154526523Y-53828670D01*
X154556306Y-53678942D01*
X154556306Y-53526280D01*
X154526523Y-53376552D01*
X154468102Y-53235511D01*
X154383288Y-53108577D01*
X154377325Y-53102614D01*
X154383294Y-53096645D01*
X154468108Y-52969711D01*
X154526529Y-52828670D01*
X154556312Y-52678942D01*
X154556312Y-52526280D01*
X154526529Y-52376552D01*
X154468108Y-52235511D01*
X154383294Y-52108577D01*
X154377328Y-52102611D01*
X154383294Y-52096645D01*
X154468108Y-51969711D01*
X154526529Y-51828670D01*
X154556312Y-51678942D01*
X154556312Y-51526280D01*
X154526529Y-51376552D01*
X154468108Y-51235511D01*
X154383294Y-51108577D01*
X154275346Y-51000629D01*
X154148412Y-50915815D01*
X154007371Y-50857394D01*
X153857643Y-50827611D01*
X153704981Y-50827611D01*
X153555253Y-50857394D01*
X153414212Y-50915815D01*
X153287278Y-51000629D01*
X153179330Y-51108577D01*
X153094516Y-51235511D01*
X153036095Y-51376552D01*
X153006312Y-51526280D01*
X153006312Y-51678942D01*
X153036095Y-51828670D01*
X153094516Y-51969711D01*
X153179330Y-52096645D01*
X153185296Y-52102611D01*
X153179330Y-52108577D01*
X153094516Y-52235511D01*
X153036095Y-52376552D01*
X153006312Y-52526280D01*
X153006312Y-52678942D01*
X153036095Y-52828670D01*
X153094516Y-52969711D01*
X153179330Y-53096645D01*
X153185293Y-53102608D01*
X153179324Y-53108577D01*
X153094510Y-53235511D01*
X153036089Y-53376552D01*
X153006306Y-53526280D01*
X139556312Y-53526280D01*
X139526529Y-53376552D01*
X139468108Y-53235511D01*
X139383294Y-53108577D01*
X139377328Y-53102611D01*
X139383294Y-53096645D01*
X139468108Y-52969711D01*
X139526529Y-52828670D01*
X139556312Y-52678942D01*
X139556312Y-52526280D01*
X139526529Y-52376552D01*
X139468108Y-52235511D01*
X139383294Y-52108577D01*
X139377328Y-52102611D01*
X139383294Y-52096645D01*
X139468108Y-51969711D01*
X139526529Y-51828670D01*
X139556312Y-51678942D01*
X139556312Y-51526280D01*
X139526529Y-51376552D01*
X139468108Y-51235511D01*
X139383294Y-51108577D01*
X139275346Y-51000629D01*
X139148412Y-50915815D01*
X139007371Y-50857394D01*
X138857643Y-50827611D01*
X138704981Y-50827611D01*
X138555253Y-50857394D01*
X138414212Y-50915815D01*
X138287278Y-51000629D01*
X138179330Y-51108577D01*
X138094516Y-51235511D01*
X138036095Y-51376552D01*
X138006312Y-51526280D01*
X130931312Y-51526280D01*
X130931312Y-51120076D01*
X130983262Y-50526280D01*
X140006312Y-50526280D01*
X140006312Y-50678942D01*
X140036095Y-50828670D01*
X140094516Y-50969711D01*
X140179330Y-51096645D01*
X140287278Y-51204593D01*
X140414212Y-51289407D01*
X140555253Y-51347828D01*
X140579299Y-51352611D01*
X140555253Y-51357394D01*
X140414212Y-51415815D01*
X140287278Y-51500629D01*
X140179330Y-51608577D01*
X140094516Y-51735511D01*
X140036095Y-51876552D01*
X140006312Y-52026280D01*
X140006312Y-52178942D01*
X140036095Y-52328670D01*
X140094516Y-52469711D01*
X140179330Y-52596645D01*
X140287278Y-52704593D01*
X140414212Y-52789407D01*
X140555253Y-52847828D01*
X140704981Y-52877611D01*
X140857643Y-52877611D01*
X141007371Y-52847828D01*
X141148412Y-52789407D01*
X141275346Y-52704593D01*
X141383294Y-52596645D01*
X141468108Y-52469711D01*
X141526529Y-52328670D01*
X141527004Y-52326280D01*
X146256312Y-52326280D01*
X146256312Y-52478942D01*
X146286095Y-52628670D01*
X146344516Y-52769711D01*
X146429330Y-52896645D01*
X146537278Y-53004593D01*
X146664212Y-53089407D01*
X146805253Y-53147828D01*
X146954981Y-53177611D01*
X147107643Y-53177611D01*
X147257371Y-53147828D01*
X147398412Y-53089407D01*
X147525346Y-53004593D01*
X147633294Y-52896645D01*
X147718108Y-52769711D01*
X147776529Y-52628670D01*
X147806312Y-52478942D01*
X147806312Y-52326280D01*
X147776529Y-52176552D01*
X147718108Y-52035511D01*
X147633294Y-51908577D01*
X147525346Y-51800629D01*
X147398412Y-51715815D01*
X147257371Y-51657394D01*
X147107643Y-51627611D01*
X146954981Y-51627611D01*
X146805253Y-51657394D01*
X146664212Y-51715815D01*
X146537278Y-51800629D01*
X146429330Y-51908577D01*
X146344516Y-52035511D01*
X146286095Y-52176552D01*
X146256312Y-52326280D01*
X141527004Y-52326280D01*
X141556312Y-52178942D01*
X141556312Y-52026280D01*
X141526529Y-51876552D01*
X141468108Y-51735511D01*
X141383294Y-51608577D01*
X141275346Y-51500629D01*
X141148412Y-51415815D01*
X141007371Y-51357394D01*
X140983325Y-51352611D01*
X141007371Y-51347828D01*
X141148412Y-51289407D01*
X141275346Y-51204593D01*
X141383294Y-51096645D01*
X141468108Y-50969711D01*
X141526529Y-50828670D01*
X141556312Y-50678942D01*
X141556312Y-50526280D01*
X155006312Y-50526280D01*
X155006312Y-50678942D01*
X155036095Y-50828670D01*
X155094516Y-50969711D01*
X155179330Y-51096645D01*
X155287278Y-51204593D01*
X155414212Y-51289407D01*
X155555253Y-51347828D01*
X155579299Y-51352611D01*
X155555253Y-51357394D01*
X155414212Y-51415815D01*
X155287278Y-51500629D01*
X155179330Y-51608577D01*
X155094516Y-51735511D01*
X155036095Y-51876552D01*
X155006312Y-52026280D01*
X155006312Y-52178942D01*
X155036095Y-52328670D01*
X155094516Y-52469711D01*
X155179330Y-52596645D01*
X155287278Y-52704593D01*
X155414212Y-52789407D01*
X155555253Y-52847828D01*
X155704981Y-52877611D01*
X155857643Y-52877611D01*
X156007371Y-52847828D01*
X156148412Y-52789407D01*
X156275346Y-52704593D01*
X156383294Y-52596645D01*
X156468108Y-52469711D01*
X156526529Y-52328670D01*
X156556312Y-52178942D01*
X156556312Y-52026280D01*
X156526529Y-51876552D01*
X156468108Y-51735511D01*
X156383294Y-51608577D01*
X156275346Y-51500629D01*
X156148412Y-51415815D01*
X156007371Y-51357394D01*
X155983325Y-51352611D01*
X156007371Y-51347828D01*
X156148412Y-51289407D01*
X156275346Y-51204593D01*
X156383294Y-51096645D01*
X156468108Y-50969711D01*
X156526529Y-50828670D01*
X156556312Y-50678942D01*
X156556312Y-50526280D01*
X156526529Y-50376552D01*
X156468108Y-50235511D01*
X156383294Y-50108577D01*
X156275346Y-50000629D01*
X156148412Y-49915815D01*
X156007371Y-49857394D01*
X155857643Y-49827611D01*
X155704981Y-49827611D01*
X155555253Y-49857394D01*
X155414212Y-49915815D01*
X155287278Y-50000629D01*
X155179330Y-50108577D01*
X155094516Y-50235511D01*
X155036095Y-50376552D01*
X155006312Y-50526280D01*
X141556312Y-50526280D01*
X141526529Y-50376552D01*
X141468108Y-50235511D01*
X141383294Y-50108577D01*
X141275346Y-50000629D01*
X141148412Y-49915815D01*
X141007371Y-49857394D01*
X140857643Y-49827611D01*
X140704981Y-49827611D01*
X140555253Y-49857394D01*
X140414212Y-49915815D01*
X140287278Y-50000629D01*
X140179330Y-50108577D01*
X140094516Y-50235511D01*
X140036095Y-50376552D01*
X140006312Y-50526280D01*
X130983262Y-50526280D01*
X131006499Y-50260680D01*
X131225238Y-49444337D01*
X131582411Y-48678378D01*
X132041074Y-48023338D01*
X141832982Y-48023338D01*
X141833235Y-48059592D01*
X141832982Y-48095846D01*
X141833527Y-48101405D01*
X141853928Y-48295501D01*
X141861217Y-48331009D01*
X141868011Y-48366625D01*
X141869626Y-48371972D01*
X141927338Y-48558410D01*
X141941376Y-48591807D01*
X141954967Y-48625445D01*
X141957589Y-48630376D01*
X142050414Y-48802053D01*
X142070692Y-48832117D01*
X142090539Y-48862446D01*
X142094069Y-48866774D01*
X142218473Y-49017152D01*
X142244199Y-49042699D01*
X142269563Y-49068600D01*
X142273866Y-49072160D01*
X142425108Y-49195510D01*
X142455300Y-49215569D01*
X142485219Y-49236055D01*
X142490132Y-49238711D01*
X142662454Y-49330336D01*
X142695952Y-49344143D01*
X142729294Y-49358433D01*
X142734629Y-49360085D01*
X142921466Y-49416494D01*
X142957029Y-49423536D01*
X142992490Y-49431073D01*
X142998044Y-49431657D01*
X143192278Y-49450702D01*
X143192282Y-49450702D01*
X143211665Y-49452611D01*
X150850959Y-49452611D01*
X150871326Y-49450605D01*
X150884307Y-49450605D01*
X150889862Y-49450021D01*
X151083811Y-49428266D01*
X151119268Y-49420729D01*
X151154838Y-49413686D01*
X151160173Y-49412035D01*
X151346204Y-49353022D01*
X151379531Y-49338738D01*
X151413043Y-49324925D01*
X151417952Y-49322270D01*
X151417957Y-49322268D01*
X151417961Y-49322265D01*
X151588981Y-49228246D01*
X151618878Y-49207775D01*
X151649090Y-49187702D01*
X151653394Y-49184142D01*
X151802900Y-49058692D01*
X151828280Y-49032775D01*
X151853991Y-49007243D01*
X151857521Y-49002915D01*
X151979812Y-48850815D01*
X151999673Y-48820464D01*
X152019935Y-48790425D01*
X152022557Y-48785494D01*
X152112977Y-48612538D01*
X152126556Y-48578929D01*
X152140608Y-48545500D01*
X152142222Y-48540153D01*
X152197325Y-48352928D01*
X152204116Y-48317326D01*
X152211408Y-48281805D01*
X152211953Y-48276246D01*
X152229642Y-48081885D01*
X152229389Y-48045630D01*
X152229642Y-48009376D01*
X152229097Y-48003817D01*
X152208696Y-47809720D01*
X152201404Y-47774199D01*
X152194613Y-47738597D01*
X152192999Y-47733254D01*
X152192998Y-47733248D01*
X152192996Y-47733242D01*
X152135286Y-47546812D01*
X152121254Y-47513432D01*
X152107657Y-47479777D01*
X152105035Y-47474846D01*
X152012210Y-47303169D01*
X151991932Y-47273105D01*
X151972085Y-47242776D01*
X151968555Y-47238448D01*
X151844151Y-47088070D01*
X151818425Y-47062523D01*
X151793061Y-47036622D01*
X151788758Y-47033062D01*
X151637516Y-46909712D01*
X151607342Y-46889665D01*
X151577406Y-46869167D01*
X151572493Y-46866511D01*
X151400170Y-46774886D01*
X151366672Y-46761079D01*
X151333330Y-46746789D01*
X151327995Y-46745137D01*
X151141159Y-46688728D01*
X151105574Y-46681682D01*
X151070134Y-46674149D01*
X151064579Y-46673565D01*
X150870346Y-46654520D01*
X150870342Y-46654520D01*
X150850959Y-46652611D01*
X143211665Y-46652611D01*
X143191298Y-46654617D01*
X143178317Y-46654617D01*
X143172762Y-46655201D01*
X142978812Y-46676956D01*
X142943348Y-46684494D01*
X142907786Y-46691536D01*
X142902451Y-46693187D01*
X142716421Y-46752200D01*
X142683107Y-46766478D01*
X142649581Y-46780297D01*
X142644668Y-46782953D01*
X142473643Y-46876976D01*
X142443746Y-46897447D01*
X142413534Y-46917520D01*
X142409234Y-46921078D01*
X142409229Y-46921081D01*
X142409225Y-46921085D01*
X142259724Y-47046530D01*
X142234344Y-47072447D01*
X142208633Y-47097979D01*
X142205103Y-47102307D01*
X142082812Y-47254407D01*
X142062961Y-47284743D01*
X142042689Y-47314797D01*
X142040067Y-47319729D01*
X141949647Y-47492684D01*
X141936068Y-47526293D01*
X141922016Y-47559722D01*
X141920402Y-47565069D01*
X141865299Y-47752295D01*
X141858509Y-47787889D01*
X141851216Y-47823417D01*
X141850671Y-47828976D01*
X141832982Y-48023338D01*
X132041074Y-48023338D01*
X132067168Y-47986073D01*
X132664775Y-47388466D01*
X133357076Y-46903711D01*
X134123037Y-46546538D01*
X134939382Y-46327798D01*
X135798777Y-46252611D01*
X158263847Y-46252611D01*
X159123243Y-46327798D01*
G37*
X159123243Y-46327798D02*
X159939586Y-46546537D01*
X160705545Y-46903710D01*
X161397850Y-47388467D01*
X161995457Y-47986074D01*
X162480212Y-48678375D01*
X162837385Y-49444336D01*
X163056125Y-50260681D01*
X163131313Y-51120088D01*
X163131312Y-74585146D01*
X163056125Y-75444541D01*
X162837385Y-76260886D01*
X162480212Y-77026847D01*
X161995457Y-77719148D01*
X161397850Y-78316755D01*
X160705545Y-78801512D01*
X159939586Y-79158685D01*
X159123243Y-79377424D01*
X158263847Y-79452611D01*
X135798777Y-79452611D01*
X134939382Y-79377424D01*
X134123037Y-79158684D01*
X133357076Y-78801511D01*
X132664775Y-78316756D01*
X132067168Y-77719149D01*
X132000081Y-77623338D01*
X141832982Y-77623338D01*
X141833235Y-77659592D01*
X141832982Y-77695846D01*
X141833527Y-77701405D01*
X141853928Y-77895501D01*
X141861217Y-77931009D01*
X141868011Y-77966625D01*
X141869626Y-77971972D01*
X141927338Y-78158410D01*
X141941376Y-78191807D01*
X141954967Y-78225445D01*
X141957589Y-78230376D01*
X142050414Y-78402053D01*
X142070692Y-78432117D01*
X142090539Y-78462446D01*
X142094069Y-78466774D01*
X142218473Y-78617152D01*
X142244199Y-78642699D01*
X142269563Y-78668600D01*
X142273866Y-78672160D01*
X142425108Y-78795510D01*
X142455300Y-78815569D01*
X142485219Y-78836055D01*
X142490132Y-78838711D01*
X142662454Y-78930336D01*
X142695952Y-78944143D01*
X142729294Y-78958433D01*
X142734629Y-78960085D01*
X142921466Y-79016494D01*
X142957029Y-79023536D01*
X142992490Y-79031073D01*
X142998044Y-79031657D01*
X143192278Y-79050702D01*
X143192282Y-79050702D01*
X143211665Y-79052611D01*
X150850959Y-79052611D01*
X150871326Y-79050605D01*
X150884307Y-79050605D01*
X150889862Y-79050021D01*
X151083811Y-79028266D01*
X151119268Y-79020729D01*
X151154838Y-79013686D01*
X151160173Y-79012035D01*
X151346204Y-78953022D01*
X151379531Y-78938738D01*
X151413043Y-78924925D01*
X151417952Y-78922270D01*
X151417957Y-78922268D01*
X151417961Y-78922265D01*
X151588981Y-78828246D01*
X151618878Y-78807775D01*
X151649090Y-78787702D01*
X151653394Y-78784142D01*
X151802900Y-78658692D01*
X151828280Y-78632775D01*
X151853991Y-78607243D01*
X151857521Y-78602915D01*
X151979812Y-78450815D01*
X151999673Y-78420464D01*
X152019935Y-78390425D01*
X152022557Y-78385494D01*
X152112977Y-78212538D01*
X152126556Y-78178929D01*
X152140608Y-78145500D01*
X152142222Y-78140153D01*
X152197325Y-77952928D01*
X152204116Y-77917326D01*
X152211408Y-77881805D01*
X152211953Y-77876246D01*
X152229642Y-77681885D01*
X152229389Y-77645630D01*
X152229642Y-77609376D01*
X152229097Y-77603817D01*
X152208696Y-77409720D01*
X152201404Y-77374199D01*
X152194613Y-77338597D01*
X152192999Y-77333254D01*
X152192998Y-77333248D01*
X152192996Y-77333242D01*
X152135286Y-77146812D01*
X152121254Y-77113432D01*
X152107657Y-77079777D01*
X152105035Y-77074846D01*
X152012210Y-76903169D01*
X151991932Y-76873105D01*
X151972085Y-76842776D01*
X151968555Y-76838448D01*
X151844151Y-76688070D01*
X151818425Y-76662523D01*
X151793061Y-76636622D01*
X151788758Y-76633062D01*
X151637516Y-76509712D01*
X151607342Y-76489665D01*
X151577406Y-76469167D01*
X151572493Y-76466511D01*
X151400170Y-76374886D01*
X151366672Y-76361079D01*
X151333330Y-76346789D01*
X151327995Y-76345137D01*
X151141159Y-76288728D01*
X151105574Y-76281682D01*
X151070134Y-76274149D01*
X151064579Y-76273565D01*
X150870346Y-76254520D01*
X150870342Y-76254520D01*
X150850959Y-76252611D01*
X143211665Y-76252611D01*
X143191298Y-76254617D01*
X143178317Y-76254617D01*
X143172762Y-76255201D01*
X142978812Y-76276956D01*
X142943348Y-76284494D01*
X142907786Y-76291536D01*
X142902451Y-76293187D01*
X142716421Y-76352200D01*
X142683107Y-76366478D01*
X142649581Y-76380297D01*
X142644668Y-76382953D01*
X142473643Y-76476976D01*
X142443746Y-76497447D01*
X142413534Y-76517520D01*
X142409234Y-76521078D01*
X142409229Y-76521081D01*
X142409225Y-76521085D01*
X142259724Y-76646530D01*
X142234344Y-76672447D01*
X142208633Y-76697979D01*
X142205103Y-76702307D01*
X142082812Y-76854407D01*
X142062961Y-76884743D01*
X142042689Y-76914797D01*
X142040067Y-76919729D01*
X141949647Y-77092684D01*
X141936068Y-77126293D01*
X141922016Y-77159722D01*
X141920402Y-77165069D01*
X141865299Y-77352295D01*
X141858509Y-77387889D01*
X141851216Y-77423417D01*
X141850671Y-77428976D01*
X141832982Y-77623338D01*
X132000081Y-77623338D01*
X131582411Y-77026844D01*
X131225238Y-76260885D01*
X131006499Y-75444542D01*
X130931312Y-74585146D01*
X130931312Y-73526280D01*
X137506312Y-73526280D01*
X137506312Y-73678942D01*
X137536095Y-73828670D01*
X137594516Y-73969711D01*
X137679330Y-74096645D01*
X137787278Y-74204593D01*
X137914212Y-74289407D01*
X138055253Y-74347828D01*
X138079299Y-74352611D01*
X138055253Y-74357394D01*
X137914212Y-74415815D01*
X137787278Y-74500629D01*
X137679330Y-74608577D01*
X137594516Y-74735511D01*
X137536095Y-74876552D01*
X137506312Y-75026280D01*
X137506312Y-75178942D01*
X137536095Y-75328670D01*
X137594516Y-75469711D01*
X137679330Y-75596645D01*
X137787278Y-75704593D01*
X137914212Y-75789407D01*
X138055253Y-75847828D01*
X138204981Y-75877611D01*
X138357643Y-75877611D01*
X138507371Y-75847828D01*
X138648412Y-75789407D01*
X138775346Y-75704593D01*
X138883294Y-75596645D01*
X138968108Y-75469711D01*
X139026529Y-75328670D01*
X139056312Y-75178942D01*
X139056312Y-75026280D01*
X139026529Y-74876552D01*
X138968108Y-74735511D01*
X138883294Y-74608577D01*
X138775346Y-74500629D01*
X138648412Y-74415815D01*
X138507371Y-74357394D01*
X138483325Y-74352611D01*
X138507371Y-74347828D01*
X138648412Y-74289407D01*
X138775346Y-74204593D01*
X138883294Y-74096645D01*
X138968108Y-73969711D01*
X139026529Y-73828670D01*
X139056312Y-73678942D01*
X139056312Y-73526280D01*
X139026529Y-73376552D01*
X138968108Y-73235511D01*
X138883294Y-73108577D01*
X138775346Y-73000629D01*
X138648412Y-72915815D01*
X138507371Y-72857394D01*
X138357643Y-72827611D01*
X138204981Y-72827611D01*
X138055253Y-72857394D01*
X137914212Y-72915815D01*
X137787278Y-73000629D01*
X137679330Y-73108577D01*
X137594516Y-73235511D01*
X137536095Y-73376552D01*
X137506312Y-73526280D01*
X130931312Y-73526280D01*
X130931312Y-71026280D01*
X139506312Y-71026280D01*
X139506312Y-71178942D01*
X139536095Y-71328670D01*
X139594516Y-71469711D01*
X139679330Y-71596645D01*
X139685296Y-71602611D01*
X139679330Y-71608577D01*
X139594516Y-71735511D01*
X139536095Y-71876552D01*
X139506312Y-72026280D01*
X139506312Y-72178942D01*
X139536095Y-72328670D01*
X139594516Y-72469711D01*
X139679330Y-72596645D01*
X139685296Y-72602611D01*
X139679330Y-72608577D01*
X139594516Y-72735511D01*
X139536095Y-72876552D01*
X139506312Y-73026280D01*
X139506312Y-73178942D01*
X139536095Y-73328670D01*
X139594516Y-73469711D01*
X139679330Y-73596645D01*
X139685296Y-73602611D01*
X139679330Y-73608577D01*
X139594516Y-73735511D01*
X139536095Y-73876552D01*
X139506312Y-74026280D01*
X139506312Y-74178942D01*
X139536095Y-74328670D01*
X139594516Y-74469711D01*
X139679330Y-74596645D01*
X139787278Y-74704593D01*
X139914212Y-74789407D01*
X140055253Y-74847828D01*
X140204981Y-74877611D01*
X140357643Y-74877611D01*
X140507371Y-74847828D01*
X140648412Y-74789407D01*
X140775346Y-74704593D01*
X140883294Y-74596645D01*
X140968108Y-74469711D01*
X141026529Y-74328670D01*
X141056312Y-74178942D01*
X141056312Y-74026280D01*
X141026529Y-73876552D01*
X140968108Y-73735511D01*
X140883294Y-73608577D01*
X140877328Y-73602611D01*
X140883294Y-73596645D01*
X140968108Y-73469711D01*
X141026529Y-73328670D01*
X141046895Y-73226280D01*
X146256312Y-73226280D01*
X146256312Y-73378942D01*
X146286095Y-73528670D01*
X146344516Y-73669711D01*
X146429330Y-73796645D01*
X146537278Y-73904593D01*
X146664212Y-73989407D01*
X146805253Y-74047828D01*
X146954981Y-74077611D01*
X147107643Y-74077611D01*
X147257371Y-74047828D01*
X147398412Y-73989407D01*
X147525346Y-73904593D01*
X147633294Y-73796645D01*
X147663605Y-73751280D01*
X152506312Y-73751280D01*
X152506312Y-73903942D01*
X152536095Y-74053670D01*
X152594516Y-74194711D01*
X152679330Y-74321645D01*
X152787278Y-74429593D01*
X152840435Y-74465111D01*
X152787278Y-74500629D01*
X152679330Y-74608577D01*
X152594516Y-74735511D01*
X152536095Y-74876552D01*
X152506312Y-75026280D01*
X152506312Y-75178942D01*
X152536095Y-75328670D01*
X152594516Y-75469711D01*
X152679330Y-75596645D01*
X152787278Y-75704593D01*
X152914212Y-75789407D01*
X153055253Y-75847828D01*
X153204981Y-75877611D01*
X153357643Y-75877611D01*
X153507371Y-75847828D01*
X153648412Y-75789407D01*
X153775346Y-75704593D01*
X153883294Y-75596645D01*
X153968108Y-75469711D01*
X154026529Y-75328670D01*
X154056312Y-75178942D01*
X154056312Y-75026280D01*
X154026529Y-74876552D01*
X153968108Y-74735511D01*
X153883294Y-74608577D01*
X153775346Y-74500629D01*
X153722189Y-74465111D01*
X153775346Y-74429593D01*
X153883294Y-74321645D01*
X153968108Y-74194711D01*
X154026529Y-74053670D01*
X154056312Y-73903942D01*
X154056312Y-73751280D01*
X154026529Y-73601552D01*
X153968108Y-73460511D01*
X153883294Y-73333577D01*
X153775346Y-73225629D01*
X153648412Y-73140815D01*
X153507371Y-73082394D01*
X153357643Y-73052611D01*
X153204981Y-73052611D01*
X153055253Y-73082394D01*
X152914212Y-73140815D01*
X152787278Y-73225629D01*
X152679330Y-73333577D01*
X152594516Y-73460511D01*
X152536095Y-73601552D01*
X152506312Y-73751280D01*
X147663605Y-73751280D01*
X147718108Y-73669711D01*
X147776529Y-73528670D01*
X147806312Y-73378942D01*
X147806312Y-73226280D01*
X147776529Y-73076552D01*
X147718108Y-72935511D01*
X147633294Y-72808577D01*
X147525346Y-72700629D01*
X147398412Y-72615815D01*
X147257371Y-72557394D01*
X147107643Y-72527611D01*
X146954981Y-72527611D01*
X146805253Y-72557394D01*
X146664212Y-72615815D01*
X146537278Y-72700629D01*
X146429330Y-72808577D01*
X146344516Y-72935511D01*
X146286095Y-73076552D01*
X146256312Y-73226280D01*
X141046895Y-73226280D01*
X141056312Y-73178942D01*
X141056312Y-73026280D01*
X141026529Y-72876552D01*
X140968108Y-72735511D01*
X140883294Y-72608577D01*
X140877328Y-72602611D01*
X140883294Y-72596645D01*
X140968108Y-72469711D01*
X141026529Y-72328670D01*
X141056312Y-72178942D01*
X141056312Y-72026280D01*
X141026529Y-71876552D01*
X140968108Y-71735511D01*
X140883294Y-71608577D01*
X140877328Y-71602611D01*
X140883294Y-71596645D01*
X140968108Y-71469711D01*
X141026529Y-71328670D01*
X141056312Y-71178942D01*
X141056312Y-71026280D01*
X154506312Y-71026280D01*
X154506312Y-71178942D01*
X154536095Y-71328670D01*
X154594516Y-71469711D01*
X154679330Y-71596645D01*
X154685296Y-71602611D01*
X154679330Y-71608577D01*
X154594516Y-71735511D01*
X154536095Y-71876552D01*
X154506312Y-72026280D01*
X154506312Y-72178942D01*
X154536095Y-72328670D01*
X154594516Y-72469711D01*
X154679330Y-72596645D01*
X154685296Y-72602611D01*
X154679330Y-72608577D01*
X154594516Y-72735511D01*
X154536095Y-72876552D01*
X154506312Y-73026280D01*
X154506312Y-73178942D01*
X154536095Y-73328670D01*
X154594516Y-73469711D01*
X154679330Y-73596645D01*
X154685296Y-73602611D01*
X154679330Y-73608577D01*
X154594516Y-73735511D01*
X154536095Y-73876552D01*
X154506312Y-74026280D01*
X154506312Y-74178942D01*
X154536095Y-74328670D01*
X154594516Y-74469711D01*
X154679330Y-74596645D01*
X154787278Y-74704593D01*
X154914212Y-74789407D01*
X155055253Y-74847828D01*
X155204981Y-74877611D01*
X155357643Y-74877611D01*
X155507371Y-74847828D01*
X155648412Y-74789407D01*
X155775346Y-74704593D01*
X155883294Y-74596645D01*
X155968108Y-74469711D01*
X156026529Y-74328670D01*
X156056312Y-74178942D01*
X156056312Y-74026280D01*
X156026529Y-73876552D01*
X155968108Y-73735511D01*
X155883294Y-73608577D01*
X155877328Y-73602611D01*
X155883294Y-73596645D01*
X155968108Y-73469711D01*
X156026529Y-73328670D01*
X156056312Y-73178942D01*
X156056312Y-73026280D01*
X156026529Y-72876552D01*
X155968108Y-72735511D01*
X155883294Y-72608577D01*
X155877328Y-72602611D01*
X155883294Y-72596645D01*
X155968108Y-72469711D01*
X156026529Y-72328670D01*
X156056312Y-72178942D01*
X156056312Y-72026280D01*
X156026529Y-71876552D01*
X155968108Y-71735511D01*
X155883294Y-71608577D01*
X155877328Y-71602611D01*
X155883294Y-71596645D01*
X155968108Y-71469711D01*
X156026529Y-71328670D01*
X156056312Y-71178942D01*
X156056312Y-71026280D01*
X156026529Y-70876552D01*
X155968108Y-70735511D01*
X155883294Y-70608577D01*
X155775346Y-70500629D01*
X155648412Y-70415815D01*
X155507371Y-70357394D01*
X155357643Y-70327611D01*
X155204981Y-70327611D01*
X155055253Y-70357394D01*
X154914212Y-70415815D01*
X154787278Y-70500629D01*
X154679330Y-70608577D01*
X154594516Y-70735511D01*
X154536095Y-70876552D01*
X154506312Y-71026280D01*
X141056312Y-71026280D01*
X141026529Y-70876552D01*
X140968108Y-70735511D01*
X140883294Y-70608577D01*
X140775346Y-70500629D01*
X140648412Y-70415815D01*
X140507371Y-70357394D01*
X140357643Y-70327611D01*
X140204981Y-70327611D01*
X140055253Y-70357394D01*
X139914212Y-70415815D01*
X139787278Y-70500629D01*
X139679330Y-70608577D01*
X139594516Y-70735511D01*
X139536095Y-70876552D01*
X139506312Y-71026280D01*
X130931312Y-71026280D01*
X130931312Y-60026280D01*
X138006312Y-60026280D01*
X138006312Y-60178942D01*
X138036095Y-60328670D01*
X138094516Y-60469711D01*
X138179330Y-60596645D01*
X138287278Y-60704593D01*
X138321727Y-60727611D01*
X138287278Y-60750629D01*
X138179330Y-60858577D01*
X138094516Y-60985511D01*
X138036095Y-61126552D01*
X138006312Y-61276280D01*
X138006312Y-61428942D01*
X138036095Y-61578670D01*
X138094516Y-61719711D01*
X138179330Y-61846645D01*
X138287278Y-61954593D01*
X138321727Y-61977611D01*
X138287278Y-62000629D01*
X138179330Y-62108577D01*
X138094516Y-62235511D01*
X138036095Y-62376552D01*
X138006312Y-62526280D01*
X138006312Y-62678942D01*
X138036095Y-62828670D01*
X138094516Y-62969711D01*
X138179330Y-63096645D01*
X138287278Y-63204593D01*
X138414212Y-63289407D01*
X138555253Y-63347828D01*
X138704981Y-63377611D01*
X138857643Y-63377611D01*
X139007371Y-63347828D01*
X139148412Y-63289407D01*
X139275346Y-63204593D01*
X139383294Y-63096645D01*
X139430310Y-63026280D01*
X140506312Y-63026280D01*
X140506312Y-63178942D01*
X140536095Y-63328670D01*
X140594516Y-63469711D01*
X140679330Y-63596645D01*
X140787278Y-63704593D01*
X140914212Y-63789407D01*
X141055253Y-63847828D01*
X141204981Y-63877611D01*
X141357643Y-63877611D01*
X141507371Y-63847828D01*
X141648412Y-63789407D01*
X141775346Y-63704593D01*
X141883294Y-63596645D01*
X141968108Y-63469711D01*
X142026529Y-63328670D01*
X142056312Y-63178942D01*
X142056312Y-63026280D01*
X142026529Y-62876552D01*
X141968108Y-62735511D01*
X141883294Y-62608577D01*
X141775346Y-62500629D01*
X141648412Y-62415815D01*
X141507371Y-62357394D01*
X141357643Y-62327611D01*
X141204981Y-62327611D01*
X141055253Y-62357394D01*
X140914212Y-62415815D01*
X140787278Y-62500629D01*
X140679330Y-62608577D01*
X140594516Y-62735511D01*
X140536095Y-62876552D01*
X140506312Y-63026280D01*
X139430310Y-63026280D01*
X139468108Y-62969711D01*
X139526529Y-62828670D01*
X139556312Y-62678942D01*
X139556312Y-62526280D01*
X139526529Y-62376552D01*
X139468108Y-62235511D01*
X139383294Y-62108577D01*
X139275346Y-62000629D01*
X139240897Y-61977611D01*
X139275346Y-61954593D01*
X139383294Y-61846645D01*
X139468108Y-61719711D01*
X139526529Y-61578670D01*
X139556312Y-61428942D01*
X139556312Y-61284716D01*
X140738419Y-60102611D01*
X145579299Y-60102611D01*
X145555253Y-60107394D01*
X145414212Y-60165815D01*
X145287278Y-60250629D01*
X145179330Y-60358577D01*
X145094516Y-60485511D01*
X145036095Y-60626552D01*
X145006312Y-60776280D01*
X145006312Y-60928942D01*
X145036095Y-61078670D01*
X145094516Y-61219711D01*
X145179330Y-61346645D01*
X145287278Y-61454593D01*
X145414212Y-61539407D01*
X145555253Y-61597828D01*
X145704981Y-61627611D01*
X145857643Y-61627611D01*
X146007371Y-61597828D01*
X146148412Y-61539407D01*
X146275346Y-61454593D01*
X146383294Y-61346645D01*
X146468108Y-61219711D01*
X146526529Y-61078670D01*
X146556312Y-60928942D01*
X146556312Y-60776280D01*
X146526529Y-60626552D01*
X146468108Y-60485511D01*
X146383294Y-60358577D01*
X146275346Y-60250629D01*
X146148412Y-60165815D01*
X146007371Y-60107394D01*
X145983325Y-60102611D01*
X148538691Y-60102611D01*
X150513691Y-62077611D01*
X150479981Y-62077611D01*
X150330253Y-62107394D01*
X150189212Y-62165815D01*
X150062278Y-62250629D01*
X149954330Y-62358577D01*
X149869516Y-62485511D01*
X149811095Y-62626552D01*
X149781312Y-62776280D01*
X149781312Y-62928942D01*
X149811095Y-63078670D01*
X149869516Y-63219711D01*
X149954330Y-63346645D01*
X150062278Y-63454593D01*
X150189212Y-63539407D01*
X150330253Y-63597828D01*
X150479981Y-63627611D01*
X150632643Y-63627611D01*
X150782371Y-63597828D01*
X150923412Y-63539407D01*
X151050346Y-63454593D01*
X151158294Y-63346645D01*
X151243108Y-63219711D01*
X151301529Y-63078670D01*
X151331312Y-62928942D01*
X151331312Y-62895232D01*
X160624879Y-72188801D01*
X160640535Y-72207878D01*
X160716670Y-72270360D01*
X160803532Y-72316789D01*
X160897782Y-72345379D01*
X160931372Y-72348687D01*
X161037278Y-72454593D01*
X161164212Y-72539407D01*
X161305253Y-72597828D01*
X161454981Y-72627611D01*
X161607643Y-72627611D01*
X161757371Y-72597828D01*
X161898412Y-72539407D01*
X162025346Y-72454593D01*
X162133294Y-72346645D01*
X162218108Y-72219711D01*
X162276529Y-72078670D01*
X162306312Y-71928942D01*
X162306312Y-71776280D01*
X162276529Y-71626552D01*
X162218108Y-71485511D01*
X162133294Y-71358577D01*
X162127328Y-71352611D01*
X162133294Y-71346645D01*
X162218108Y-71219711D01*
X162276529Y-71078670D01*
X162306312Y-70928942D01*
X162306312Y-70776280D01*
X162276529Y-70626552D01*
X162218108Y-70485511D01*
X162133294Y-70358577D01*
X162025346Y-70250629D01*
X161898412Y-70165815D01*
X161757371Y-70107394D01*
X161607643Y-70077611D01*
X161454981Y-70077611D01*
X161305253Y-70107394D01*
X161164212Y-70165815D01*
X161037278Y-70250629D01*
X160935296Y-70352611D01*
X160839313Y-70352611D01*
X154890744Y-64404043D01*
X154923412Y-64390511D01*
X155050346Y-64305697D01*
X155158294Y-64197749D01*
X155243108Y-64070815D01*
X155301529Y-63929774D01*
X155331312Y-63780046D01*
X155331312Y-63627384D01*
X155301529Y-63477656D01*
X155243108Y-63336615D01*
X155158294Y-63209681D01*
X155050346Y-63101733D01*
X154923412Y-63016919D01*
X154799058Y-62965410D01*
X154806312Y-62928942D01*
X154806312Y-62776280D01*
X157756312Y-62776280D01*
X157756312Y-62928942D01*
X157786095Y-63078670D01*
X157844516Y-63219711D01*
X157929330Y-63346645D01*
X158037278Y-63454593D01*
X158164212Y-63539407D01*
X158305253Y-63597828D01*
X158454981Y-63627611D01*
X158607643Y-63627611D01*
X158757371Y-63597828D01*
X158898412Y-63539407D01*
X159025346Y-63454593D01*
X159133294Y-63346645D01*
X159218108Y-63219711D01*
X159276529Y-63078670D01*
X159306312Y-62928942D01*
X159306312Y-62776280D01*
X159276529Y-62626552D01*
X159218108Y-62485511D01*
X159133294Y-62358577D01*
X159025346Y-62250629D01*
X158898412Y-62165815D01*
X158757371Y-62107394D01*
X158607643Y-62077611D01*
X158454981Y-62077611D01*
X158305253Y-62107394D01*
X158164212Y-62165815D01*
X158037278Y-62250629D01*
X157929330Y-62358577D01*
X157844516Y-62485511D01*
X157786095Y-62626552D01*
X157756312Y-62776280D01*
X154806312Y-62776280D01*
X154776529Y-62626552D01*
X154718108Y-62485511D01*
X154633294Y-62358577D01*
X154525346Y-62250629D01*
X154398412Y-62165815D01*
X154257371Y-62107394D01*
X154107643Y-62077611D01*
X153954981Y-62077611D01*
X153805253Y-62107394D01*
X153664212Y-62165815D01*
X153537278Y-62250629D01*
X153429330Y-62358577D01*
X153344516Y-62485511D01*
X153286095Y-62626552D01*
X153257418Y-62770718D01*
X149253135Y-58766435D01*
X149237470Y-58747347D01*
X149161335Y-58684865D01*
X149074473Y-58638436D01*
X148980223Y-58609846D01*
X148906766Y-58602611D01*
X148882206Y-58600192D01*
X148857646Y-58602611D01*
X139805872Y-58602611D01*
X139781312Y-58600192D01*
X139756752Y-58602611D01*
X139683295Y-58609846D01*
X139589045Y-58638436D01*
X139502183Y-58684865D01*
X139426048Y-58747347D01*
X139410392Y-58766424D01*
X138849206Y-59327611D01*
X138704981Y-59327611D01*
X138555253Y-59357394D01*
X138414212Y-59415815D01*
X138287278Y-59500629D01*
X138179330Y-59608577D01*
X138094516Y-59735511D01*
X138036095Y-59876552D01*
X138006312Y-60026280D01*
X130931312Y-60026280D01*
X130931312Y-51526280D01*
X138006312Y-51526280D01*
X138006312Y-51678942D01*
X138036095Y-51828670D01*
X138094516Y-51969711D01*
X138179330Y-52096645D01*
X138185296Y-52102611D01*
X138179330Y-52108577D01*
X138094516Y-52235511D01*
X138036095Y-52376552D01*
X138006312Y-52526280D01*
X138006312Y-52678942D01*
X138036095Y-52828670D01*
X138094516Y-52969711D01*
X138179330Y-53096645D01*
X138185296Y-53102611D01*
X138179330Y-53108577D01*
X138094516Y-53235511D01*
X138036095Y-53376552D01*
X138006312Y-53526280D01*
X138006312Y-53678942D01*
X138036095Y-53828670D01*
X138094516Y-53969711D01*
X138179330Y-54096645D01*
X138185296Y-54102611D01*
X138179330Y-54108577D01*
X138094516Y-54235511D01*
X138036095Y-54376552D01*
X138006312Y-54526280D01*
X138006312Y-54678942D01*
X138036095Y-54828670D01*
X138094516Y-54969711D01*
X138179330Y-55096645D01*
X138287278Y-55204593D01*
X138414212Y-55289407D01*
X138555253Y-55347828D01*
X138704981Y-55377611D01*
X138857643Y-55377611D01*
X139007371Y-55347828D01*
X139148412Y-55289407D01*
X139275346Y-55204593D01*
X139383294Y-55096645D01*
X139468108Y-54969711D01*
X139526529Y-54828670D01*
X139556312Y-54678942D01*
X139556312Y-54526280D01*
X139526529Y-54376552D01*
X139468108Y-54235511D01*
X139383294Y-54108577D01*
X139377328Y-54102611D01*
X139383294Y-54096645D01*
X139468108Y-53969711D01*
X139526529Y-53828670D01*
X139556312Y-53678942D01*
X139556312Y-53526280D01*
X153006306Y-53526280D01*
X153006306Y-53678942D01*
X153036089Y-53828670D01*
X153094510Y-53969711D01*
X153179324Y-54096645D01*
X153185293Y-54102614D01*
X153179330Y-54108577D01*
X153094516Y-54235511D01*
X153036095Y-54376552D01*
X153006312Y-54526280D01*
X153006312Y-54678942D01*
X153036095Y-54828670D01*
X153094516Y-54969711D01*
X153179330Y-55096645D01*
X153287278Y-55204593D01*
X153414212Y-55289407D01*
X153555253Y-55347828D01*
X153704981Y-55377611D01*
X153857643Y-55377611D01*
X154007371Y-55347828D01*
X154148412Y-55289407D01*
X154275346Y-55204593D01*
X154383294Y-55096645D01*
X154468108Y-54969711D01*
X154526529Y-54828670D01*
X154556312Y-54678942D01*
X154556312Y-54526280D01*
X154526529Y-54376552D01*
X154468108Y-54235511D01*
X154383294Y-54108577D01*
X154377325Y-54102608D01*
X154383288Y-54096645D01*
X154468102Y-53969711D01*
X154526523Y-53828670D01*
X154556306Y-53678942D01*
X154556306Y-53526280D01*
X154526523Y-53376552D01*
X154468102Y-53235511D01*
X154383288Y-53108577D01*
X154377325Y-53102614D01*
X154383294Y-53096645D01*
X154468108Y-52969711D01*
X154526529Y-52828670D01*
X154556312Y-52678942D01*
X154556312Y-52526280D01*
X154526529Y-52376552D01*
X154468108Y-52235511D01*
X154383294Y-52108577D01*
X154377328Y-52102611D01*
X154383294Y-52096645D01*
X154468108Y-51969711D01*
X154526529Y-51828670D01*
X154556312Y-51678942D01*
X154556312Y-51526280D01*
X154526529Y-51376552D01*
X154468108Y-51235511D01*
X154383294Y-51108577D01*
X154275346Y-51000629D01*
X154148412Y-50915815D01*
X154007371Y-50857394D01*
X153857643Y-50827611D01*
X153704981Y-50827611D01*
X153555253Y-50857394D01*
X153414212Y-50915815D01*
X153287278Y-51000629D01*
X153179330Y-51108577D01*
X153094516Y-51235511D01*
X153036095Y-51376552D01*
X153006312Y-51526280D01*
X153006312Y-51678942D01*
X153036095Y-51828670D01*
X153094516Y-51969711D01*
X153179330Y-52096645D01*
X153185296Y-52102611D01*
X153179330Y-52108577D01*
X153094516Y-52235511D01*
X153036095Y-52376552D01*
X153006312Y-52526280D01*
X153006312Y-52678942D01*
X153036095Y-52828670D01*
X153094516Y-52969711D01*
X153179330Y-53096645D01*
X153185293Y-53102608D01*
X153179324Y-53108577D01*
X153094510Y-53235511D01*
X153036089Y-53376552D01*
X153006306Y-53526280D01*
X139556312Y-53526280D01*
X139526529Y-53376552D01*
X139468108Y-53235511D01*
X139383294Y-53108577D01*
X139377328Y-53102611D01*
X139383294Y-53096645D01*
X139468108Y-52969711D01*
X139526529Y-52828670D01*
X139556312Y-52678942D01*
X139556312Y-52526280D01*
X139526529Y-52376552D01*
X139468108Y-52235511D01*
X139383294Y-52108577D01*
X139377328Y-52102611D01*
X139383294Y-52096645D01*
X139468108Y-51969711D01*
X139526529Y-51828670D01*
X139556312Y-51678942D01*
X139556312Y-51526280D01*
X139526529Y-51376552D01*
X139468108Y-51235511D01*
X139383294Y-51108577D01*
X139275346Y-51000629D01*
X139148412Y-50915815D01*
X139007371Y-50857394D01*
X138857643Y-50827611D01*
X138704981Y-50827611D01*
X138555253Y-50857394D01*
X138414212Y-50915815D01*
X138287278Y-51000629D01*
X138179330Y-51108577D01*
X138094516Y-51235511D01*
X138036095Y-51376552D01*
X138006312Y-51526280D01*
X130931312Y-51526280D01*
X130931312Y-51120076D01*
X130983262Y-50526280D01*
X140006312Y-50526280D01*
X140006312Y-50678942D01*
X140036095Y-50828670D01*
X140094516Y-50969711D01*
X140179330Y-51096645D01*
X140287278Y-51204593D01*
X140414212Y-51289407D01*
X140555253Y-51347828D01*
X140579299Y-51352611D01*
X140555253Y-51357394D01*
X140414212Y-51415815D01*
X140287278Y-51500629D01*
X140179330Y-51608577D01*
X140094516Y-51735511D01*
X140036095Y-51876552D01*
X140006312Y-52026280D01*
X140006312Y-52178942D01*
X140036095Y-52328670D01*
X140094516Y-52469711D01*
X140179330Y-52596645D01*
X140287278Y-52704593D01*
X140414212Y-52789407D01*
X140555253Y-52847828D01*
X140704981Y-52877611D01*
X140857643Y-52877611D01*
X141007371Y-52847828D01*
X141148412Y-52789407D01*
X141275346Y-52704593D01*
X141383294Y-52596645D01*
X141468108Y-52469711D01*
X141526529Y-52328670D01*
X141527004Y-52326280D01*
X146256312Y-52326280D01*
X146256312Y-52478942D01*
X146286095Y-52628670D01*
X146344516Y-52769711D01*
X146429330Y-52896645D01*
X146537278Y-53004593D01*
X146664212Y-53089407D01*
X146805253Y-53147828D01*
X146954981Y-53177611D01*
X147107643Y-53177611D01*
X147257371Y-53147828D01*
X147398412Y-53089407D01*
X147525346Y-53004593D01*
X147633294Y-52896645D01*
X147718108Y-52769711D01*
X147776529Y-52628670D01*
X147806312Y-52478942D01*
X147806312Y-52326280D01*
X147776529Y-52176552D01*
X147718108Y-52035511D01*
X147633294Y-51908577D01*
X147525346Y-51800629D01*
X147398412Y-51715815D01*
X147257371Y-51657394D01*
X147107643Y-51627611D01*
X146954981Y-51627611D01*
X146805253Y-51657394D01*
X146664212Y-51715815D01*
X146537278Y-51800629D01*
X146429330Y-51908577D01*
X146344516Y-52035511D01*
X146286095Y-52176552D01*
X146256312Y-52326280D01*
X141527004Y-52326280D01*
X141556312Y-52178942D01*
X141556312Y-52026280D01*
X141526529Y-51876552D01*
X141468108Y-51735511D01*
X141383294Y-51608577D01*
X141275346Y-51500629D01*
X141148412Y-51415815D01*
X141007371Y-51357394D01*
X140983325Y-51352611D01*
X141007371Y-51347828D01*
X141148412Y-51289407D01*
X141275346Y-51204593D01*
X141383294Y-51096645D01*
X141468108Y-50969711D01*
X141526529Y-50828670D01*
X141556312Y-50678942D01*
X141556312Y-50526280D01*
X155006312Y-50526280D01*
X155006312Y-50678942D01*
X155036095Y-50828670D01*
X155094516Y-50969711D01*
X155179330Y-51096645D01*
X155287278Y-51204593D01*
X155414212Y-51289407D01*
X155555253Y-51347828D01*
X155579299Y-51352611D01*
X155555253Y-51357394D01*
X155414212Y-51415815D01*
X155287278Y-51500629D01*
X155179330Y-51608577D01*
X155094516Y-51735511D01*
X155036095Y-51876552D01*
X155006312Y-52026280D01*
X155006312Y-52178942D01*
X155036095Y-52328670D01*
X155094516Y-52469711D01*
X155179330Y-52596645D01*
X155287278Y-52704593D01*
X155414212Y-52789407D01*
X155555253Y-52847828D01*
X155704981Y-52877611D01*
X155857643Y-52877611D01*
X156007371Y-52847828D01*
X156148412Y-52789407D01*
X156275346Y-52704593D01*
X156383294Y-52596645D01*
X156468108Y-52469711D01*
X156526529Y-52328670D01*
X156556312Y-52178942D01*
X156556312Y-52026280D01*
X156526529Y-51876552D01*
X156468108Y-51735511D01*
X156383294Y-51608577D01*
X156275346Y-51500629D01*
X156148412Y-51415815D01*
X156007371Y-51357394D01*
X155983325Y-51352611D01*
X156007371Y-51347828D01*
X156148412Y-51289407D01*
X156275346Y-51204593D01*
X156383294Y-51096645D01*
X156468108Y-50969711D01*
X156526529Y-50828670D01*
X156556312Y-50678942D01*
X156556312Y-50526280D01*
X156526529Y-50376552D01*
X156468108Y-50235511D01*
X156383294Y-50108577D01*
X156275346Y-50000629D01*
X156148412Y-49915815D01*
X156007371Y-49857394D01*
X155857643Y-49827611D01*
X155704981Y-49827611D01*
X155555253Y-49857394D01*
X155414212Y-49915815D01*
X155287278Y-50000629D01*
X155179330Y-50108577D01*
X155094516Y-50235511D01*
X155036095Y-50376552D01*
X155006312Y-50526280D01*
X141556312Y-50526280D01*
X141526529Y-50376552D01*
X141468108Y-50235511D01*
X141383294Y-50108577D01*
X141275346Y-50000629D01*
X141148412Y-49915815D01*
X141007371Y-49857394D01*
X140857643Y-49827611D01*
X140704981Y-49827611D01*
X140555253Y-49857394D01*
X140414212Y-49915815D01*
X140287278Y-50000629D01*
X140179330Y-50108577D01*
X140094516Y-50235511D01*
X140036095Y-50376552D01*
X140006312Y-50526280D01*
X130983262Y-50526280D01*
X131006499Y-50260680D01*
X131225238Y-49444337D01*
X131582411Y-48678378D01*
X132041074Y-48023338D01*
X141832982Y-48023338D01*
X141833235Y-48059592D01*
X141832982Y-48095846D01*
X141833527Y-48101405D01*
X141853928Y-48295501D01*
X141861217Y-48331009D01*
X141868011Y-48366625D01*
X141869626Y-48371972D01*
X141927338Y-48558410D01*
X141941376Y-48591807D01*
X141954967Y-48625445D01*
X141957589Y-48630376D01*
X142050414Y-48802053D01*
X142070692Y-48832117D01*
X142090539Y-48862446D01*
X142094069Y-48866774D01*
X142218473Y-49017152D01*
X142244199Y-49042699D01*
X142269563Y-49068600D01*
X142273866Y-49072160D01*
X142425108Y-49195510D01*
X142455300Y-49215569D01*
X142485219Y-49236055D01*
X142490132Y-49238711D01*
X142662454Y-49330336D01*
X142695952Y-49344143D01*
X142729294Y-49358433D01*
X142734629Y-49360085D01*
X142921466Y-49416494D01*
X142957029Y-49423536D01*
X142992490Y-49431073D01*
X142998044Y-49431657D01*
X143192278Y-49450702D01*
X143192282Y-49450702D01*
X143211665Y-49452611D01*
X150850959Y-49452611D01*
X150871326Y-49450605D01*
X150884307Y-49450605D01*
X150889862Y-49450021D01*
X151083811Y-49428266D01*
X151119268Y-49420729D01*
X151154838Y-49413686D01*
X151160173Y-49412035D01*
X151346204Y-49353022D01*
X151379531Y-49338738D01*
X151413043Y-49324925D01*
X151417952Y-49322270D01*
X151417957Y-49322268D01*
X151417961Y-49322265D01*
X151588981Y-49228246D01*
X151618878Y-49207775D01*
X151649090Y-49187702D01*
X151653394Y-49184142D01*
X151802900Y-49058692D01*
X151828280Y-49032775D01*
X151853991Y-49007243D01*
X151857521Y-49002915D01*
X151979812Y-48850815D01*
X151999673Y-48820464D01*
X152019935Y-48790425D01*
X152022557Y-48785494D01*
X152112977Y-48612538D01*
X152126556Y-48578929D01*
X152140608Y-48545500D01*
X152142222Y-48540153D01*
X152197325Y-48352928D01*
X152204116Y-48317326D01*
X152211408Y-48281805D01*
X152211953Y-48276246D01*
X152229642Y-48081885D01*
X152229389Y-48045630D01*
X152229642Y-48009376D01*
X152229097Y-48003817D01*
X152208696Y-47809720D01*
X152201404Y-47774199D01*
X152194613Y-47738597D01*
X152192999Y-47733254D01*
X152192998Y-47733248D01*
X152192996Y-47733242D01*
X152135286Y-47546812D01*
X152121254Y-47513432D01*
X152107657Y-47479777D01*
X152105035Y-47474846D01*
X152012210Y-47303169D01*
X151991932Y-47273105D01*
X151972085Y-47242776D01*
X151968555Y-47238448D01*
X151844151Y-47088070D01*
X151818425Y-47062523D01*
X151793061Y-47036622D01*
X151788758Y-47033062D01*
X151637516Y-46909712D01*
X151607342Y-46889665D01*
X151577406Y-46869167D01*
X151572493Y-46866511D01*
X151400170Y-46774886D01*
X151366672Y-46761079D01*
X151333330Y-46746789D01*
X151327995Y-46745137D01*
X151141159Y-46688728D01*
X151105574Y-46681682D01*
X151070134Y-46674149D01*
X151064579Y-46673565D01*
X150870346Y-46654520D01*
X150870342Y-46654520D01*
X150850959Y-46652611D01*
X143211665Y-46652611D01*
X143191298Y-46654617D01*
X143178317Y-46654617D01*
X143172762Y-46655201D01*
X142978812Y-46676956D01*
X142943348Y-46684494D01*
X142907786Y-46691536D01*
X142902451Y-46693187D01*
X142716421Y-46752200D01*
X142683107Y-46766478D01*
X142649581Y-46780297D01*
X142644668Y-46782953D01*
X142473643Y-46876976D01*
X142443746Y-46897447D01*
X142413534Y-46917520D01*
X142409234Y-46921078D01*
X142409229Y-46921081D01*
X142409225Y-46921085D01*
X142259724Y-47046530D01*
X142234344Y-47072447D01*
X142208633Y-47097979D01*
X142205103Y-47102307D01*
X142082812Y-47254407D01*
X142062961Y-47284743D01*
X142042689Y-47314797D01*
X142040067Y-47319729D01*
X141949647Y-47492684D01*
X141936068Y-47526293D01*
X141922016Y-47559722D01*
X141920402Y-47565069D01*
X141865299Y-47752295D01*
X141858509Y-47787889D01*
X141851216Y-47823417D01*
X141850671Y-47828976D01*
X141832982Y-48023338D01*
X132041074Y-48023338D01*
X132067168Y-47986073D01*
X132664775Y-47388466D01*
X133357076Y-46903711D01*
X134123037Y-46546538D01*
X134939382Y-46327798D01*
X135798777Y-46252611D01*
X158263847Y-46252611D01*
X159123243Y-46327798D01*
%TD*%
M02*
