M48
; DRILL file {KiCad (5.1.6)-1} date 09/19/20 18:08:14
; FORMAT={-:-/ absolute / inch / decimal}
; #@! TF.CreationDate,2020-09-19T18:08:14+02:00
; #@! TF.GenerationSoftware,Kicad,Pcbnew,(5.1.6)-1
FMAT,2
INCH
T1C0.0157
%
G90
G05
T1
X5.2138Y-2.7895
X5.2138Y-2.8288
X5.267Y-2.4745
X5.4441Y-2.8977
X5.4441Y-2.9568
X5.4638Y-1.9912
X5.4638Y-2.0316
X5.4638Y-2.071
X5.4638Y-2.1103
X5.4638Y-2.1497
X5.4638Y-2.3662
X5.4638Y-2.4155
X5.4638Y-2.4647
X5.5221Y-2.9578
X5.5229Y-2.7993
X5.5229Y-2.8387
X5.5229Y-2.8781
X5.5229Y-2.9174
X5.5426Y-1.9922
X5.5426Y-2.0513
X5.5426Y-2.3958
X5.5623Y-2.4844
X5.7394Y-2.3958
X5.7867Y-2.9489
X5.7886Y-2.0001
X5.7886Y-2.0631
X5.7886Y-2.8859
X5.9274Y-2.4745
X6.0347Y-2.9066
X6.0347Y-2.9568
X6.0544Y-2.1103
X6.0544Y-1.9912
X6.0544Y-2.0316
X6.0544Y-2.071
X6.0544Y-2.1497
X6.0642Y-2.4745
X6.0849Y-2.508
X6.1134Y-2.7993
X6.1134Y-2.8387
X6.1134Y-2.8781
X6.1134Y-2.9174
X6.1134Y-2.9578
X6.1331Y-1.9922
X6.1331Y-2.0513
X6.2414Y-2.4745
X6.3595Y-2.7895
X6.3595Y-2.8288
T0
M30
